<svg xmlns="http://www.w3.org/2000/svg" xmlns:xlink="http://www.w3.org/1999/xlink" width="500" zoomAndPan="magnify" viewBox="0 0 375 374.999991" height="500" preserveAspectRatio="xMidYMid meet" version="1.0"><defs><clipPath id="6b48bc7949"><path d="M 133.289062 133.289062 L 241.710938 133.289062 L 241.710938 241.710938 L 133.289062 241.710938 Z M 133.289062 133.289062 " clip-rule="nonzero"/></clipPath><clipPath id="b58fa3ca0b"><path d="M 187.5 133.289062 C 157.558594 133.289062 133.289062 157.558594 133.289062 187.5 C 133.289062 217.441406 157.558594 241.710938 187.5 241.710938 C 217.441406 241.710938 241.710938 217.441406 241.710938 187.5 C 241.710938 157.558594 217.441406 133.289062 187.5 133.289062 Z M 187.5 133.289062 " clip-rule="nonzero"/></clipPath><clipPath id="62ef5e89e6"><path d="M 133.289062 262.46875 L 241.710938 262.46875 L 241.710938 370.894531 L 133.289062 370.894531 Z M 133.289062 262.46875 " clip-rule="nonzero"/></clipPath><clipPath id="6e6cbc098f"><path d="M 187.5 262.46875 C 157.558594 262.46875 133.289062 286.738281 133.289062 316.679688 C 133.289062 346.621094 157.558594 370.894531 187.5 370.894531 C 217.441406 370.894531 241.710938 346.621094 241.710938 316.679688 C 241.710938 286.738281 217.441406 262.46875 187.5 262.46875 Z M 187.5 262.46875 " clip-rule="nonzero"/></clipPath><clipPath id="81d41de8fa"><path d="M 133.289062 4.105469 L 241.710938 4.105469 L 241.710938 112.53125 L 133.289062 112.53125 Z M 133.289062 4.105469 " clip-rule="nonzero"/></clipPath><clipPath id="b826f36983"><path d="M 187.5 4.105469 C 157.558594 4.105469 133.289062 28.378906 133.289062 58.320312 C 133.289062 88.261719 157.558594 112.53125 187.5 112.53125 C 217.441406 112.53125 241.710938 88.261719 241.710938 58.320312 C 241.710938 28.378906 217.441406 4.105469 187.5 4.105469 Z M 187.5 4.105469 " clip-rule="nonzero"/></clipPath></defs><g clip-path="url(#6b48bc7949)"><g clip-path="url(#b58fa3ca0b)"><path fill="#91a8e0" d="M 133.289062 133.289062 L 241.710938 133.289062 L 241.710938 241.710938 L 133.289062 241.710938 Z M 133.289062 133.289062 " fill-opacity="1" fill-rule="nonzero"/></g></g><g clip-path="url(#62ef5e89e6)"><g clip-path="url(#6e6cbc098f)"><path fill="#91a8e0" d="M 133.289062 262.46875 L 241.710938 262.46875 L 241.710938 370.894531 L 133.289062 370.894531 Z M 133.289062 262.46875 " fill-opacity="1" fill-rule="nonzero"/></g></g><g clip-path="url(#81d41de8fa)"><g clip-path="url(#b826f36983)"><path fill="#91a8e0" d="M 133.289062 4.105469 L 241.710938 4.105469 L 241.710938 112.53125 L 133.289062 112.53125 Z M 133.289062 4.105469 " fill-opacity="1" fill-rule="nonzero"/></g></g></svg>