<svg xmlns="http://www.w3.org/2000/svg" xmlns:xlink="http://www.w3.org/1999/xlink" width="500" zoomAndPan="magnify" viewBox="0 0 375 374.999991" height="500" preserveAspectRatio="xMidYMid meet" version="1.0"><defs><clipPath id="15b37f31ab"><path d="M 71.601562 63.28125 L 303.042969 63.28125 L 303.042969 295.03125 L 71.601562 295.03125 Z M 71.601562 63.28125 " clip-rule="nonzero"/></clipPath><clipPath id="76d646c43a"><path d="M 78.289062 63.28125 L 309.886719 63.28125 L 309.886719 295.03125 L 78.289062 295.03125 Z M 78.289062 63.28125 " clip-rule="nonzero"/></clipPath><clipPath id="a1eb720440"><path d="M 29.191406 20.882812 L 345.691406 20.882812 L 345.691406 337.382812 L 29.191406 337.382812 Z M 29.191406 20.882812 " clip-rule="nonzero"/></clipPath></defs><g clip-path="url(#15b37f31ab)"><path fill="#8dd9dd" d="M 227.347656 175.757812 C 217.96875 175.472656 208.328125 175.1875 198.574219 174.882812 C 205.148438 168.683594 211.667969 162.542969 218.011719 156.558594 C 218.011719 156.558594 249.699219 152.550781 250.148438 156.5 C 250.59375 160.453125 227.347656 175.757812 227.347656 175.757812 Z M 247.507812 206.984375 C 245.019531 210.09375 217.78125 204.449219 217.78125 204.449219 L 217.777344 204.816406 C 211.429688 198.0625 204.898438 191.121094 198.292969 184.097656 C 207.535156 184.378906 216.683594 184.652344 225.585938 184.925781 C 229.808594 188.257812 249.730469 204.203125 247.507812 206.984375 Z M 209.988281 240.800781 C 206.046875 241.265625 190.761719 217.972656 190.761719 217.972656 C 191.023438 208.992188 191.304688 199.753906 191.585938 190.410156 C 197.859375 197.082031 204.070312 203.683594 210.113281 210.105469 C 210.839844 216.359375 213.425781 240.429688 209.988281 240.800781 Z M 193.03125 142.265625 L 193.683594 141.71875 C 193.683594 141.71875 213.257812 116.453125 216.367188 118.925781 C 219.105469 121.136719 215.039062 142.625 214.050781 147.632812 C 206.960938 154.316406 199.65625 161.207031 192.25 168.1875 C 192.515625 159.421875 192.777344 150.734375 193.03125 142.265625 Z M 183.058594 167.902344 C 177.257812 161.730469 171.5 155.613281 165.886719 149.644531 L 165.996094 148.460938 C 165.996094 148.460938 161.996094 116.738281 165.945312 116.289062 C 169.238281 115.921875 180.308594 131.902344 183.96875 137.339844 C 183.675781 147.261719 183.367188 157.511719 183.058594 167.902344 Z M 181.609375 216.210938 C 178.289062 220.4375 162.355469 240.382812 159.570312 238.175781 C 156.828125 235.980469 160.902344 214.492188 161.890625 209.476562 C 168.566406 203.175781 175.441406 196.699219 182.394531 190.140625 C 182.128906 198.960938 181.859375 207.699219 181.609375 216.210938 Z M 157.925781 200.554688 C 157.925781 200.554688 126.234375 204.566406 125.785156 200.605469 C 125.417969 197.308594 141.386719 186.222656 146.796875 182.554688 C 156.320312 182.84375 166.140625 183.136719 176.078125 183.433594 C 169.953125 189.214844 163.863281 194.953125 157.929688 200.554688 Z M 128.425781 150.125 C 130.441406 147.59375 148.761719 150.84375 155.597656 152.15625 C 162.339844 159.316406 169.308594 166.722656 176.359375 174.21875 C 168.035156 173.972656 159.777344 173.722656 151.71875 173.476562 L 151.175781 172.835938 C 151.175781 172.835938 125.949219 153.234375 128.425781 150.125 Z M 299.472656 178.960938 C 297.023438 178.5625 287.792969 177.945312 285.050781 177.507812 C 282.304688 177.082031 279.367188 177.457031 276.355469 177.21875 C 274.671875 177.167969 272.867188 177.121094 271.121094 177.070312 C 272.882812 175.402344 274.714844 173.671875 276.566406 171.933594 C 280.90625 167.835938 285.257812 163.742188 288.511719 160.671875 C 288.808594 160.175781 292.179688 157.246094 290.03125 153.921875 C 287.882812 150.578125 283.769531 153.179688 282.203125 153.960938 C 280.636719 154.742188 274.597656 161.128906 270.257812 165.222656 C 265.917969 169.320312 261.5625 173.421875 258.3125 176.488281 C 258.253906 176.582031 258.164062 176.609375 258.074219 176.679688 C 252.628906 176.511719 246.933594 176.34375 241.058594 176.167969 C 250.738281 169.5 265.292969 158.335938 263.769531 152.417969 C 262.101562 145.976562 239.910156 146.367188 228.113281 147.035156 C 232.886719 142.53125 237.507812 138.171875 241.910156 134.019531 C 242.011719 134.027344 242.117188 133.972656 242.222656 134.003906 C 246.679688 134.136719 252.644531 134.316406 258.609375 134.5 C 264.574219 134.671875 273.3125 135.449219 275.015625 134.988281 C 276.714844 134.535156 281.515625 133.746094 280.90625 129.828125 C 280.308594 125.914062 275.835938 125.949219 275.296875 125.785156 C 270.824219 125.65625 264.859375 125.46875 258.894531 125.292969 C 256.359375 125.214844 253.839844 125.144531 251.40625 125.066406 C 252.691406 123.867188 254.003906 122.625 255.226562 121.46875 C 257.34375 119.292969 259.757812 117.625 261.546875 115.484375 C 263.308594 113.328125 269.792969 106.738281 271.375 104.816406 C 274.535156 100.984375 270.496094 96.6875 266.484375 99.621094 C 264.484375 101.078125 257.523438 107.175781 255.253906 108.804688 C 253.019531 110.453125 251.214844 112.785156 248.917969 114.761719 C 247.679688 115.917969 246.382812 117.152344 245.101562 118.355469 C 245.175781 115.929688 245.265625 113.414062 245.324219 110.875 C 245.503906 104.90625 245.679688 98.9375 245.816406 94.445312 C 245.679688 93.878906 245.996094 89.4375 242.117188 88.589844 C 238.253906 87.75 237.179688 92.503906 236.628906 94.171875 C 236.0625 95.839844 236.316406 104.625 236.121094 110.597656 C 235.957031 116.570312 235.78125 122.535156 235.644531 127.015625 C 235.660156 127.121094 235.617188 127.21875 235.601562 127.3125 C 231.886719 130.816406 228.011719 134.480469 224.011719 138.242188 C 226.101562 126.660156 228.21875 109.425781 223.105469 106.402344 C 217.222656 102.9375 201.089844 119.933594 193.441406 128.566406 C 193.644531 121.65625 193.851562 114.960938 194.046875 108.601562 C 194.109375 108.53125 194.152344 108.425781 194.25 108.378906 C 197.5 105.3125 201.851562 101.210938 206.199219 97.117188 C 210.53125 93.023438 217.25 87.382812 218.128906 85.855469 C 219.015625 84.332031 221.835938 80.367188 218.648438 78.035156 C 215.457031 75.6875 212.332031 78.863281 211.820312 79.148438 C 208.5625 82.214844 204.21875 86.308594 199.886719 90.398438 C 198.039062 92.140625 196.203125 93.878906 194.429688 95.546875 C 194.484375 93.792969 194.542969 91.984375 194.59375 90.300781 C 194.542969 87.265625 195.089844 84.363281 194.835938 81.597656 C 194.558594 78.816406 194.496094 69.558594 194.257812 67.097656 C 193.785156 62.152344 187.886719 61.964844 187.128906 66.875 C 186.738281 69.332031 186.132812 78.5625 185.6875 81.316406 C 185.25 84.066406 185.628906 86.992188 185.398438 90.023438 C 185.34375 91.699219 185.285156 93.5 185.238281 95.261719 C 183.578125 93.496094 181.851562 91.664062 180.121094 89.808594 C 176.019531 85.46875 171.929688 81.109375 168.851562 77.859375 C 168.363281 77.550781 165.445312 74.183594 162.113281 76.320312 C 158.777344 78.476562 161.378906 82.589844 162.167969 84.167969 C 162.945312 85.738281 169.320312 91.78125 173.414062 96.125 C 177.503906 100.476562 181.585938 104.820312 184.664062 108.09375 C 184.746094 108.160156 184.785156 108.246094 184.84375 108.320312 C 184.691406 113.25 184.535156 118.390625 184.382812 123.664062 C 177.648438 114.074219 167.433594 101.230469 161.859375 102.671875 C 155.167969 104.402344 155.863281 128.390625 156.570312 139.730469 C 151.601562 134.453125 146.800781 129.347656 142.25 124.507812 C 142.253906 124.414062 142.203125 124.320312 142.230469 124.210938 C 142.367188 119.730469 142.539062 113.757812 142.722656 107.792969 C 142.902344 101.824219 143.675781 93.0625 143.210938 91.371094 C 142.761719 89.667969 141.964844 84.859375 138.054688 85.46875 C 134.140625 86.082031 134.183594 90.53125 134.019531 91.09375 C 133.886719 95.578125 133.710938 101.550781 133.527344 107.511719 C 133.453125 110.054688 133.378906 112.582031 133.308594 115.007812 C 132.101562 113.722656 130.867188 112.410156 129.714844 111.179688 C 127.53125 109.070312 125.875 106.636719 123.730469 104.859375 C 121.578125 103.089844 115 96.59375 113.089844 95.011719 C 109.261719 91.851562 104.960938 95.898438 107.890625 99.910156 C 109.347656 101.925781 115.441406 108.886719 117.066406 111.144531 C 118.703125 113.394531 121.035156 115.203125 123.015625 117.503906 C 124.160156 118.722656 125.402344 120.039062 126.601562 121.316406 C 124.179688 121.246094 121.667969 121.171875 119.128906 121.089844 C 113.15625 120.925781 107.199219 120.738281 102.726562 120.605469 C 102.167969 120.746094 97.726562 120.429688 96.875 124.304688 C 96.039062 128.175781 100.785156 129.25 102.453125 129.816406 C 104.113281 130.375 112.890625 130.132812 118.851562 130.304688 C 124.820312 130.484375 130.773438 130.667969 135.253906 130.800781 C 135.359375 130.773438 135.457031 130.816406 135.542969 130.824219 C 138.988281 134.488281 142.570312 138.296875 146.253906 142.207031 C 134.746094 140.21875 118.8125 138.480469 115.917969 143.386719 C 112.460938 149.273438 129.421875 165.429688 138.042969 173.074219 C 130.691406 172.847656 123.597656 172.636719 116.859375 172.4375 C 116.792969 172.371094 116.6875 172.328125 116.640625 172.234375 C 113.574219 168.980469 109.480469 164.625 105.386719 160.277344 C 101.296875 155.929688 95.660156 149.191406 94.144531 148.320312 C 92.617188 147.433594 88.664062 144.601562 86.328125 147.796875 C 83.992188 151 87.167969 154.113281 87.441406 154.640625 C 90.503906 157.894531 94.597656 162.242188 98.6875 166.59375 C 100.429688 168.449219 102.152344 170.28125 103.820312 172.050781 C 102.074219 171.992188 100.261719 171.941406 98.589844 171.890625 C 95.550781 171.933594 92.660156 171.402344 89.894531 171.652344 C 87.121094 171.925781 77.875 171.984375 75.40625 172.222656 C 70.460938 172.695312 70.289062 178.605469 75.203125 179.363281 C 77.640625 179.761719 86.875 180.371094 89.617188 180.808594 C 92.367188 181.242188 95.28125 180.875 98.308594 181.101562 C 99.988281 181.148438 101.789062 181.207031 103.539062 181.253906 C 101.78125 182.921875 99.945312 184.648438 98.101562 186.386719 C 93.765625 190.492188 89.410156 194.582031 86.152344 197.652344 C 85.851562 198.148438 82.496094 201.078125 84.632812 204.414062 C 86.769531 207.75 90.890625 205.148438 92.46875 204.359375 C 94.035156 203.574219 100.070312 197.195312 104.410156 193.097656 C 108.75 189.003906 113.09375 184.910156 116.355469 181.835938 C 116.410156 181.75 116.5 181.710938 116.582031 181.648438 C 121.890625 181.808594 127.453125 181.980469 133.15625 182.144531 C 123.582031 188.886719 110.753906 199.117188 112.1875 204.707031 C 113.84375 211.144531 136.046875 210.753906 147.835938 210.078125 C 142.605469 215 137.550781 219.777344 132.753906 224.304688 C 132.65625 224.304688 132.5625 224.347656 132.453125 224.316406 C 127.984375 224.183594 122.019531 224.003906 116.058594 223.824219 C 110.09375 223.644531 101.355469 222.871094 99.65625 223.332031 C 97.960938 223.796875 93.148438 224.570312 93.761719 228.5 C 94.371094 232.410156 98.824219 232.367188 99.375 232.546875 C 103.855469 232.679688 109.820312 232.859375 115.785156 233.039062 C 118.320312 233.113281 120.832031 233.1875 123.253906 233.261719 C 121.984375 234.457031 120.671875 235.695312 119.445312 236.84375 C 117.335938 239.027344 114.90625 240.699219 113.125 242.832031 C 111.363281 244.996094 104.871094 251.582031 103.296875 253.507812 C 100.128906 257.332031 104.175781 261.632812 108.183594 258.703125 C 110.195312 257.242188 117.15625 251.148438 119.410156 249.523438 C 121.652344 247.863281 123.457031 245.535156 125.753906 243.550781 C 126.980469 242.398438 128.292969 241.160156 129.566406 239.964844 C 129.492188 242.398438 129.421875 244.910156 129.347656 247.445312 C 129.167969 253.417969 128.984375 259.390625 128.851562 263.871094 C 128.984375 264.4375 128.683594 268.886719 132.542969 269.722656 C 136.414062 270.574219 137.492188 265.8125 138.042969 264.15625 C 138.601562 262.484375 138.359375 253.703125 138.539062 247.714844 C 138.71875 241.757812 138.898438 235.785156 139.027344 231.304688 C 139.003906 231.203125 139.0625 231.113281 139.0625 231.007812 C 143.179688 227.125 147.5 223.050781 151.9375 218.867188 C 149.859375 230.441406 147.742188 247.6875 152.847656 250.703125 C 158.414062 253.988281 173.167969 238.9375 181.203125 229.992188 C 180.992188 236.832031 180.808594 243.445312 180.609375 249.714844 C 180.542969 249.789062 180.507812 249.894531 180.417969 249.941406 C 177.148438 253 172.808594 257.121094 168.460938 261.199219 C 164.136719 265.304688 157.40625 270.949219 156.511719 272.472656 C 155.640625 273.996094 152.796875 277.953125 156.007812 280.296875 C 159.195312 282.625 162.3125 279.445312 162.832031 279.175781 C 166.089844 276.113281 170.433594 271.992188 174.785156 267.917969 C 176.628906 266.171875 178.464844 264.4375 180.222656 262.78125 C 180.171875 264.542969 180.109375 266.335938 180.066406 268.007812 C 180.109375 271.054688 179.566406 273.949219 179.820312 276.726562 C 180.109375 279.503906 180.167969 288.761719 180.417969 291.226562 C 180.871094 296.167969 186.765625 296.363281 187.535156 291.433594 C 187.929688 288.984375 188.542969 279.757812 188.984375 277.011719 C 189.410156 274.25 189.042969 271.320312 189.265625 268.289062 C 189.3125 266.617188 189.371094 264.8125 189.417969 263.050781 C 191.082031 264.828125 192.804688 266.648438 194.546875 268.515625 C 198.644531 272.859375 202.726562 277.203125 205.800781 280.460938 C 206.292969 280.773438 209.214844 284.132812 212.542969 281.984375 C 215.867188 279.847656 213.28125 275.726562 212.5 274.160156 C 211.714844 272.578125 205.34375 266.542969 201.246094 262.183594 C 197.148438 257.839844 193.054688 253.492188 190 250.222656 C 189.90625 250.164062 189.878906 250.058594 189.8125 250 C 189.992188 244.160156 190.167969 238.023438 190.355469 231.710938 C 197.011719 241.382812 208.171875 255.957031 214.085938 254.433594 C 220.273438 252.835938 220.144531 232.203125 219.53125 220.121094 C 223.984375 224.839844 228.308594 229.441406 232.425781 233.816406 C 232.425781 233.917969 232.453125 234.023438 232.425781 234.113281 C 232.289062 238.59375 232.125 244.566406 231.917969 250.539062 C 231.753906 256.496094 230.992188 265.261719 231.441406 266.945312 C 231.886719 268.648438 232.675781 273.457031 236.601562 272.859375 C 240.507812 272.246094 240.476562 267.785156 240.65625 267.230469 C 240.773438 262.75 240.9375 256.777344 241.132812 250.804688 C 241.207031 248.269531 241.296875 245.746094 241.371094 243.324219 C 242.566406 244.59375 243.800781 245.921875 244.949219 247.132812 C 247.128906 249.253906 248.769531 251.6875 250.929688 253.464844 C 253.09375 255.226562 259.667969 261.734375 261.578125 263.304688 C 265.410156 266.46875 269.707031 262.421875 266.769531 258.40625 C 265.304688 256.40625 259.222656 249.433594 257.597656 247.179688 C 255.957031 244.921875 253.628906 243.132812 251.644531 240.816406 C 250.5 239.59375 249.261719 238.277344 248.050781 236.996094 C 250.484375 237.070312 253.003906 237.144531 255.539062 237.234375 C 261.503906 237.398438 267.453125 237.578125 271.941406 237.726562 C 272.492188 237.578125 276.9375 237.890625 277.789062 234.023438 C 278.609375 230.140625 273.882812 229.066406 272.210938 228.5 C 270.554688 227.945312 261.773438 228.199219 255.808594 228.019531 C 249.84375 227.828125 243.875 227.664062 239.402344 227.527344 C 239.296875 227.558594 239.210938 227.5 239.121094 227.484375 C 235.167969 223.289062 231.039062 218.898438 226.773438 214.375 C 238.300781 216.523438 256.894531 219.046875 260.027344 213.71875 C 263.308594 208.152344 248.277344 193.386719 239.34375 185.328125 C 245.726562 185.527344 251.914062 185.714844 257.804688 185.894531 C 257.878906 185.953125 257.96875 185.996094 258.027344 186.082031 C 261.101562 189.355469 265.1875 193.695312 269.273438 198.050781 C 273.375 202.394531 278.996094 209.125 280.515625 210.007812 C 282.039062 210.882812 285.988281 213.730469 288.347656 210.527344 C 290.671875 207.320312 287.496094 204.199219 287.226562 203.683594 C 284.171875 200.425781 280.070312 196.085938 275.984375 191.722656 C 274.238281 189.878906 272.523438 188.046875 270.855469 186.273438 C 272.613281 186.332031 274.402344 186.386719 276.074219 186.433594 C 279.117188 186.386719 282.007812 186.9375 284.78125 186.671875 C 287.554688 186.398438 296.785156 186.332031 299.261719 186.09375 C 304.199219 185.628906 304.378906 179.71875 299.472656 178.960938 " fill-opacity="1" fill-rule="nonzero"/></g><g clip-path="url(#76d646c43a)"><path fill="#ffffff" d="M 234.273438 175.785156 C 224.882812 175.5 215.226562 175.214844 205.453125 174.910156 C 212.042969 168.710938 218.570312 162.566406 224.921875 156.582031 C 224.921875 156.582031 256.660156 152.574219 257.109375 156.523438 C 257.554688 160.476562 234.273438 175.785156 234.273438 175.785156 Z M 254.464844 207.023438 C 251.96875 210.132812 224.695312 204.484375 224.695312 204.484375 L 224.6875 204.851562 C 218.332031 198.097656 211.789062 191.152344 205.175781 184.128906 C 214.433594 184.410156 223.59375 184.683594 232.511719 184.957031 C 236.738281 188.289062 256.691406 204.238281 254.464844 207.023438 Z M 216.890625 240.847656 C 212.9375 241.308594 197.628906 218.011719 197.628906 218.011719 C 197.894531 209.03125 198.175781 199.789062 198.460938 190.441406 C 204.742188 197.117188 210.960938 203.71875 217.011719 210.144531 C 217.742188 216.398438 220.332031 240.472656 216.890625 240.847656 Z M 199.90625 142.289062 L 200.558594 141.738281 C 200.558594 141.738281 220.160156 116.464844 223.277344 118.941406 C 226.019531 121.152344 221.949219 142.644531 220.953125 147.65625 C 213.855469 154.339844 206.539062 161.230469 199.125 168.214844 C 199.386719 159.445312 199.648438 150.757812 199.90625 142.289062 Z M 189.917969 167.929688 C 184.109375 161.757812 178.34375 155.636719 172.71875 149.667969 L 172.832031 148.484375 C 172.832031 148.484375 168.820312 116.753906 172.777344 116.304688 C 176.074219 115.933594 187.164062 131.921875 190.828125 137.359375 C 190.535156 147.28125 190.226562 157.539062 189.917969 167.929688 Z M 188.464844 216.25 C 185.140625 220.476562 169.183594 240.429688 166.394531 238.21875 C 163.648438 236.023438 167.726562 214.53125 168.71875 209.511719 C 175.402344 203.210938 182.289062 196.730469 189.253906 190.171875 C 188.984375 198.996094 188.71875 207.734375 188.464844 216.25 Z M 164.746094 200.589844 C 164.746094 200.589844 133.007812 204.601562 132.558594 200.640625 C 132.191406 197.34375 148.179688 186.253906 153.601562 182.582031 C 163.140625 182.875 172.976562 183.167969 182.929688 183.464844 C 176.792969 189.246094 170.695312 194.988281 164.75 200.589844 Z M 135.199219 150.144531 C 137.21875 147.613281 155.566406 150.863281 162.417969 152.175781 C 169.167969 159.339844 176.144531 166.75 183.207031 174.246094 C 174.871094 174 166.597656 173.75 158.53125 173.507812 L 157.988281 172.863281 C 157.988281 172.863281 132.71875 153.253906 135.199219 150.144531 Z M 306.507812 178.992188 C 304.058594 178.59375 294.8125 177.976562 292.0625 177.535156 C 289.316406 177.113281 286.375 177.484375 283.355469 177.246094 C 281.667969 177.199219 279.863281 177.152344 278.113281 177.097656 C 279.875 175.429688 281.714844 173.699219 283.566406 171.960938 C 287.910156 167.863281 292.273438 163.769531 295.527344 160.695312 C 295.828125 160.199219 299.203125 157.269531 297.050781 153.945312 C 294.902344 150.601562 290.78125 153.203125 289.210938 153.984375 C 287.644531 154.765625 281.59375 161.15625 277.25 165.25 C 272.902344 169.347656 268.539062 173.449219 265.285156 176.515625 C 265.226562 176.609375 265.136719 176.636719 265.046875 176.707031 C 259.59375 176.539062 253.890625 176.371094 248.003906 176.195312 C 257.699219 169.527344 272.273438 158.359375 270.75 152.4375 C 269.078125 146 246.855469 146.390625 235.042969 147.054688 C 239.820312 142.550781 244.449219 138.191406 248.855469 134.039062 C 248.960938 134.042969 249.066406 133.992188 249.171875 134.019531 C 253.636719 134.15625 259.609375 134.335938 265.582031 134.515625 C 271.558594 134.691406 280.308594 135.46875 282.011719 135.007812 C 283.714844 134.550781 288.523438 133.761719 287.910156 129.84375 C 287.3125 125.929688 282.832031 125.964844 282.296875 125.800781 C 277.816406 125.671875 271.839844 125.484375 265.867188 125.308594 C 263.328125 125.230469 260.804688 125.160156 258.371094 125.082031 C 259.65625 123.882812 260.96875 122.636719 262.195312 121.484375 C 264.3125 119.308594 266.734375 117.640625 268.527344 115.496094 C 270.289062 113.339844 276.785156 106.746094 278.367188 104.828125 C 281.535156 100.996094 277.488281 96.695312 273.46875 99.628906 C 271.46875 101.085938 264.492188 107.183594 262.222656 108.816406 C 259.984375 110.464844 258.175781 112.796875 255.875 114.773438 C 254.636719 115.929688 253.335938 117.167969 252.050781 118.367188 C 252.128906 115.941406 252.214844 113.425781 252.277344 110.890625 C 252.457031 104.914062 252.636719 98.945312 252.769531 94.453125 C 252.636719 93.886719 252.949219 89.445312 249.066406 88.597656 C 245.199219 87.757812 244.121094 92.511719 243.570312 94.179688 C 243 95.847656 243.253906 104.636719 243.0625 110.609375 C 242.898438 116.582031 242.71875 122.550781 242.582031 127.03125 C 242.597656 127.136719 242.554688 127.234375 242.539062 127.328125 C 238.820312 130.835938 234.9375 134.5 230.933594 138.261719 C 233.023438 126.675781 235.144531 109.4375 230.023438 106.414062 C 224.132812 102.949219 207.976562 119.949219 200.316406 128.585938 C 200.519531 121.671875 200.726562 114.972656 200.921875 108.613281 C 200.984375 108.542969 201.027344 108.4375 201.125 108.390625 C 204.382812 105.324219 208.742188 101.222656 213.09375 97.125 C 217.433594 93.03125 224.160156 87.390625 225.039062 85.859375 C 225.929688 84.339844 228.753906 80.371094 225.558594 78.039062 C 222.363281 75.691406 219.234375 78.867188 218.722656 79.152344 C 215.460938 82.222656 211.109375 86.316406 206.769531 90.40625 C 204.917969 92.148438 203.082031 93.886719 201.308594 95.554688 C 201.359375 93.800781 201.417969 91.992188 201.472656 90.308594 C 201.417969 87.273438 201.96875 84.367188 201.710938 81.601562 C 201.4375 78.820312 201.371094 69.558594 201.132812 67.097656 C 200.660156 62.152344 194.75 61.964844 193.992188 66.875 C 193.601562 69.332031 192.996094 78.566406 192.550781 81.320312 C 192.113281 84.070312 192.492188 87 192.257812 90.03125 C 192.207031 91.707031 192.148438 93.507812 192.101562 95.269531 C 190.4375 93.503906 188.707031 91.671875 186.972656 89.816406 C 182.867188 85.476562 178.769531 81.113281 175.691406 77.863281 C 175.199219 77.554688 172.277344 74.1875 168.941406 76.324219 C 165.597656 78.480469 168.203125 82.59375 168.992188 84.175781 C 169.773438 85.742188 176.15625 91.789062 180.257812 96.132812 C 184.355469 100.488281 188.445312 104.832031 191.523438 108.105469 C 191.605469 108.171875 191.648438 108.257812 191.707031 108.332031 C 191.554688 113.261719 191.394531 118.402344 191.242188 123.679688 C 184.5 114.085938 174.265625 101.238281 168.683594 102.679688 C 161.984375 104.414062 162.679688 128.40625 163.386719 139.75 C 158.410156 134.46875 153.601562 129.367188 149.046875 124.523438 C 149.050781 124.429688 149 124.335938 149.027344 124.226562 C 149.164062 119.746094 149.335938 113.769531 149.519531 107.804688 C 149.699219 101.832031 150.476562 93.070312 150.007812 91.378906 C 149.558594 89.675781 148.761719 84.863281 144.847656 85.476562 C 140.925781 86.089844 140.964844 90.539062 140.804688 91.101562 C 140.667969 95.585938 140.496094 101.558594 140.3125 107.523438 C 140.238281 110.066406 140.160156 112.59375 140.089844 115.019531 C 138.882812 113.734375 137.644531 112.421875 136.492188 111.191406 C 134.304688 109.082031 132.648438 106.648438 130.5 104.867188 C 128.339844 103.101562 121.753906 96.601562 119.839844 95.019531 C 116.007812 91.859375 111.703125 95.90625 114.636719 99.921875 C 116.097656 101.933594 122.199219 108.898438 123.824219 111.15625 C 125.464844 113.410156 127.800781 115.21875 129.78125 117.515625 C 130.929688 118.734375 132.175781 120.054688 133.375 121.332031 C 130.949219 121.261719 128.433594 121.1875 125.890625 121.105469 C 119.910156 120.941406 113.941406 120.753906 109.460938 120.621094 C 108.902344 120.757812 104.457031 120.445312 103.605469 124.320312 C 102.765625 128.191406 107.519531 129.265625 109.1875 129.832031 C 110.851562 130.394531 119.644531 130.148438 125.613281 130.324219 C 131.589844 130.503906 137.554688 130.683594 142.039062 130.820312 C 142.144531 130.789062 142.242188 130.835938 142.332031 130.839844 C 145.78125 134.507812 149.367188 138.3125 153.054688 142.230469 C 141.53125 140.238281 125.574219 138.5 122.675781 143.40625 C 119.210938 149.292969 136.199219 165.453125 144.835938 173.101562 C 137.472656 172.875 130.367188 172.664062 123.617188 172.464844 C 123.550781 172.398438 123.445312 172.355469 123.398438 172.261719 C 120.324219 169.007812 116.230469 164.648438 112.128906 160.304688 C 108.03125 155.953125 102.386719 149.210938 100.867188 148.34375 C 99.339844 147.457031 95.378906 144.621094 93.039062 147.820312 C 90.699219 151.019531 93.878906 154.136719 94.152344 154.664062 C 97.222656 157.917969 101.324219 162.269531 105.417969 166.621094 C 107.164062 168.476562 108.890625 170.308594 110.558594 172.078125 C 108.808594 172.019531 106.996094 171.972656 105.320312 171.917969 C 102.273438 171.960938 99.382812 171.429688 96.609375 171.679688 C 93.832031 171.953125 84.574219 172.011719 82.101562 172.25 C 77.148438 172.722656 76.976562 178.632812 81.898438 179.390625 C 84.339844 179.789062 93.585938 180.402344 96.335938 180.839844 C 99.089844 181.269531 102.007812 180.902344 105.039062 181.128906 C 106.71875 181.179688 108.523438 181.238281 110.277344 181.28125 C 108.515625 182.949219 106.679688 184.675781 104.832031 186.414062 C 100.488281 190.523438 96.125 194.613281 92.863281 197.6875 C 92.5625 198.183594 89.199219 201.113281 91.34375 204.449219 C 93.484375 207.785156 97.609375 205.183594 99.1875 204.394531 C 100.757812 203.609375 106.800781 197.226562 111.148438 193.128906 C 115.496094 189.035156 119.847656 184.941406 123.113281 181.867188 C 123.167969 181.777344 123.257812 181.742188 123.339844 181.679688 C 128.65625 181.835938 134.226562 182.011719 139.9375 182.175781 C 130.347656 188.917969 117.5 199.152344 118.9375 204.742188 C 120.597656 211.179688 142.832031 210.792969 154.640625 210.113281 C 149.402344 215.039062 144.339844 219.820312 139.535156 224.34375 C 139.4375 224.34375 139.34375 224.386719 139.234375 224.359375 C 134.757812 224.222656 128.785156 224.046875 122.816406 223.867188 C 116.84375 223.6875 108.089844 222.910156 106.386719 223.371094 C 104.691406 223.835938 99.871094 224.613281 100.484375 228.539062 C 101.097656 232.453125 105.554688 232.410156 106.109375 232.589844 C 110.59375 232.722656 116.566406 232.902344 122.542969 233.082031 C 125.078125 233.15625 127.59375 233.230469 130.023438 233.304688 C 128.75 234.5 127.4375 235.738281 126.207031 236.890625 C 124.09375 239.070312 121.660156 240.742188 119.875 242.878906 C 118.113281 245.042969 111.609375 251.628906 110.035156 253.558594 C 106.859375 257.378906 110.914062 261.683594 114.929688 258.753906 C 116.941406 257.289062 123.914062 251.195312 126.171875 249.570312 C 128.417969 247.910156 130.226562 245.582031 132.523438 243.59375 C 133.753906 242.445312 135.070312 241.207031 136.34375 240.011719 C 136.269531 242.445312 136.199219 244.953125 136.125 247.492188 C 135.945312 253.46875 135.761719 259.441406 135.628906 263.921875 C 135.761719 264.488281 135.457031 268.941406 139.328125 269.777344 C 143.199219 270.628906 144.28125 265.863281 144.835938 264.207031 C 145.394531 262.53125 145.148438 253.75 145.332031 247.761719 C 145.511719 241.804688 145.691406 235.828125 145.820312 231.347656 C 145.796875 231.242188 145.855469 231.152344 145.855469 231.050781 C 149.980469 227.167969 154.304688 223.089844 158.75 218.90625 C 156.667969 230.480469 154.546875 247.730469 159.660156 250.75 C 165.234375 254.035156 180.011719 238.980469 188.058594 230.035156 C 187.847656 236.875 187.664062 243.492188 187.464844 249.761719 C 187.398438 249.839844 187.363281 249.941406 187.269531 249.988281 C 183.996094 253.050781 179.652344 257.171875 175.300781 261.25 C 170.964844 265.355469 164.226562 271 163.328125 272.523438 C 162.460938 274.046875 159.613281 278.007812 162.828125 280.351562 C 166.015625 282.679688 169.136719 279.5 169.660156 279.230469 C 172.925781 276.167969 177.273438 272.046875 181.628906 267.96875 C 183.480469 266.222656 185.316406 264.488281 187.078125 262.832031 C 187.027344 264.59375 186.960938 266.386719 186.921875 268.058594 C 186.960938 271.105469 186.421875 274.003906 186.675781 276.78125 C 186.960938 279.558594 187.019531 288.820312 187.269531 291.285156 C 187.726562 296.226562 193.628906 296.421875 194.398438 291.492188 C 194.796875 289.042969 195.410156 279.8125 195.851562 277.066406 C 196.277344 274.300781 195.910156 271.375 196.132812 268.34375 C 196.179688 266.671875 196.238281 264.863281 196.285156 263.101562 C 197.953125 264.878906 199.679688 266.699219 201.425781 268.566406 C 205.527344 272.914062 209.617188 277.257812 212.695312 280.515625 C 213.183594 280.828125 216.113281 284.1875 219.445312 282.039062 C 222.777344 279.902344 220.1875 275.78125 219.402344 274.210938 C 218.617188 272.628906 212.234375 266.59375 208.132812 262.234375 C 204.027344 257.886719 199.929688 253.542969 196.867188 250.269531 C 196.773438 250.210938 196.746094 250.105469 196.683594 250.046875 C 196.863281 244.207031 197.039062 238.070312 197.222656 231.75 C 203.894531 241.429688 215.070312 256.007812 220.992188 254.484375 C 227.1875 252.886719 227.058594 232.246094 226.445312 220.160156 C 230.90625 224.882812 235.234375 229.480469 239.359375 233.859375 C 239.359375 233.960938 239.386719 234.066406 239.359375 234.15625 C 239.222656 238.636719 239.058594 244.609375 238.851562 250.585938 C 238.6875 256.542969 237.925781 265.3125 238.371094 267 C 238.820312 268.703125 239.613281 273.511719 243.539062 272.914062 C 247.453125 272.300781 247.421875 267.835938 247.601562 267.28125 C 247.722656 262.800781 247.886719 256.828125 248.078125 250.855469 C 248.15625 248.316406 248.242188 245.789062 248.320312 243.371094 C 249.511719 244.640625 250.753906 245.96875 251.902344 247.179688 C 254.082031 249.300781 255.726562 251.734375 257.890625 253.511719 C 260.058594 255.273438 266.644531 261.785156 268.554688 263.355469 C 272.394531 266.519531 276.695312 262.472656 273.753906 258.457031 C 272.289062 256.453125 266.195312 249.480469 264.566406 247.222656 C 262.925781 244.96875 260.59375 243.175781 258.609375 240.863281 C 257.460938 239.636719 256.21875 238.324219 255.007812 237.039062 C 257.445312 237.113281 259.96875 237.1875 262.507812 237.277344 C 268.480469 237.441406 274.441406 237.621094 278.9375 237.769531 C 279.488281 237.621094 283.9375 237.933594 284.789062 234.066406 C 285.613281 230.183594 280.878906 229.109375 279.203125 228.539062 C 277.546875 227.988281 268.75 228.242188 262.777344 228.0625 C 256.800781 227.867188 250.828125 227.703125 246.347656 227.570312 C 246.242188 227.601562 246.152344 227.539062 246.0625 227.523438 C 242.105469 223.328125 237.96875 218.9375 233.695312 214.410156 C 245.242188 216.5625 263.867188 219.085938 267.003906 213.753906 C 270.289062 208.1875 255.234375 193.417969 246.289062 185.359375 C 252.679688 185.558594 258.878906 185.746094 264.777344 185.925781 C 264.851562 185.984375 264.941406 186.027344 265 186.113281 C 268.078125 189.386719 272.171875 193.726562 276.261719 198.085938 C 280.371094 202.429688 286 209.164062 287.523438 210.046875 C 289.046875 210.921875 293.003906 213.769531 295.363281 210.5625 C 297.695312 207.355469 294.511719 204.234375 294.246094 203.71875 C 291.183594 200.460938 287.074219 196.117188 282.984375 191.753906 C 281.234375 189.910156 279.519531 188.078125 277.84375 186.304688 C 279.609375 186.363281 281.398438 186.417969 283.074219 186.464844 C 286.121094 186.417969 289.015625 186.96875 291.796875 186.703125 C 294.574219 186.429688 303.816406 186.363281 306.296875 186.125 C 311.242188 185.660156 311.417969 179.746094 306.507812 178.992188 " fill-opacity="1" fill-rule="nonzero"/></g><g clip-path="url(#a1eb720440)"><path fill="#ffffff" d="M 187.496094 20.882812 C 140.140625 20.882812 97.625 41.722656 68.617188 74.699219 L 53.175781 59.261719 L 38.785156 116.824219 L 91.554688 97.636719 L 75.417969 81.503906 C 102.683594 50.246094 142.726562 30.476562 187.496094 30.476562 C 269.683594 30.476562 336.203125 97 336.203125 179.1875 C 336.203125 261.375 269.683594 327.894531 187.496094 327.894531 C 185.769531 327.875 184.160156 328.777344 183.277344 330.273438 C 182.417969 331.773438 182.417969 333.609375 183.277344 335.109375 C 184.160156 336.609375 185.769531 337.507812 187.496094 337.488281 C 274.871094 337.488281 345.796875 266.5625 345.796875 179.1875 C 345.796875 91.808594 274.871094 20.882812 187.496094 20.882812 Z M 33.988281 174.390625 C 31.347656 174.390625 29.191406 176.542969 29.191406 179.1875 C 29.191406 181.828125 31.347656 183.984375 33.988281 183.984375 C 36.632812 183.984375 38.785156 181.828125 38.785156 179.1875 C 38.785156 176.542969 36.632812 174.390625 33.988281 174.390625 Z M 35.152344 194.421875 C 34.980469 194.441406 34.832031 194.441406 34.664062 194.476562 C 33.40625 194.628906 32.265625 195.300781 31.496094 196.3125 C 30.710938 197.308594 30.371094 198.601562 30.542969 199.855469 C 30.898438 202.480469 33.296875 204.332031 35.9375 203.976562 C 38.542969 203.621094 40.398438 201.222656 40.058594 198.601562 C 39.722656 196.164062 37.605469 194.363281 35.152344 194.421875 Z M 39.386719 214.113281 C 38.917969 214.113281 38.429688 214.152344 37.960938 214.285156 C 35.414062 214.976562 33.894531 217.601562 34.589844 220.167969 C 35.261719 222.714844 37.886719 224.234375 40.453125 223.558594 C 43.019531 222.867188 44.539062 220.242188 43.84375 217.675781 C 43.300781 215.652344 41.503906 214.207031 39.386719 214.113281 Z M 45.71875 233.132812 C 45.082031 233.132812 44.445312 233.246094 43.84375 233.507812 C 41.390625 234.519531 40.230469 237.3125 41.257812 239.769531 C 42.269531 242.222656 45.0625 243.382812 47.519531 242.371094 C 49.972656 241.34375 51.132812 238.550781 50.105469 236.09375 C 49.375 234.316406 47.648438 233.152344 45.71875 233.132812 Z M 54.453125 251.140625 C 53.644531 251.160156 52.859375 251.367188 52.148438 251.78125 C 49.859375 253.109375 49.074219 256.03125 50.402344 258.339844 C 51.023438 259.425781 52.070312 260.230469 53.308594 260.566406 C 54.546875 260.90625 55.855469 260.738281 56.945312 260.082031 C 58.050781 259.460938 58.855469 258.414062 59.191406 257.175781 C 59.511719 255.941406 59.34375 254.628906 58.703125 253.539062 C 57.824219 252.003906 56.195312 251.085938 54.453125 251.140625 Z M 65.789062 267.839844 C 65.675781 267.820312 65.5625 267.839844 65.46875 267.839844 C 64.496094 267.894531 63.558594 268.230469 62.789062 268.832031 C 60.691406 270.425781 60.296875 273.441406 61.910156 275.558594 C 63.519531 277.65625 66.539062 278.050781 68.636719 276.421875 C 70.734375 274.828125 71.148438 271.8125 69.515625 269.710938 C 68.636719 268.550781 67.269531 267.855469 65.789062 267.839844 Z M 79.019531 282.921875 C 77.726562 282.902344 76.46875 283.410156 75.550781 284.347656 C 73.675781 286.203125 73.675781 289.257812 75.550781 291.113281 C 76.449219 292.03125 77.667969 292.535156 78.941406 292.535156 C 80.21875 292.535156 81.433594 292.03125 82.335938 291.113281 C 84.207031 289.238281 84.207031 286.203125 82.335938 284.347656 C 81.453125 283.449219 80.273438 282.960938 79.019531 282.921875 Z M 93.972656 296.171875 C 92.507812 296.191406 91.140625 296.882812 90.261719 298.042969 C 88.628906 300.144531 89.042969 303.160156 91.140625 304.753906 C 93.238281 306.363281 96.238281 305.972656 97.851562 303.890625 C 99.480469 301.773438 99.085938 298.777344 96.96875 297.164062 C 96.125 296.488281 95.058594 296.152344 93.972656 296.171875 Z M 110.515625 307.339844 C 108.867188 307.414062 107.386719 308.3125 106.582031 309.738281 C 105.25 312.023438 106.039062 314.964844 108.34375 316.277344 C 109.429688 316.933594 110.742188 317.101562 111.980469 316.765625 C 113.214844 316.445312 114.265625 315.640625 114.882812 314.535156 C 115.539062 313.429688 115.707031 312.117188 115.371094 310.898438 C 115.03125 309.664062 114.226562 308.613281 113.140625 307.976562 C 112.335938 307.507812 111.417969 307.300781 110.515625 307.339844 Z M 128.863281 316.203125 C 126.875 316.164062 125.078125 317.34375 124.308594 319.183594 C 123.316406 321.617188 124.476562 324.429688 126.933594 325.421875 C 129.367188 326.453125 132.179688 325.289062 133.191406 322.835938 C 133.679688 321.65625 133.679688 320.34375 133.191406 319.164062 C 132.703125 317.984375 131.765625 317.046875 130.585938 316.578125 C 130.042969 316.351562 129.460938 316.222656 128.863281 316.203125 Z M 147.710938 322.667969 C 145.558594 322.6875 143.683594 324.148438 143.121094 326.226562 C 142.449219 328.792969 143.964844 331.417969 146.511719 332.09375 C 149.082031 332.785156 151.703125 331.269531 152.398438 328.71875 C 153.089844 326.152344 151.574219 323.527344 149.003906 322.835938 C 148.59375 322.722656 148.164062 322.667969 147.710938 322.667969 Z M 167.257812 326.601562 C 164.914062 326.695312 162.984375 328.457031 162.683594 330.761719 C 162.515625 332.035156 162.855469 333.3125 163.640625 334.324219 C 164.410156 335.335938 165.550781 335.992188 166.808594 336.160156 C 169.449219 336.496094 171.847656 334.660156 172.203125 332.019531 C 172.542969 329.394531 170.703125 326.996094 168.082031 326.640625 C 167.800781 326.601562 167.519531 326.582031 167.257812 326.601562 Z M 167.257812 326.601562 " fill-opacity="1" fill-rule="nonzero"/></g></svg>