<svg xmlns="http://www.w3.org/2000/svg" xmlns:xlink="http://www.w3.org/1999/xlink" width="500" zoomAndPan="magnify" viewBox="0 0 375 374.999991" height="500" preserveAspectRatio="xMidYMid meet" version="1.0"><defs><g/><clipPath id="3ef6ee83c0"><path d="M 159.289062 199.640625 L 269.390625 199.640625 L 269.390625 309.140625 L 159.289062 309.140625 Z M 159.289062 199.640625 " clip-rule="nonzero"/></clipPath><clipPath id="b7c7b4511b"><path d="M 162.457031 199.640625 L 272.265625 199.640625 L 272.265625 309.140625 L 162.457031 309.140625 Z M 162.457031 199.640625 " clip-rule="nonzero"/></clipPath></defs><g clip-path="url(#3ef6ee83c0)"><path fill="#8dd9dd" d="M 233.378906 252.785156 C 228.921875 252.648438 224.335938 252.515625 219.691406 252.371094 C 222.820312 249.441406 225.921875 246.539062 228.941406 243.714844 C 228.941406 243.714844 244.015625 241.820312 244.226562 243.683594 C 244.441406 245.554688 233.378906 252.785156 233.378906 252.785156 Z M 242.972656 267.539062 C 241.789062 269.007812 228.832031 266.339844 228.832031 266.339844 L 228.828125 266.515625 C 225.808594 263.324219 222.703125 260.042969 219.558594 256.726562 C 223.957031 256.859375 228.308594 256.988281 232.542969 257.117188 C 234.550781 258.691406 244.027344 266.226562 242.972656 267.539062 Z M 225.125 283.519531 C 223.246094 283.738281 215.976562 272.730469 215.976562 272.730469 C 216.101562 268.488281 216.234375 264.121094 216.371094 259.707031 C 219.355469 262.859375 222.308594 265.980469 225.183594 269.015625 C 225.527344 271.96875 226.757812 283.339844 225.125 283.519531 Z M 217.058594 236.960938 L 217.367188 236.703125 C 217.367188 236.703125 226.679688 224.761719 228.15625 225.933594 C 229.460938 226.976562 227.527344 237.128906 227.054688 239.496094 C 223.683594 242.65625 220.207031 245.910156 216.683594 249.207031 C 216.808594 245.066406 216.933594 240.960938 217.058594 236.960938 Z M 212.3125 249.074219 C 209.554688 246.15625 206.816406 243.265625 204.144531 240.449219 L 204.195312 239.886719 C 204.195312 239.886719 202.292969 224.898438 204.171875 224.6875 C 205.738281 224.511719 211.003906 232.0625 212.746094 234.632812 C 212.605469 239.320312 212.460938 244.164062 212.3125 249.074219 Z M 211.621094 271.898438 C 210.042969 273.894531 202.464844 283.320312 201.140625 282.277344 C 199.832031 281.238281 201.769531 271.085938 202.242188 268.714844 C 205.417969 265.738281 208.6875 262.679688 211.996094 259.582031 C 211.867188 263.746094 211.742188 267.875 211.621094 271.898438 Z M 200.355469 264.5 C 200.355469 264.5 185.28125 266.394531 185.066406 264.523438 C 184.890625 262.96875 192.488281 257.730469 195.0625 255.996094 C 199.59375 256.132812 204.265625 256.273438 208.992188 256.410156 C 206.078125 259.144531 203.179688 261.855469 200.359375 264.5 Z M 186.320312 240.671875 C 187.28125 239.476562 195.996094 241.011719 199.25 241.632812 C 202.457031 245.015625 205.769531 248.515625 209.125 252.058594 C 205.164062 251.941406 201.234375 251.824219 197.402344 251.707031 L 197.144531 251.40625 C 197.144531 251.40625 185.144531 242.140625 186.320312 240.671875 Z M 267.691406 254.296875 C 266.527344 254.109375 262.136719 253.820312 260.832031 253.613281 C 259.527344 253.410156 258.128906 253.585938 256.695312 253.472656 C 255.894531 253.453125 255.035156 253.429688 254.207031 253.40625 C 255.042969 252.617188 255.914062 251.796875 256.796875 250.976562 C 258.859375 249.042969 260.929688 247.109375 262.476562 245.65625 C 262.621094 245.421875 264.222656 244.039062 263.203125 242.46875 C 262.179688 240.886719 260.222656 242.117188 259.476562 242.484375 C 258.730469 242.855469 255.859375 245.875 253.792969 247.808594 C 251.730469 249.742188 249.660156 251.679688 248.113281 253.128906 C 248.082031 253.171875 248.039062 253.1875 248 253.21875 C 245.410156 253.140625 242.699219 253.0625 239.902344 252.976562 C 244.507812 249.828125 251.433594 244.554688 250.707031 241.757812 C 249.914062 238.714844 239.359375 238.898438 233.746094 239.210938 C 236.015625 237.085938 238.214844 235.027344 240.308594 233.0625 C 240.359375 233.066406 240.40625 233.042969 240.457031 233.054688 C 242.578125 233.121094 245.417969 233.203125 248.253906 233.289062 C 251.089844 233.371094 255.25 233.738281 256.058594 233.519531 C 256.867188 233.308594 259.152344 232.933594 258.859375 231.082031 C 258.574219 229.234375 256.449219 229.25 256.191406 229.171875 C 254.0625 229.113281 251.226562 229.023438 248.386719 228.941406 C 247.183594 228.902344 245.984375 228.871094 244.828125 228.835938 C 245.4375 228.265625 246.0625 227.679688 246.644531 227.132812 C 247.652344 226.105469 248.800781 225.316406 249.652344 224.304688 C 250.488281 223.285156 253.574219 220.171875 254.328125 219.265625 C 255.832031 217.457031 253.90625 215.425781 252 216.808594 C 251.050781 217.5 247.734375 220.378906 246.65625 221.152344 C 245.59375 221.929688 244.734375 223.03125 243.640625 223.964844 C 243.054688 224.511719 242.4375 225.09375 241.828125 225.664062 C 241.863281 224.515625 241.90625 223.328125 241.933594 222.128906 C 242.019531 219.308594 242.101562 216.488281 242.167969 214.367188 C 242.101562 214.097656 242.253906 212 240.40625 211.597656 C 238.570312 211.203125 238.058594 213.449219 237.796875 214.238281 C 237.527344 215.023438 237.648438 219.175781 237.554688 221.996094 C 237.476562 224.820312 237.390625 227.636719 237.328125 229.753906 C 237.335938 229.804688 237.316406 229.851562 237.308594 229.894531 C 235.539062 231.550781 233.695312 233.28125 231.796875 235.058594 C 232.789062 229.585938 233.796875 221.441406 231.363281 220.015625 C 228.5625 218.378906 220.890625 226.410156 217.25 230.488281 C 217.347656 227.222656 217.445312 224.058594 217.539062 221.054688 C 217.570312 221.023438 217.589844 220.972656 217.636719 220.949219 C 219.183594 219.5 221.253906 217.5625 223.320312 215.628906 C 225.382812 213.695312 228.578125 211.027344 228.996094 210.304688 C 229.417969 209.585938 230.757812 207.714844 229.242188 206.609375 C 227.722656 205.503906 226.238281 207.003906 225.996094 207.136719 C 224.445312 208.585938 222.378906 210.523438 220.316406 212.453125 C 219.4375 213.277344 218.566406 214.097656 217.722656 214.886719 C 217.746094 214.058594 217.777344 213.203125 217.800781 212.40625 C 217.777344 210.972656 218.035156 209.601562 217.914062 208.296875 C 217.785156 206.980469 217.753906 202.605469 217.640625 201.445312 C 217.414062 199.105469 214.609375 199.019531 214.246094 201.339844 C 214.0625 202.5 213.773438 206.863281 213.5625 208.164062 C 213.355469 209.460938 213.535156 210.84375 213.425781 212.277344 C 213.398438 213.066406 213.371094 213.917969 213.351562 214.75 C 212.558594 213.917969 211.738281 213.050781 210.914062 212.175781 C 208.964844 210.125 207.015625 208.0625 205.554688 206.527344 C 205.320312 206.382812 203.933594 204.792969 202.347656 205.800781 C 200.761719 206.820312 202 208.761719 202.375 209.511719 C 202.746094 210.25 205.777344 213.105469 207.726562 215.160156 C 209.667969 217.214844 211.613281 219.269531 213.074219 220.816406 C 213.113281 220.84375 213.132812 220.886719 213.160156 220.921875 C 213.089844 223.25 213.015625 225.679688 212.941406 228.171875 C 209.738281 223.640625 204.878906 217.570312 202.226562 218.25 C 199.042969 219.070312 199.375 230.40625 199.710938 235.761719 C 197.347656 233.269531 195.0625 230.855469 192.898438 228.570312 C 192.902344 228.523438 192.875 228.480469 192.890625 228.429688 C 192.953125 226.3125 193.035156 223.492188 193.125 220.671875 C 193.210938 217.851562 193.578125 213.710938 193.355469 212.914062 C 193.140625 212.109375 192.761719 209.835938 190.902344 210.125 C 189.042969 210.414062 189.058594 212.515625 188.984375 212.78125 C 188.917969 214.902344 188.835938 217.722656 188.75 220.539062 C 188.714844 221.742188 188.679688 222.933594 188.644531 224.082031 C 188.070312 223.472656 187.484375 222.855469 186.933594 222.273438 C 185.894531 221.273438 185.109375 220.125 184.089844 219.285156 C 183.0625 218.449219 179.933594 215.378906 179.027344 214.632812 C 177.207031 213.140625 175.160156 215.050781 176.554688 216.949219 C 177.246094 217.898438 180.144531 221.1875 180.917969 222.257812 C 181.699219 223.320312 182.804688 224.171875 183.75 225.257812 C 184.292969 225.835938 184.882812 226.457031 185.457031 227.0625 C 184.300781 227.027344 183.109375 226.992188 181.898438 226.953125 C 179.058594 226.878906 176.222656 226.789062 174.097656 226.726562 C 173.828125 226.792969 171.71875 226.644531 171.3125 228.472656 C 170.914062 230.304688 173.171875 230.808594 173.964844 231.078125 C 174.753906 231.34375 178.933594 231.226562 181.765625 231.308594 C 184.609375 231.394531 187.441406 231.480469 189.570312 231.542969 C 189.621094 231.527344 189.667969 231.550781 189.707031 231.554688 C 191.347656 233.285156 193.050781 235.085938 194.800781 236.933594 C 189.328125 235.992188 181.75 235.171875 180.371094 237.488281 C 178.726562 240.269531 186.796875 247.90625 190.898438 251.515625 C 187.402344 251.410156 184.023438 251.308594 180.820312 251.214844 C 180.789062 251.183594 180.738281 251.164062 180.714844 251.121094 C 179.257812 249.582031 177.308594 247.523438 175.363281 245.472656 C 173.417969 243.414062 170.734375 240.230469 170.015625 239.820312 C 169.289062 239.402344 167.40625 238.0625 166.296875 239.574219 C 165.183594 241.085938 166.695312 242.558594 166.824219 242.804688 C 168.28125 244.34375 170.230469 246.398438 172.175781 248.457031 C 173.003906 249.332031 173.824219 250.195312 174.617188 251.03125 C 173.785156 251.003906 172.925781 250.984375 172.128906 250.957031 C 170.683594 250.976562 169.308594 250.726562 167.992188 250.84375 C 166.671875 250.976562 162.273438 251.003906 161.097656 251.113281 C 158.746094 251.339844 158.667969 254.128906 161.003906 254.488281 C 162.164062 254.675781 166.554688 254.964844 167.859375 255.171875 C 169.167969 255.375 170.554688 255.203125 171.996094 255.308594 C 172.792969 255.332031 173.648438 255.359375 174.484375 255.382812 C 173.648438 256.167969 172.773438 256.984375 171.894531 257.804688 C 169.832031 259.746094 167.761719 261.679688 166.210938 263.128906 C 166.066406 263.363281 164.472656 264.75 165.488281 266.324219 C 166.507812 267.902344 168.464844 266.671875 169.214844 266.300781 C 169.960938 265.925781 172.832031 262.914062 174.898438 260.976562 C 176.960938 259.042969 179.027344 257.109375 180.582031 255.65625 C 180.605469 255.617188 180.648438 255.597656 180.6875 255.566406 C 183.214844 255.644531 185.859375 255.726562 188.574219 255.800781 C 184.015625 258.988281 177.914062 263.824219 178.597656 266.460938 C 179.386719 269.503906 189.949219 269.320312 195.554688 269 C 193.066406 271.328125 190.664062 273.585938 188.382812 275.722656 C 188.335938 275.722656 188.289062 275.742188 188.238281 275.730469 C 186.113281 275.664062 183.273438 275.582031 180.441406 275.496094 C 177.601562 275.410156 173.445312 275.042969 172.636719 275.261719 C 171.828125 275.480469 169.539062 275.847656 169.832031 277.703125 C 170.121094 279.554688 172.238281 279.53125 172.503906 279.617188 C 174.632812 279.679688 177.472656 279.765625 180.308594 279.847656 C 181.515625 279.882812 182.710938 279.917969 183.863281 279.953125 C 183.257812 280.519531 182.632812 281.105469 182.050781 281.648438 C 181.046875 282.679688 179.890625 283.46875 179.042969 284.476562 C 178.207031 285.5 175.117188 288.613281 174.367188 289.523438 C 172.859375 291.328125 174.785156 293.359375 176.691406 291.976562 C 177.648438 291.285156 180.960938 288.40625 182.03125 287.636719 C 183.101562 286.855469 183.960938 285.753906 185.050781 284.816406 C 185.636719 284.273438 186.257812 283.6875 186.867188 283.121094 C 186.828125 284.273438 186.796875 285.457031 186.761719 286.65625 C 186.675781 289.480469 186.589844 292.300781 186.523438 294.417969 C 186.589844 294.6875 186.445312 296.789062 188.28125 297.183594 C 190.121094 297.585938 190.632812 295.335938 190.898438 294.550781 C 191.164062 293.761719 191.046875 289.613281 191.132812 286.785156 C 191.21875 283.96875 191.304688 281.148438 191.367188 279.03125 C 191.355469 278.980469 191.382812 278.9375 191.382812 278.890625 C 193.34375 277.054688 195.394531 275.128906 197.507812 273.152344 C 196.519531 278.621094 195.511719 286.769531 197.941406 288.195312 C 200.589844 289.746094 207.609375 282.636719 211.429688 278.410156 C 211.328125 281.640625 211.242188 284.765625 211.148438 287.730469 C 211.117188 287.765625 211.097656 287.8125 211.054688 287.835938 C 209.5 289.28125 207.4375 291.230469 205.367188 293.15625 C 203.308594 295.09375 200.109375 297.761719 199.683594 298.480469 C 199.269531 299.199219 197.917969 301.070312 199.445312 302.179688 C 200.960938 303.277344 202.441406 301.777344 202.6875 301.648438 C 204.242188 300.203125 206.304688 298.253906 208.375 296.328125 C 209.253906 295.503906 210.125 294.6875 210.964844 293.902344 C 210.9375 294.734375 210.910156 295.582031 210.886719 296.371094 C 210.910156 297.8125 210.652344 299.179688 210.773438 300.492188 C 210.910156 301.804688 210.9375 306.179688 211.054688 307.34375 C 211.273438 309.675781 214.074219 309.769531 214.441406 307.441406 C 214.628906 306.285156 214.921875 301.925781 215.132812 300.625 C 215.332031 299.320312 215.160156 297.9375 215.265625 296.507812 C 215.285156 295.714844 215.316406 294.863281 215.335938 294.03125 C 216.128906 294.871094 216.949219 295.730469 217.777344 296.613281 C 219.726562 298.664062 221.667969 300.71875 223.132812 302.253906 C 223.363281 302.402344 224.753906 303.992188 226.339844 302.976562 C 227.921875 301.964844 226.691406 300.019531 226.320312 299.277344 C 225.945312 298.53125 222.914062 295.679688 220.964844 293.621094 C 219.015625 291.566406 217.070312 289.515625 215.613281 287.96875 C 215.570312 287.941406 215.554688 287.890625 215.527344 287.863281 C 215.609375 285.105469 215.695312 282.207031 215.78125 279.222656 C 218.949219 283.792969 224.261719 290.679688 227.074219 289.960938 C 230.015625 289.203125 229.953125 279.453125 229.664062 273.746094 C 231.78125 275.976562 233.839844 278.148438 235.796875 280.214844 C 235.796875 280.265625 235.8125 280.316406 235.796875 280.355469 C 235.734375 282.472656 235.65625 285.296875 235.554688 288.117188 C 235.476562 290.933594 235.117188 295.074219 235.328125 295.871094 C 235.539062 296.675781 235.917969 298.945312 237.78125 298.664062 C 239.640625 298.375 239.628906 296.265625 239.710938 296.003906 C 239.769531 293.886719 239.847656 291.066406 239.9375 288.246094 C 239.976562 287.046875 240.015625 285.851562 240.054688 284.710938 C 240.621094 285.308594 241.210938 285.9375 241.753906 286.507812 C 242.792969 287.511719 243.570312 288.660156 244.601562 289.5 C 245.628906 290.332031 248.757812 293.410156 249.664062 294.148438 C 251.488281 295.644531 253.53125 293.734375 252.132812 291.835938 C 251.4375 290.890625 248.542969 287.59375 247.769531 286.53125 C 246.992188 285.464844 245.882812 284.617188 244.941406 283.523438 C 244.394531 282.945312 243.804688 282.324219 243.230469 281.71875 C 244.386719 281.753906 245.585938 281.789062 246.792969 281.832031 C 249.628906 281.910156 252.460938 281.992188 254.597656 282.066406 C 254.859375 281.992188 256.972656 282.140625 257.375 280.316406 C 257.765625 278.480469 255.519531 277.972656 254.722656 277.703125 C 253.9375 277.445312 249.757812 277.5625 246.921875 277.480469 C 244.082031 277.386719 241.246094 277.308594 239.117188 277.246094 C 239.066406 277.261719 239.023438 277.230469 238.980469 277.226562 C 237.101562 275.242188 235.136719 273.167969 233.109375 271.03125 C 238.589844 272.046875 247.4375 273.238281 248.929688 270.71875 C 250.488281 268.089844 243.335938 261.113281 239.089844 257.308594 C 242.125 257.402344 245.070312 257.488281 247.871094 257.574219 C 247.90625 257.601562 247.949219 257.621094 247.976562 257.664062 C 249.4375 259.210938 251.382812 261.257812 253.324219 263.316406 C 255.277344 265.371094 257.953125 268.550781 258.675781 268.96875 C 259.398438 269.382812 261.277344 270.726562 262.398438 269.210938 C 263.507812 267.695312 261.996094 266.222656 261.867188 265.980469 C 260.414062 264.441406 258.460938 262.390625 256.519531 260.328125 C 255.6875 259.457031 254.871094 258.59375 254.078125 257.753906 C 254.914062 257.78125 255.765625 257.804688 256.5625 257.828125 C 258.007812 257.804688 259.382812 258.066406 260.703125 257.941406 C 262.023438 257.8125 266.414062 257.78125 267.59375 257.667969 C 269.941406 257.449219 270.027344 254.65625 267.691406 254.296875 " fill-opacity="1" fill-rule="nonzero"/></g><g clip-path="url(#b7c7b4511b)"><path fill="#fdbae3" d="M 236.351562 252.9375 C 231.902344 252.804688 227.332031 252.667969 222.699219 252.523438 C 225.820312 249.585938 228.914062 246.675781 231.921875 243.839844 C 231.921875 243.839844 246.957031 241.941406 247.171875 243.8125 C 247.382812 245.6875 236.351562 252.9375 236.351562 252.9375 Z M 245.917969 267.734375 C 244.738281 269.210938 231.816406 266.535156 231.816406 266.535156 L 231.8125 266.707031 C 228.800781 263.507812 225.703125 260.21875 222.566406 256.890625 C 226.953125 257.023438 231.292969 257.152344 235.519531 257.285156 C 237.519531 258.863281 246.972656 266.417969 245.917969 267.734375 Z M 228.117188 283.761719 C 226.246094 283.980469 218.996094 272.941406 218.996094 272.941406 C 219.117188 268.6875 219.25 264.308594 219.386719 259.882812 C 222.363281 263.042969 225.308594 266.171875 228.175781 269.214844 C 228.519531 272.179688 229.75 283.582031 228.117188 283.761719 Z M 220.074219 237.070312 L 220.382812 236.808594 C 220.382812 236.808594 229.667969 224.835938 231.144531 226.007812 C 232.441406 227.054688 230.515625 237.238281 230.042969 239.613281 C 226.679688 242.777344 223.214844 246.042969 219.703125 249.351562 C 219.828125 245.199219 219.949219 241.082031 220.074219 237.070312 Z M 215.339844 249.214844 C 212.589844 246.292969 209.855469 243.390625 207.191406 240.566406 L 207.246094 240.003906 C 207.246094 240.003906 205.347656 224.972656 207.222656 224.757812 C 208.78125 224.585938 214.035156 232.15625 215.773438 234.734375 C 215.632812 239.433594 215.488281 244.292969 215.339844 249.214844 Z M 214.652344 272.105469 C 213.078125 274.109375 205.519531 283.5625 204.195312 282.515625 C 202.894531 281.476562 204.828125 271.292969 205.296875 268.917969 C 208.464844 265.929688 211.726562 262.859375 215.027344 259.753906 C 214.898438 263.933594 214.773438 268.074219 214.652344 272.105469 Z M 203.414062 264.6875 C 203.414062 264.6875 188.378906 266.589844 188.167969 264.710938 C 187.992188 263.152344 195.570312 257.898438 198.136719 256.160156 C 202.65625 256.296875 207.3125 256.433594 212.027344 256.574219 C 209.121094 259.316406 206.234375 262.035156 203.417969 264.6875 Z M 189.417969 240.792969 C 190.375 239.59375 199.066406 241.132812 202.3125 241.753906 C 205.511719 245.148438 208.816406 248.65625 212.164062 252.210938 C 208.210938 252.09375 204.292969 251.972656 200.472656 251.859375 L 200.214844 251.554688 C 200.214844 251.554688 188.242188 242.265625 189.417969 240.792969 Z M 270.574219 254.457031 C 269.414062 254.269531 265.03125 253.976562 263.730469 253.769531 C 262.429688 253.566406 261.035156 253.742188 259.605469 253.628906 C 258.804688 253.605469 257.949219 253.585938 257.121094 253.558594 C 257.957031 252.769531 258.828125 251.949219 259.703125 251.125 C 261.765625 249.183594 263.828125 247.246094 265.371094 245.789062 C 265.515625 245.554688 267.113281 244.167969 266.09375 242.589844 C 265.074219 241.007812 263.121094 242.238281 262.378906 242.609375 C 261.636719 242.980469 258.769531 246.007812 256.710938 247.945312 C 254.652344 249.886719 252.585938 251.832031 251.042969 253.285156 C 251.015625 253.328125 250.972656 253.34375 250.929688 253.375 C 248.347656 253.296875 245.644531 253.214844 242.859375 253.132812 C 247.449219 249.972656 254.355469 244.683594 253.632812 241.878906 C 252.84375 238.828125 242.3125 239.011719 236.71875 239.328125 C 238.980469 237.191406 241.175781 235.128906 243.261719 233.160156 C 243.3125 233.164062 243.359375 233.140625 243.410156 233.152344 C 245.527344 233.214844 248.355469 233.300781 251.1875 233.386719 C 254.015625 233.46875 258.164062 233.839844 258.96875 233.621094 C 259.777344 233.402344 262.054688 233.03125 261.765625 231.171875 C 261.480469 229.320312 259.359375 229.335938 259.105469 229.257812 C 256.980469 229.199219 254.152344 229.109375 251.320312 229.027344 C 250.117188 228.988281 248.921875 228.953125 247.769531 228.917969 C 248.378906 228.347656 249 227.761719 249.582031 227.214844 C 250.585938 226.183594 251.730469 225.390625 252.582031 224.378906 C 253.414062 223.355469 256.492188 220.230469 257.242188 219.320312 C 258.742188 217.507812 256.824219 215.46875 254.921875 216.859375 C 253.972656 217.550781 250.667969 220.4375 249.59375 221.210938 C 248.53125 221.992188 247.675781 223.097656 246.585938 224.035156 C 246 224.582031 245.382812 225.167969 244.777344 225.738281 C 244.8125 224.585938 244.855469 223.394531 244.882812 222.195312 C 244.96875 219.363281 245.050781 216.535156 245.117188 214.410156 C 245.050781 214.140625 245.199219 212.035156 243.359375 211.632812 C 241.527344 211.234375 241.019531 213.488281 240.757812 214.277344 C 240.488281 215.070312 240.609375 219.230469 240.515625 222.0625 C 240.4375 224.890625 240.355469 227.71875 240.289062 229.84375 C 240.296875 229.890625 240.277344 229.9375 240.269531 229.984375 C 238.507812 231.644531 236.667969 233.378906 234.773438 235.160156 C 235.761719 229.671875 236.765625 221.503906 234.339844 220.074219 C 231.546875 218.433594 223.894531 226.484375 220.265625 230.578125 C 220.363281 227.300781 220.460938 224.128906 220.554688 221.117188 C 220.585938 221.082031 220.605469 221.03125 220.652344 221.011719 C 222.191406 219.558594 224.257812 217.613281 226.320312 215.675781 C 228.375 213.734375 231.5625 211.0625 231.980469 210.335938 C 232.398438 209.617188 233.738281 207.738281 232.226562 206.632812 C 230.710938 205.519531 229.230469 207.023438 228.984375 207.160156 C 227.441406 208.613281 225.378906 210.554688 223.324219 212.492188 C 222.445312 213.316406 221.578125 214.140625 220.734375 214.929688 C 220.761719 214.097656 220.789062 213.242188 220.8125 212.445312 C 220.789062 211.007812 221.050781 209.628906 220.925781 208.320312 C 220.796875 207 220.765625 202.617188 220.652344 201.449219 C 220.429688 199.105469 217.628906 199.015625 217.269531 201.34375 C 217.085938 202.507812 216.796875 206.882812 216.589844 208.1875 C 216.378906 209.488281 216.558594 210.875 216.449219 212.3125 C 216.425781 213.105469 216.398438 213.960938 216.375 214.796875 C 215.585938 213.957031 214.765625 213.089844 213.945312 212.210938 C 212 210.15625 210.058594 208.089844 208.601562 206.546875 C 208.367188 206.402344 206.984375 204.808594 205.402344 205.820312 C 203.820312 206.839844 205.054688 208.789062 205.429688 209.539062 C 205.796875 210.28125 208.820312 213.144531 210.765625 215.203125 C 212.703125 217.265625 214.640625 219.324219 216.101562 220.875 C 216.140625 220.90625 216.160156 220.949219 216.1875 220.984375 C 216.117188 223.320312 216.039062 225.753906 215.96875 228.253906 C 212.773438 223.707031 207.925781 217.621094 205.28125 218.304688 C 202.109375 219.125 202.4375 230.492188 202.773438 235.867188 C 200.414062 233.367188 198.136719 230.945312 195.976562 228.652344 C 195.980469 228.609375 195.957031 228.566406 195.96875 228.511719 C 196.035156 226.390625 196.117188 223.558594 196.203125 220.730469 C 196.289062 217.90625 196.65625 213.753906 196.433594 212.953125 C 196.222656 212.144531 195.84375 209.863281 193.988281 210.15625 C 192.132812 210.445312 192.152344 212.554688 192.074219 212.820312 C 192.007812 214.945312 191.925781 217.773438 191.839844 220.597656 C 191.804688 221.804688 191.769531 223 191.734375 224.152344 C 191.164062 223.542969 190.578125 222.921875 190.03125 222.335938 C 188.992188 221.335938 188.210938 220.183594 187.191406 219.34375 C 186.167969 218.503906 183.050781 215.425781 182.140625 214.675781 C 180.328125 213.179688 178.285156 215.097656 179.675781 216.996094 C 180.367188 217.953125 183.257812 221.25 184.03125 222.320312 C 184.808594 223.386719 185.914062 224.246094 186.851562 225.332031 C 187.394531 225.910156 187.984375 226.535156 188.554688 227.140625 C 187.40625 227.109375 186.214844 227.074219 185.007812 227.035156 C 182.175781 226.957031 179.347656 226.867188 177.226562 226.804688 C 176.960938 226.871094 174.855469 226.722656 174.449219 228.554688 C 174.054688 230.390625 176.304688 230.898438 177.097656 231.167969 C 177.882812 231.433594 182.050781 231.316406 184.875 231.402344 C 187.710938 231.484375 190.535156 231.570312 192.660156 231.636719 C 192.707031 231.621094 192.753906 231.644531 192.796875 231.644531 C 194.429688 233.382812 196.128906 235.1875 197.878906 237.039062 C 192.417969 236.097656 184.859375 235.273438 183.484375 237.597656 C 181.84375 240.386719 189.894531 248.042969 193.984375 251.667969 C 190.496094 251.558594 187.128906 251.460938 183.929688 251.367188 C 183.902344 251.332031 183.851562 251.3125 183.828125 251.269531 C 182.371094 249.726562 180.429688 247.664062 178.488281 245.605469 C 176.546875 243.542969 173.875 240.347656 173.15625 239.9375 C 172.429688 239.515625 170.554688 238.175781 169.445312 239.6875 C 168.335938 241.207031 169.84375 242.683594 169.972656 242.929688 C 171.425781 244.472656 173.371094 246.535156 175.308594 248.597656 C 176.136719 249.476562 176.953125 250.34375 177.746094 251.179688 C 176.917969 251.152344 176.058594 251.128906 175.261719 251.105469 C 173.820312 251.125 172.449219 250.875 171.136719 250.992188 C 169.820312 251.121094 165.433594 251.152344 164.261719 251.265625 C 161.917969 251.488281 161.835938 254.289062 164.167969 254.648438 C 165.324219 254.835938 169.707031 255.125 171.007812 255.332031 C 172.3125 255.535156 173.695312 255.363281 175.128906 255.46875 C 175.925781 255.492188 176.78125 255.519531 177.613281 255.542969 C 176.777344 256.332031 175.90625 257.152344 175.03125 257.972656 C 172.976562 259.917969 170.90625 261.859375 169.363281 263.3125 C 169.21875 263.546875 167.628906 264.9375 168.640625 266.515625 C 169.65625 268.097656 171.609375 266.867188 172.359375 266.492188 C 173.101562 266.121094 175.964844 263.097656 178.023438 261.15625 C 180.082031 259.214844 182.144531 257.273438 183.691406 255.816406 C 183.71875 255.777344 183.761719 255.761719 183.800781 255.730469 C 186.320312 255.804688 188.957031 255.886719 191.664062 255.964844 C 187.121094 259.160156 181.035156 264.007812 181.714844 266.65625 C 182.5 269.707031 193.035156 269.523438 198.628906 269.199219 C 196.148438 271.535156 193.746094 273.796875 191.472656 275.941406 C 191.425781 275.941406 191.382812 275.964844 191.328125 275.949219 C 189.210938 275.886719 186.378906 275.800781 183.550781 275.714844 C 180.722656 275.628906 176.574219 275.261719 175.769531 275.480469 C 174.964844 275.703125 172.683594 276.070312 172.972656 277.929688 C 173.261719 279.785156 175.375 279.761719 175.636719 279.847656 C 177.761719 279.910156 180.59375 279.996094 183.421875 280.082031 C 184.625 280.117188 185.816406 280.152344 186.964844 280.1875 C 186.363281 280.753906 185.742188 281.339844 185.15625 281.886719 C 184.15625 282.917969 183.003906 283.710938 182.160156 284.722656 C 181.324219 285.75 178.242188 288.867188 177.496094 289.78125 C 175.992188 291.59375 177.914062 293.628906 179.816406 292.242188 C 180.769531 291.550781 184.070312 288.664062 185.140625 287.890625 C 186.207031 287.105469 187.0625 286.003906 188.152344 285.0625 C 188.734375 284.515625 189.355469 283.929688 189.960938 283.363281 C 189.925781 284.515625 189.894531 285.707031 189.855469 286.910156 C 189.769531 289.738281 189.683594 292.570312 189.621094 294.691406 C 189.683594 294.960938 189.539062 297.070312 191.375 297.464844 C 193.207031 297.867188 193.71875 295.613281 193.984375 294.824219 C 194.25 294.035156 194.132812 289.875 194.21875 287.035156 C 194.304688 284.214844 194.390625 281.382812 194.449219 279.261719 C 194.4375 279.210938 194.464844 279.167969 194.464844 279.117188 C 196.421875 277.277344 198.46875 275.347656 200.574219 273.367188 C 199.589844 278.851562 198.585938 287.023438 201.007812 288.449219 C 203.648438 290.007812 210.648438 282.875 214.460938 278.636719 C 214.359375 281.878906 214.273438 285.011719 214.179688 287.984375 C 214.148438 288.019531 214.128906 288.070312 214.085938 288.089844 C 212.535156 289.539062 210.476562 291.492188 208.414062 293.425781 C 206.363281 295.371094 203.167969 298.046875 202.746094 298.765625 C 202.332031 299.488281 200.984375 301.363281 202.507812 302.472656 C 204.019531 303.578125 205.496094 302.070312 205.742188 301.945312 C 207.289062 300.492188 209.351562 298.539062 211.414062 296.609375 C 212.289062 295.78125 213.160156 294.960938 213.996094 294.175781 C 213.972656 295.011719 213.941406 295.859375 213.921875 296.652344 C 213.941406 298.09375 213.683594 299.46875 213.804688 300.785156 C 213.941406 302.097656 213.96875 306.484375 214.085938 307.652344 C 214.300781 309.996094 217.097656 310.085938 217.464844 307.753906 C 217.652344 306.59375 217.941406 302.21875 218.152344 300.917969 C 218.355469 299.609375 218.179688 298.222656 218.285156 296.785156 C 218.308594 295.992188 218.335938 295.136719 218.355469 294.300781 C 219.148438 295.144531 219.964844 296.007812 220.792969 296.890625 C 222.734375 298.949219 224.671875 301.011719 226.132812 302.550781 C 226.363281 302.699219 227.75 304.292969 229.328125 303.273438 C 230.90625 302.261719 229.679688 300.308594 229.308594 299.566406 C 228.9375 298.816406 225.914062 295.957031 223.96875 293.890625 C 222.023438 291.832031 220.082031 289.773438 218.632812 288.226562 C 218.589844 288.195312 218.574219 288.148438 218.546875 288.117188 C 218.628906 285.351562 218.714844 282.445312 218.800781 279.453125 C 221.960938 284.035156 227.257812 290.941406 230.0625 290.21875 C 232.996094 289.464844 232.933594 279.683594 232.644531 273.960938 C 234.757812 276.195312 236.808594 278.375 238.761719 280.449219 C 238.761719 280.5 238.777344 280.546875 238.761719 280.589844 C 238.699219 282.714844 238.621094 285.542969 238.523438 288.375 C 238.445312 291.195312 238.082031 295.351562 238.296875 296.148438 C 238.507812 296.957031 238.882812 299.234375 240.742188 298.949219 C 242.597656 298.660156 242.582031 296.546875 242.667969 296.285156 C 242.722656 294.160156 242.800781 291.332031 242.894531 288.5 C 242.929688 287.296875 242.972656 286.101562 243.007812 284.957031 C 243.574219 285.558594 244.160156 286.1875 244.707031 286.761719 C 245.738281 287.765625 246.515625 288.917969 247.542969 289.761719 C 248.570312 290.59375 251.6875 293.679688 252.59375 294.421875 C 254.414062 295.921875 256.449219 294.003906 255.054688 292.101562 C 254.363281 291.152344 251.476562 287.851562 250.707031 286.78125 C 249.925781 285.714844 248.824219 284.863281 247.882812 283.765625 C 247.335938 283.1875 246.75 282.566406 246.175781 281.957031 C 247.332031 281.992188 248.527344 282.027344 249.730469 282.070312 C 252.558594 282.148438 255.382812 282.230469 257.511719 282.300781 C 257.773438 282.230469 259.882812 282.378906 260.285156 280.546875 C 260.675781 278.707031 258.429688 278.199219 257.640625 277.929688 C 256.855469 277.667969 252.6875 277.789062 249.855469 277.703125 C 247.027344 277.613281 244.195312 277.535156 242.074219 277.46875 C 242.023438 277.484375 241.980469 277.457031 241.9375 277.449219 C 240.0625 275.460938 238.105469 273.378906 236.082031 271.238281 C 241.550781 272.253906 250.371094 273.453125 251.859375 270.925781 C 253.414062 268.289062 246.28125 261.292969 242.046875 257.472656 C 245.074219 257.566406 248.007812 257.65625 250.804688 257.742188 C 250.839844 257.769531 250.882812 257.789062 250.910156 257.832031 C 252.367188 259.382812 254.304688 261.4375 256.246094 263.503906 C 258.191406 265.5625 260.859375 268.75 261.578125 269.167969 C 262.300781 269.582031 264.175781 270.933594 265.292969 269.414062 C 266.398438 267.894531 264.890625 266.414062 264.765625 266.171875 C 263.3125 264.628906 261.367188 262.570312 259.429688 260.503906 C 258.601562 259.628906 257.789062 258.761719 256.996094 257.921875 C 257.832031 257.949219 258.679688 257.972656 259.472656 257.996094 C 260.914062 257.972656 262.289062 258.238281 263.605469 258.109375 C 264.917969 257.980469 269.300781 257.949219 270.472656 257.835938 C 272.816406 257.617188 272.902344 254.816406 270.574219 254.457031 " fill-opacity="1" fill-rule="nonzero"/></g><g fill="#8dd9dd" fill-opacity="1"><g transform="translate(27.264784, 171.67701)"><g><path d="M 50.375 -59.46875 L 51.453125 -59.46875 L 51.453125 -49.296875 L 51.578125 -49.296875 L 51.578125 -48.828125 L 51.453125 -48.828125 L 51.453125 -38.65625 L 50.375 -38.65625 L 50.015625 -40.203125 C 49.773438 -41.640625 49.054688 -43.015625 47.859375 -44.328125 C 46.660156 -45.648438 45.265625 -46.726562 43.671875 -47.5625 C 42.078125 -48.40625 40.484375 -48.828125 38.890625 -48.828125 L 19.625 -48.828125 L 19.625 0 L 12.5625 0 L 12.5625 -95.015625 L 59.953125 -95.015625 L 59.953125 -94.65625 L 59.828125 -94.65625 L 61.140625 -84.484375 L 60.0625 -84.484375 L 59.46875 -86.03125 C 59.070312 -87.46875 58.210938 -88.84375 56.890625 -90.15625 C 55.578125 -91.476562 54.0625 -92.554688 52.34375 -93.390625 C 50.632812 -94.234375 48.941406 -94.65625 47.265625 -94.65625 L 19.625 -94.65625 L 19.625 -49.296875 L 38.890625 -49.296875 C 40.484375 -49.296875 42.078125 -49.710938 43.671875 -50.546875 C 45.265625 -51.390625 46.660156 -52.46875 47.859375 -53.78125 C 49.054688 -55.101562 49.773438 -56.484375 50.015625 -57.921875 Z M 50.375 -59.46875 "/></g></g></g><g fill="#8dd9dd" fill-opacity="1"><g transform="translate(92.838144, 171.67701)"><g><path d="M 5.03125 -94.171875 C 5.582031 -94.171875 6.132812 -94.269531 6.6875 -94.46875 C 7.25 -94.664062 7.691406 -94.847656 8.015625 -95.015625 L 11.015625 -95.015625 L 11.015625 0 L 5.03125 0 L 5.03125 -87.234375 C 5.03125 -88.585938 4.890625 -89.863281 4.609375 -91.0625 C 4.328125 -92.257812 3.988281 -92.894531 3.59375 -92.96875 L 3.234375 -92.96875 L 3.234375 -93.578125 C 3.472656 -93.648438 3.75 -93.726562 4.0625 -93.8125 C 4.382812 -93.894531 4.707031 -93.972656 5.03125 -94.046875 Z M 5.03125 -94.171875 "/></g></g></g><g fill="#8dd9dd" fill-opacity="1"><g transform="translate(109.111824, 171.67701)"><g><path d="M 5.390625 -32.546875 C 5.390625 -36.773438 6.285156 -40.898438 8.078125 -44.921875 C 9.867188 -48.953125 12.320312 -52.582031 15.4375 -55.8125 C 18.550781 -59.050781 22.019531 -61.609375 25.84375 -63.484375 C 29.675781 -65.359375 33.625 -66.296875 37.6875 -66.296875 C 41.757812 -66.296875 45.707031 -65.359375 49.53125 -63.484375 C 53.363281 -61.609375 56.832031 -59.050781 59.9375 -55.8125 C 63.050781 -52.582031 65.503906 -48.953125 67.296875 -44.921875 C 69.097656 -40.898438 70 -36.773438 70 -32.546875 C 70 -28.316406 69.097656 -24.1875 67.296875 -20.15625 C 65.503906 -16.132812 63.050781 -12.503906 59.9375 -9.265625 C 56.832031 -6.035156 53.363281 -3.484375 49.53125 -1.609375 C 45.707031 0.265625 41.757812 1.203125 37.6875 1.203125 C 33.625 1.203125 29.675781 0.265625 25.84375 -1.609375 C 22.019531 -3.484375 18.550781 -6.035156 15.4375 -9.265625 C 12.320312 -12.503906 9.867188 -16.132812 8.078125 -20.15625 C 6.285156 -24.1875 5.390625 -28.316406 5.390625 -32.546875 Z M 11.96875 -32.546875 C 11.96875 -28.398438 12.6875 -24.351562 14.125 -20.40625 C 15.5625 -16.457031 17.492188 -12.882812 19.921875 -9.6875 C 22.359375 -6.5 25.109375 -3.988281 28.171875 -2.15625 C 31.242188 -0.320312 34.414062 0.59375 37.6875 0.59375 C 40.957031 0.59375 44.128906 -0.320312 47.203125 -2.15625 C 50.273438 -3.988281 53.023438 -6.5 55.453125 -9.6875 C 57.890625 -12.882812 59.828125 -16.457031 61.265625 -20.40625 C 62.703125 -24.351562 63.421875 -28.398438 63.421875 -32.546875 C 63.421875 -36.773438 62.703125 -40.84375 61.265625 -44.75 C 59.828125 -48.65625 57.890625 -52.203125 55.453125 -55.390625 C 53.023438 -58.585938 50.273438 -61.101562 47.203125 -62.9375 C 44.128906 -64.769531 40.957031 -65.6875 37.6875 -65.6875 C 34.414062 -65.6875 31.242188 -64.769531 28.171875 -62.9375 C 25.109375 -61.101562 22.359375 -58.585938 19.921875 -55.390625 C 17.492188 -52.203125 15.5625 -48.65625 14.125 -44.75 C 12.6875 -40.84375 11.96875 -36.773438 11.96875 -32.546875 Z M 11.96875 -32.546875 "/></g></g></g><g fill="#8dd9dd" fill-opacity="1"><g transform="translate(184.497256, 171.67701)"><g><path d="M 56 -16.28125 C 54.882812 -13.320312 52.929688 -10.503906 50.140625 -7.828125 C 47.347656 -5.160156 44.273438 -2.988281 40.921875 -1.3125 C 37.566406 0.363281 34.375 1.203125 31.34375 1.203125 C 28.070312 1.203125 24.878906 0.304688 21.765625 -1.484375 C 18.660156 -3.285156 15.867188 -5.722656 13.390625 -8.796875 C 10.921875 -11.867188 8.96875 -15.316406 7.53125 -19.140625 C 6.101562 -22.972656 5.390625 -26.921875 5.390625 -30.984375 C 5.390625 -35.453125 6.1875 -39.78125 7.78125 -43.96875 C 9.375 -48.15625 11.503906 -51.925781 14.171875 -55.28125 C 16.847656 -58.632812 19.859375 -61.304688 23.203125 -63.296875 C 26.554688 -65.296875 30.03125 -66.296875 33.625 -66.296875 C 36.65625 -66.296875 39.742188 -65.695312 42.890625 -64.5 C 46.046875 -63.300781 48.835938 -61.742188 51.265625 -59.828125 C 53.703125 -57.910156 55.28125 -55.878906 56 -53.734375 C 56.320312 -52.929688 56.160156 -52.226562 55.515625 -51.625 C 54.878906 -51.03125 54.046875 -50.734375 53.015625 -50.734375 C 52.535156 -50.734375 51.992188 -51.03125 51.390625 -51.625 C 50.796875 -52.226562 50.335938 -52.929688 50.015625 -53.734375 C 49.296875 -55.804688 48 -57.78125 46.125 -59.65625 C 44.25 -61.53125 42.191406 -63.046875 39.953125 -64.203125 C 37.722656 -65.359375 35.570312 -65.9375 33.5 -65.9375 C 30.707031 -65.9375 27.992188 -65.035156 25.359375 -63.234375 C 22.734375 -61.441406 20.363281 -59.03125 18.25 -56 C 16.132812 -52.96875 14.457031 -49.554688 13.21875 -45.765625 C 11.988281 -41.972656 11.375 -38.085938 11.375 -34.109375 C 11.375 -29.878906 11.953125 -25.75 13.109375 -21.71875 C 14.265625 -17.6875 15.859375 -14.078125 17.890625 -10.890625 C 19.921875 -7.703125 22.171875 -5.171875 24.640625 -3.296875 C 27.117188 -1.421875 29.675781 -0.484375 32.3125 -0.484375 C 35.257812 -0.484375 38.347656 -1.257812 41.578125 -2.8125 C 44.804688 -4.363281 47.71875 -6.351562 50.3125 -8.78125 C 52.90625 -11.21875 54.722656 -13.753906 55.765625 -16.390625 Z M 56 -16.28125 "/></g></g></g><g fill="#8dd9dd" fill-opacity="1"><g transform="translate(272.347487, 290.188985)"><g><path d="M 5.390625 -32.546875 C 5.390625 -36.773438 6.285156 -40.898438 8.078125 -44.921875 C 9.867188 -48.953125 12.320312 -52.582031 15.4375 -55.8125 C 18.550781 -59.050781 22.019531 -61.609375 25.84375 -63.484375 C 29.675781 -65.359375 33.625 -66.296875 37.6875 -66.296875 C 41.757812 -66.296875 45.707031 -65.359375 49.53125 -63.484375 C 53.363281 -61.609375 56.832031 -59.050781 59.9375 -55.8125 C 63.050781 -52.582031 65.503906 -48.953125 67.296875 -44.921875 C 69.097656 -40.898438 70 -36.773438 70 -32.546875 C 70 -28.316406 69.097656 -24.1875 67.296875 -20.15625 C 65.503906 -16.132812 63.050781 -12.503906 59.9375 -9.265625 C 56.832031 -6.035156 53.363281 -3.484375 49.53125 -1.609375 C 45.707031 0.265625 41.757812 1.203125 37.6875 1.203125 C 33.625 1.203125 29.675781 0.265625 25.84375 -1.609375 C 22.019531 -3.484375 18.550781 -6.035156 15.4375 -9.265625 C 12.320312 -12.503906 9.867188 -16.132812 8.078125 -20.15625 C 6.285156 -24.1875 5.390625 -28.316406 5.390625 -32.546875 Z M 11.96875 -32.546875 C 11.96875 -28.398438 12.6875 -24.351562 14.125 -20.40625 C 15.5625 -16.457031 17.492188 -12.882812 19.921875 -9.6875 C 22.359375 -6.5 25.109375 -3.988281 28.171875 -2.15625 C 31.242188 -0.320312 34.414062 0.59375 37.6875 0.59375 C 40.957031 0.59375 44.128906 -0.320312 47.203125 -2.15625 C 50.273438 -3.988281 53.023438 -6.5 55.453125 -9.6875 C 57.890625 -12.882812 59.828125 -16.457031 61.265625 -20.40625 C 62.703125 -24.351562 63.421875 -28.398438 63.421875 -32.546875 C 63.421875 -36.773438 62.703125 -40.84375 61.265625 -44.75 C 59.828125 -48.65625 57.890625 -52.203125 55.453125 -55.390625 C 53.023438 -58.585938 50.273438 -61.101562 47.203125 -62.9375 C 44.128906 -64.769531 40.957031 -65.6875 37.6875 -65.6875 C 34.414062 -65.6875 31.242188 -64.769531 28.171875 -62.9375 C 25.109375 -61.101562 22.359375 -58.585938 19.921875 -55.390625 C 17.492188 -52.203125 15.5625 -48.65625 14.125 -44.75 C 12.6875 -40.84375 11.96875 -36.773438 11.96875 -32.546875 Z M 11.96875 -32.546875 "/></g></g></g></svg>