<svg xmlns="http://www.w3.org/2000/svg" xmlns:xlink="http://www.w3.org/1999/xlink" width="500" zoomAndPan="magnify" viewBox="0 0 375 374.999991" height="500" preserveAspectRatio="xMidYMid meet" version="1.0"><defs><g/><clipPath id="5d2883bc48"><path d="M 50.359375 37.5 L 194 37.5 L 194 182 L 50.359375 182 Z M 50.359375 37.5 " clip-rule="nonzero"/></clipPath><clipPath id="e7c5478146"><path d="M 50.359375 181 L 194 181 L 194 324.75 L 50.359375 324.75 Z M 50.359375 181 " clip-rule="nonzero"/></clipPath><clipPath id="7a59bcd9c6"><path d="M 193 181 L 337.609375 181 L 337.609375 324.75 L 193 324.75 Z M 193 181 " clip-rule="nonzero"/></clipPath><clipPath id="2560f1398b"><path d="M 193 37.5 L 337.609375 37.5 L 337.609375 182 L 193 182 Z M 193 37.5 " clip-rule="nonzero"/></clipPath></defs><g clip-path="url(#5d2883bc48)"><path fill="#8dd9dd" d="M 193.925781 181.066406 L 50.359375 181.066406 C 50.359375 101.777344 114.636719 37.5 193.925781 37.5 Z M 193.925781 181.066406 " fill-opacity="1" fill-rule="nonzero"/></g><g clip-path="url(#e7c5478146)"><path fill="#fdbae3" d="M 193.925781 181.066406 L 193.925781 324.632812 C 114.636719 324.632812 50.359375 260.355469 50.359375 181.066406 Z M 193.925781 181.066406 " fill-opacity="1" fill-rule="nonzero"/></g><g clip-path="url(#7a59bcd9c6)"><path fill="#91a8e0" d="M 193.925781 181.066406 L 337.492188 181.066406 C 337.492188 260.355469 273.214844 324.632812 193.925781 324.632812 Z M 193.925781 181.066406 " fill-opacity="1" fill-rule="nonzero"/></g><g clip-path="url(#2560f1398b)"><path fill="#b7cce9" d="M 193.925781 181.066406 L 193.925781 37.5 C 273.214844 37.5 337.492188 101.777344 337.492188 181.066406 Z M 193.925781 181.066406 " fill-opacity="1" fill-rule="nonzero"/></g><g fill="#fafdfd" fill-opacity="1"><g transform="translate(85.591507, 244.968807)"><g><path d="M 10.53125 -9.65625 L 9.828125 -6 L 12.875 -6 L 12.875 -4.625 L 9.578125 -4.625 L 8.671875 0 L 7.203125 0 L 8.09375 -4.625 L 4.84375 -4.625 L 3.96875 0 L 2.5 0 L 3.359375 -4.625 L 0.546875 -4.625 L 0.546875 -6 L 3.625 -6 L 4.359375 -9.65625 L 1.390625 -9.65625 L 1.390625 -11.015625 L 4.59375 -11.015625 L 5.484375 -15.703125 L 6.96875 -15.703125 L 6.09375 -11.015625 L 9.375 -11.015625 L 10.265625 -15.703125 L 11.703125 -15.703125 L 10.8125 -11.015625 L 13.640625 -11.015625 L 13.640625 -9.65625 Z M 5.109375 -6 L 8.359375 -6 L 9.0625 -9.65625 L 5.8125 -9.65625 Z M 5.109375 -6 "/></g></g></g><g fill="#fafdfd" fill-opacity="1"><g transform="translate(99.800903, 244.968807)"><g><path d="M 7.203125 -10.390625 L 4.203125 -10.390625 L 4.203125 0 L 2.421875 0 L 2.421875 -10.390625 L 0.3125 -10.390625 L 0.3125 -11.1875 L 2.421875 -11.84375 L 2.421875 -12.5 C 2.421875 -15.382812 3.679688 -16.828125 6.203125 -16.828125 C 6.828125 -16.828125 7.5625 -16.703125 8.40625 -16.453125 L 7.9375 -15.03125 C 7.25 -15.25 6.660156 -15.359375 6.171875 -15.359375 C 5.503906 -15.359375 5.007812 -15.132812 4.6875 -14.6875 C 4.363281 -14.238281 4.203125 -13.519531 4.203125 -12.53125 L 4.203125 -11.78125 L 7.203125 -11.78125 Z M 7.203125 -10.390625 "/></g></g></g><g fill="#fafdfd" fill-opacity="1"><g transform="translate(107.254656, 244.968807)"><g><path d="M 9.90625 -1.578125 L 9.8125 -1.578125 C 8.988281 -0.378906 7.753906 0.21875 6.109375 0.21875 C 4.566406 0.21875 3.367188 -0.304688 2.515625 -1.359375 C 1.660156 -2.410156 1.234375 -3.910156 1.234375 -5.859375 C 1.234375 -7.796875 1.660156 -9.300781 2.515625 -10.375 C 3.378906 -11.445312 4.578125 -11.984375 6.109375 -11.984375 C 7.710938 -11.984375 8.9375 -11.40625 9.78125 -10.25 L 9.921875 -10.25 L 9.84375 -11.09375 L 9.8125 -11.921875 L 9.8125 -16.71875 L 11.59375 -16.71875 L 11.59375 0 L 10.140625 0 Z M 6.34375 -1.28125 C 7.5625 -1.28125 8.441406 -1.609375 8.984375 -2.265625 C 9.535156 -2.929688 9.8125 -4.003906 9.8125 -5.484375 L 9.8125 -5.859375 C 9.8125 -7.523438 9.53125 -8.710938 8.96875 -9.421875 C 8.414062 -10.140625 7.53125 -10.5 6.3125 -10.5 C 5.269531 -10.5 4.46875 -10.09375 3.90625 -9.28125 C 3.351562 -8.46875 3.078125 -7.316406 3.078125 -5.828125 C 3.078125 -4.328125 3.351562 -3.191406 3.90625 -2.421875 C 4.457031 -1.660156 5.269531 -1.28125 6.34375 -1.28125 Z M 6.34375 -1.28125 "/></g></g></g><g fill="#fafdfd" fill-opacity="1"><g transform="translate(120.733713, 244.968807)"><g><path d="M 7.375 -11.96875 C 8.914062 -11.96875 10.113281 -11.4375 10.96875 -10.375 C 11.820312 -9.320312 12.25 -7.828125 12.25 -5.890625 C 12.25 -3.960938 11.816406 -2.460938 10.953125 -1.390625 C 10.097656 -0.316406 8.90625 0.21875 7.375 0.21875 C 6.601562 0.21875 5.898438 0.078125 5.265625 -0.203125 C 4.628906 -0.492188 4.097656 -0.929688 3.671875 -1.515625 L 3.546875 -1.515625 L 3.171875 0 L 1.890625 0 L 1.890625 -16.71875 L 3.671875 -16.71875 L 3.671875 -12.65625 C 3.671875 -11.75 3.644531 -10.929688 3.59375 -10.203125 L 3.671875 -10.203125 C 4.503906 -11.378906 5.738281 -11.96875 7.375 -11.96875 Z M 7.109375 -10.46875 C 5.890625 -10.46875 5.007812 -10.117188 4.46875 -9.421875 C 3.9375 -8.722656 3.671875 -7.546875 3.671875 -5.890625 C 3.671875 -4.242188 3.945312 -3.0625 4.5 -2.34375 C 5.050781 -1.632812 5.9375 -1.28125 7.15625 -1.28125 C 8.25 -1.28125 9.0625 -1.675781 9.59375 -2.46875 C 10.132812 -3.269531 10.40625 -4.421875 10.40625 -5.921875 C 10.40625 -7.453125 10.132812 -8.59375 9.59375 -9.34375 C 9.0625 -10.09375 8.234375 -10.46875 7.109375 -10.46875 Z M 7.109375 -10.46875 "/></g></g></g><g fill="#fafdfd" fill-opacity="1"><g transform="translate(134.212769, 244.968807)"><g><path d="M 9.125 0 L 8.78125 -1.671875 L 8.6875 -1.671875 C 8.101562 -0.929688 7.519531 -0.429688 6.9375 -0.171875 C 6.351562 0.0859375 5.625 0.21875 4.75 0.21875 C 3.582031 0.21875 2.664062 -0.0820312 2 -0.6875 C 1.34375 -1.289062 1.015625 -2.144531 1.015625 -3.25 C 1.015625 -5.632812 2.914062 -6.882812 6.71875 -7 L 8.71875 -7.0625 L 8.71875 -7.78125 C 8.71875 -8.707031 8.515625 -9.390625 8.109375 -9.828125 C 7.710938 -10.273438 7.078125 -10.5 6.203125 -10.5 C 5.222656 -10.5 4.113281 -10.195312 2.875 -9.59375 L 2.328125 -10.953125 C 2.910156 -11.273438 3.546875 -11.523438 4.234375 -11.703125 C 4.929688 -11.878906 5.625 -11.96875 6.3125 -11.96875 C 7.71875 -11.96875 8.757812 -11.65625 9.4375 -11.03125 C 10.113281 -10.40625 10.453125 -9.40625 10.453125 -8.03125 L 10.453125 0 Z M 5.109375 -1.25 C 6.210938 -1.25 7.082031 -1.550781 7.71875 -2.15625 C 8.351562 -2.769531 8.671875 -3.628906 8.671875 -4.734375 L 8.671875 -5.796875 L 6.890625 -5.71875 C 5.472656 -5.664062 4.445312 -5.441406 3.8125 -5.046875 C 3.1875 -4.660156 2.875 -4.054688 2.875 -3.234375 C 2.875 -2.585938 3.066406 -2.09375 3.453125 -1.75 C 3.847656 -1.414062 4.398438 -1.25 5.109375 -1.25 Z M 5.109375 -1.25 "/></g></g></g><g fill="#fafdfd" fill-opacity="1"><g transform="translate(146.445953, 244.968807)"><g><path d="M 6.859375 0.21875 C 5.117188 0.21875 3.742188 -0.3125 2.734375 -1.375 C 1.734375 -2.4375 1.234375 -3.910156 1.234375 -5.796875 C 1.234375 -7.691406 1.703125 -9.195312 2.640625 -10.3125 C 3.578125 -11.425781 4.832031 -11.984375 6.40625 -11.984375 C 7.875 -11.984375 9.035156 -11.5 9.890625 -10.53125 C 10.753906 -9.5625 11.1875 -8.28125 11.1875 -6.6875 L 11.1875 -5.5625 L 3.078125 -5.5625 C 3.117188 -4.175781 3.46875 -3.125 4.125 -2.40625 C 4.789062 -1.695312 5.722656 -1.34375 6.921875 -1.34375 C 8.191406 -1.34375 9.445312 -1.609375 10.6875 -2.140625 L 10.6875 -0.546875 C 10.0625 -0.273438 9.46875 -0.0820312 8.90625 0.03125 C 8.34375 0.15625 7.660156 0.21875 6.859375 0.21875 Z M 6.375 -10.5 C 5.4375 -10.5 4.6875 -10.1875 4.125 -9.5625 C 3.5625 -8.945312 3.226562 -8.097656 3.125 -7.015625 L 9.28125 -7.015625 C 9.28125 -8.140625 9.03125 -9 8.53125 -9.59375 C 8.03125 -10.195312 7.3125 -10.5 6.375 -10.5 Z M 6.375 -10.5 "/></g></g></g><g fill="#fafdfd" fill-opacity="1"><g transform="translate(158.786539, 244.968807)"><g><path d="M 10.8125 -12.015625 C 10.8125 -11.003906 10.53125 -10.179688 9.96875 -9.546875 C 9.40625 -8.910156 8.609375 -8.484375 7.578125 -8.265625 L 7.578125 -8.1875 C 8.835938 -8.03125 9.769531 -7.628906 10.375 -6.984375 C 10.988281 -6.335938 11.296875 -5.492188 11.296875 -4.453125 C 11.296875 -2.953125 10.773438 -1.796875 9.734375 -0.984375 C 8.691406 -0.179688 7.21875 0.21875 5.3125 0.21875 C 4.476562 0.21875 3.710938 0.15625 3.015625 0.03125 C 2.328125 -0.09375 1.660156 -0.316406 1.015625 -0.640625 L 1.015625 -2.328125 C 1.691406 -1.992188 2.414062 -1.738281 3.1875 -1.5625 C 3.957031 -1.382812 4.6875 -1.296875 5.375 -1.296875 C 8.082031 -1.296875 9.4375 -2.359375 9.4375 -4.484375 C 9.4375 -6.390625 7.941406 -7.34375 4.953125 -7.34375 L 3.40625 -7.34375 L 3.40625 -8.890625 L 4.96875 -8.890625 C 6.195312 -8.890625 7.164062 -9.15625 7.875 -9.6875 C 8.59375 -10.226562 8.953125 -10.984375 8.953125 -11.953125 C 8.953125 -12.710938 8.6875 -13.3125 8.15625 -13.75 C 7.632812 -14.1875 6.925781 -14.40625 6.03125 -14.40625 C 5.34375 -14.40625 4.691406 -14.3125 4.078125 -14.125 C 3.472656 -13.9375 2.78125 -13.59375 2 -13.09375 L 1.09375 -14.296875 C 1.738281 -14.804688 2.484375 -15.207031 3.328125 -15.5 C 4.171875 -15.789062 5.054688 -15.9375 5.984375 -15.9375 C 7.503906 -15.9375 8.6875 -15.585938 9.53125 -14.890625 C 10.382812 -14.191406 10.8125 -13.234375 10.8125 -12.015625 Z M 10.8125 -12.015625 "/></g></g></g><g fill="#fafdfd" fill-opacity="1"><g transform="translate(78.346171, 136.850441)"><g><path d="M 10.53125 -9.65625 L 9.828125 -6 L 12.875 -6 L 12.875 -4.625 L 9.578125 -4.625 L 8.671875 0 L 7.203125 0 L 8.09375 -4.625 L 4.84375 -4.625 L 3.96875 0 L 2.5 0 L 3.359375 -4.625 L 0.546875 -4.625 L 0.546875 -6 L 3.625 -6 L 4.359375 -9.65625 L 1.390625 -9.65625 L 1.390625 -11.015625 L 4.59375 -11.015625 L 5.484375 -15.703125 L 6.96875 -15.703125 L 6.09375 -11.015625 L 9.375 -11.015625 L 10.265625 -15.703125 L 11.703125 -15.703125 L 10.8125 -11.015625 L 13.640625 -11.015625 L 13.640625 -9.65625 Z M 5.109375 -6 L 8.359375 -6 L 9.0625 -9.65625 L 5.8125 -9.65625 Z M 5.109375 -6 "/></g></g></g><g fill="#fafdfd" fill-opacity="1"><g transform="translate(92.555567, 136.850441)"><g><path d="M 6.28125 -15.9375 C 7.707031 -15.9375 8.835938 -15.601562 9.671875 -14.9375 C 10.515625 -14.269531 10.9375 -13.347656 10.9375 -12.171875 C 10.9375 -11.398438 10.695312 -10.691406 10.21875 -10.046875 C 9.738281 -9.410156 8.972656 -8.832031 7.921875 -8.3125 C 9.191406 -7.707031 10.09375 -7.066406 10.625 -6.390625 C 11.164062 -5.722656 11.4375 -4.953125 11.4375 -4.078125 C 11.4375 -2.765625 10.984375 -1.71875 10.078125 -0.9375 C 9.171875 -0.164062 7.925781 0.21875 6.34375 0.21875 C 4.664062 0.21875 3.375 -0.144531 2.46875 -0.875 C 1.570312 -1.613281 1.125 -2.65625 1.125 -4 C 1.125 -5.800781 2.21875 -7.203125 4.40625 -8.203125 C 3.414062 -8.765625 2.707031 -9.367188 2.28125 -10.015625 C 1.851562 -10.660156 1.640625 -11.382812 1.640625 -12.1875 C 1.640625 -13.332031 2.054688 -14.242188 2.890625 -14.921875 C 3.734375 -15.597656 4.863281 -15.9375 6.28125 -15.9375 Z M 2.875 -3.96875 C 2.875 -3.101562 3.171875 -2.429688 3.765625 -1.953125 C 4.367188 -1.472656 5.210938 -1.234375 6.296875 -1.234375 C 7.359375 -1.234375 8.1875 -1.484375 8.78125 -1.984375 C 9.375 -2.484375 9.671875 -3.171875 9.671875 -4.046875 C 9.671875 -4.742188 9.390625 -5.363281 8.828125 -5.90625 C 8.273438 -6.445312 7.304688 -6.972656 5.921875 -7.484375 C 4.847656 -7.023438 4.070312 -6.515625 3.59375 -5.953125 C 3.113281 -5.398438 2.875 -4.738281 2.875 -3.96875 Z M 6.25 -14.484375 C 5.351562 -14.484375 4.648438 -14.265625 4.140625 -13.828125 C 3.640625 -13.398438 3.390625 -12.832031 3.390625 -12.125 C 3.390625 -11.457031 3.597656 -10.890625 4.015625 -10.421875 C 4.441406 -9.953125 5.222656 -9.476562 6.359375 -9 C 7.378906 -9.425781 8.101562 -9.882812 8.53125 -10.375 C 8.957031 -10.875 9.171875 -11.457031 9.171875 -12.125 C 9.171875 -12.84375 8.910156 -13.414062 8.390625 -13.84375 C 7.867188 -14.269531 7.15625 -14.484375 6.25 -14.484375 Z M 6.25 -14.484375 "/></g></g></g><g fill="#fafdfd" fill-opacity="1"><g transform="translate(105.13244, 136.850441)"><g><path d="M 9.90625 -1.578125 L 9.8125 -1.578125 C 8.988281 -0.378906 7.753906 0.21875 6.109375 0.21875 C 4.566406 0.21875 3.367188 -0.304688 2.515625 -1.359375 C 1.660156 -2.410156 1.234375 -3.910156 1.234375 -5.859375 C 1.234375 -7.796875 1.660156 -9.300781 2.515625 -10.375 C 3.378906 -11.445312 4.578125 -11.984375 6.109375 -11.984375 C 7.710938 -11.984375 8.9375 -11.40625 9.78125 -10.25 L 9.921875 -10.25 L 9.84375 -11.09375 L 9.8125 -11.921875 L 9.8125 -16.71875 L 11.59375 -16.71875 L 11.59375 0 L 10.140625 0 Z M 6.34375 -1.28125 C 7.5625 -1.28125 8.441406 -1.609375 8.984375 -2.265625 C 9.535156 -2.929688 9.8125 -4.003906 9.8125 -5.484375 L 9.8125 -5.859375 C 9.8125 -7.523438 9.53125 -8.710938 8.96875 -9.421875 C 8.414062 -10.140625 7.53125 -10.5 6.3125 -10.5 C 5.269531 -10.5 4.46875 -10.09375 3.90625 -9.28125 C 3.351562 -8.46875 3.078125 -7.316406 3.078125 -5.828125 C 3.078125 -4.328125 3.351562 -3.191406 3.90625 -2.421875 C 4.457031 -1.660156 5.269531 -1.28125 6.34375 -1.28125 Z M 6.34375 -1.28125 "/></g></g></g><g fill="#fafdfd" fill-opacity="1"><g transform="translate(118.611496, 136.850441)"><g><path d="M 9.90625 -1.578125 L 9.8125 -1.578125 C 8.988281 -0.378906 7.753906 0.21875 6.109375 0.21875 C 4.566406 0.21875 3.367188 -0.304688 2.515625 -1.359375 C 1.660156 -2.410156 1.234375 -3.910156 1.234375 -5.859375 C 1.234375 -7.796875 1.660156 -9.300781 2.515625 -10.375 C 3.378906 -11.445312 4.578125 -11.984375 6.109375 -11.984375 C 7.710938 -11.984375 8.9375 -11.40625 9.78125 -10.25 L 9.921875 -10.25 L 9.84375 -11.09375 L 9.8125 -11.921875 L 9.8125 -16.71875 L 11.59375 -16.71875 L 11.59375 0 L 10.140625 0 Z M 6.34375 -1.28125 C 7.5625 -1.28125 8.441406 -1.609375 8.984375 -2.265625 C 9.535156 -2.929688 9.8125 -4.003906 9.8125 -5.484375 L 9.8125 -5.859375 C 9.8125 -7.523438 9.53125 -8.710938 8.96875 -9.421875 C 8.414062 -10.140625 7.53125 -10.5 6.3125 -10.5 C 5.269531 -10.5 4.46875 -10.09375 3.90625 -9.28125 C 3.351562 -8.46875 3.078125 -7.316406 3.078125 -5.828125 C 3.078125 -4.328125 3.351562 -3.191406 3.90625 -2.421875 C 4.457031 -1.660156 5.269531 -1.28125 6.34375 -1.28125 Z M 6.34375 -1.28125 "/></g></g></g><g fill="#fafdfd" fill-opacity="1"><g transform="translate(132.090552, 136.850441)"><g><path d="M 11.390625 -9 C 11.390625 -2.851562 9.015625 0.21875 4.265625 0.21875 C 3.429688 0.21875 2.769531 0.144531 2.28125 0 L 2.28125 -1.53125 C 2.851562 -1.34375 3.507812 -1.25 4.25 -1.25 C 5.96875 -1.25 7.265625 -1.78125 8.140625 -2.84375 C 9.015625 -3.914062 9.492188 -5.550781 9.578125 -7.75 L 9.4375 -7.75 C 9.050781 -7.15625 8.53125 -6.703125 7.875 -6.390625 C 7.21875 -6.078125 6.484375 -5.921875 5.671875 -5.921875 C 4.285156 -5.921875 3.179688 -6.332031 2.359375 -7.15625 C 1.546875 -7.988281 1.140625 -9.148438 1.140625 -10.640625 C 1.140625 -12.273438 1.59375 -13.566406 2.5 -14.515625 C 3.414062 -15.460938 4.617188 -15.9375 6.109375 -15.9375 C 7.179688 -15.9375 8.113281 -15.660156 8.90625 -15.109375 C 9.707031 -14.554688 10.320312 -13.753906 10.75 -12.703125 C 11.175781 -11.660156 11.390625 -10.425781 11.390625 -9 Z M 6.109375 -14.40625 C 5.085938 -14.40625 4.296875 -14.070312 3.734375 -13.40625 C 3.179688 -12.75 2.90625 -11.835938 2.90625 -10.671875 C 2.90625 -9.640625 3.160156 -8.828125 3.671875 -8.234375 C 4.191406 -7.640625 4.976562 -7.34375 6.03125 -7.34375 C 6.675781 -7.34375 7.269531 -7.472656 7.8125 -7.734375 C 8.363281 -8.003906 8.796875 -8.367188 9.109375 -8.828125 C 9.429688 -9.285156 9.59375 -9.765625 9.59375 -10.265625 C 9.59375 -11.015625 9.445312 -11.707031 9.15625 -12.34375 C 8.863281 -12.988281 8.453125 -13.492188 7.921875 -13.859375 C 7.398438 -14.222656 6.796875 -14.40625 6.109375 -14.40625 Z M 6.109375 -14.40625 "/></g></g></g><g fill="#fafdfd" fill-opacity="1"><g transform="translate(144.667425, 136.850441)"><g><path d="M 9.90625 -1.578125 L 9.8125 -1.578125 C 8.988281 -0.378906 7.753906 0.21875 6.109375 0.21875 C 4.566406 0.21875 3.367188 -0.304688 2.515625 -1.359375 C 1.660156 -2.410156 1.234375 -3.910156 1.234375 -5.859375 C 1.234375 -7.796875 1.660156 -9.300781 2.515625 -10.375 C 3.378906 -11.445312 4.578125 -11.984375 6.109375 -11.984375 C 7.710938 -11.984375 8.9375 -11.40625 9.78125 -10.25 L 9.921875 -10.25 L 9.84375 -11.09375 L 9.8125 -11.921875 L 9.8125 -16.71875 L 11.59375 -16.71875 L 11.59375 0 L 10.140625 0 Z M 6.34375 -1.28125 C 7.5625 -1.28125 8.441406 -1.609375 8.984375 -2.265625 C 9.535156 -2.929688 9.8125 -4.003906 9.8125 -5.484375 L 9.8125 -5.859375 C 9.8125 -7.523438 9.53125 -8.710938 8.96875 -9.421875 C 8.414062 -10.140625 7.53125 -10.5 6.3125 -10.5 C 5.269531 -10.5 4.46875 -10.09375 3.90625 -9.28125 C 3.351562 -8.46875 3.078125 -7.316406 3.078125 -5.828125 C 3.078125 -4.328125 3.351562 -3.191406 3.90625 -2.421875 C 4.457031 -1.660156 5.269531 -1.28125 6.34375 -1.28125 Z M 6.34375 -1.28125 "/></g></g></g><g fill="#fafdfd" fill-opacity="1"><g transform="translate(158.146481, 136.850441)"><g><path d="M 9.90625 -1.578125 L 9.8125 -1.578125 C 8.988281 -0.378906 7.753906 0.21875 6.109375 0.21875 C 4.566406 0.21875 3.367188 -0.304688 2.515625 -1.359375 C 1.660156 -2.410156 1.234375 -3.910156 1.234375 -5.859375 C 1.234375 -7.796875 1.660156 -9.300781 2.515625 -10.375 C 3.378906 -11.445312 4.578125 -11.984375 6.109375 -11.984375 C 7.710938 -11.984375 8.9375 -11.40625 9.78125 -10.25 L 9.921875 -10.25 L 9.84375 -11.09375 L 9.8125 -11.921875 L 9.8125 -16.71875 L 11.59375 -16.71875 L 11.59375 0 L 10.140625 0 Z M 6.34375 -1.28125 C 7.5625 -1.28125 8.441406 -1.609375 8.984375 -2.265625 C 9.535156 -2.929688 9.8125 -4.003906 9.8125 -5.484375 L 9.8125 -5.859375 C 9.8125 -7.523438 9.53125 -8.710938 8.96875 -9.421875 C 8.414062 -10.140625 7.53125 -10.5 6.3125 -10.5 C 5.269531 -10.5 4.46875 -10.09375 3.90625 -9.28125 C 3.351562 -8.46875 3.078125 -7.316406 3.078125 -5.828125 C 3.078125 -4.328125 3.351562 -3.191406 3.90625 -2.421875 C 4.457031 -1.660156 5.269531 -1.28125 6.34375 -1.28125 Z M 6.34375 -1.28125 "/></g></g></g><g fill="#fafdfd" fill-opacity="1"><g transform="translate(215.957378, 244.968807)"><g><path d="M 10.53125 -9.65625 L 9.828125 -6 L 12.875 -6 L 12.875 -4.625 L 9.578125 -4.625 L 8.671875 0 L 7.203125 0 L 8.09375 -4.625 L 4.84375 -4.625 L 3.96875 0 L 2.5 0 L 3.359375 -4.625 L 0.546875 -4.625 L 0.546875 -6 L 3.625 -6 L 4.359375 -9.65625 L 1.390625 -9.65625 L 1.390625 -11.015625 L 4.59375 -11.015625 L 5.484375 -15.703125 L 6.96875 -15.703125 L 6.09375 -11.015625 L 9.375 -11.015625 L 10.265625 -15.703125 L 11.703125 -15.703125 L 10.8125 -11.015625 L 13.640625 -11.015625 L 13.640625 -9.65625 Z M 5.109375 -6 L 8.359375 -6 L 9.0625 -9.65625 L 5.8125 -9.65625 Z M 5.109375 -6 "/></g></g></g><g fill="#fafdfd" fill-opacity="1"><g transform="translate(230.166773, 244.968807)"><g><path d="M 11.390625 -9 C 11.390625 -2.851562 9.015625 0.21875 4.265625 0.21875 C 3.429688 0.21875 2.769531 0.144531 2.28125 0 L 2.28125 -1.53125 C 2.851562 -1.34375 3.507812 -1.25 4.25 -1.25 C 5.96875 -1.25 7.265625 -1.78125 8.140625 -2.84375 C 9.015625 -3.914062 9.492188 -5.550781 9.578125 -7.75 L 9.4375 -7.75 C 9.050781 -7.15625 8.53125 -6.703125 7.875 -6.390625 C 7.21875 -6.078125 6.484375 -5.921875 5.671875 -5.921875 C 4.285156 -5.921875 3.179688 -6.332031 2.359375 -7.15625 C 1.546875 -7.988281 1.140625 -9.148438 1.140625 -10.640625 C 1.140625 -12.273438 1.59375 -13.566406 2.5 -14.515625 C 3.414062 -15.460938 4.617188 -15.9375 6.109375 -15.9375 C 7.179688 -15.9375 8.113281 -15.660156 8.90625 -15.109375 C 9.707031 -14.554688 10.320312 -13.753906 10.75 -12.703125 C 11.175781 -11.660156 11.390625 -10.425781 11.390625 -9 Z M 6.109375 -14.40625 C 5.085938 -14.40625 4.296875 -14.070312 3.734375 -13.40625 C 3.179688 -12.75 2.90625 -11.835938 2.90625 -10.671875 C 2.90625 -9.640625 3.160156 -8.828125 3.671875 -8.234375 C 4.191406 -7.640625 4.976562 -7.34375 6.03125 -7.34375 C 6.675781 -7.34375 7.269531 -7.472656 7.8125 -7.734375 C 8.363281 -8.003906 8.796875 -8.367188 9.109375 -8.828125 C 9.429688 -9.285156 9.59375 -9.765625 9.59375 -10.265625 C 9.59375 -11.015625 9.445312 -11.707031 9.15625 -12.34375 C 8.863281 -12.988281 8.453125 -13.492188 7.921875 -13.859375 C 7.398438 -14.222656 6.796875 -14.40625 6.109375 -14.40625 Z M 6.109375 -14.40625 "/></g></g></g><g fill="#fafdfd" fill-opacity="1"><g transform="translate(242.743646, 244.968807)"><g><path d="M 7.6875 0 L 5.9375 0 L 5.9375 -11.1875 C 5.9375 -12.125 5.96875 -13.007812 6.03125 -13.84375 C 5.875 -13.6875 5.703125 -13.523438 5.515625 -13.359375 C 5.335938 -13.191406 4.488281 -12.492188 2.96875 -11.265625 L 2.015625 -12.5 L 6.171875 -15.703125 L 7.6875 -15.703125 Z M 7.6875 0 "/></g></g></g><g fill="#fafdfd" fill-opacity="1"><g transform="translate(255.320519, 244.968807)"><g><path d="M 9.125 0 L 8.78125 -1.671875 L 8.6875 -1.671875 C 8.101562 -0.929688 7.519531 -0.429688 6.9375 -0.171875 C 6.351562 0.0859375 5.625 0.21875 4.75 0.21875 C 3.582031 0.21875 2.664062 -0.0820312 2 -0.6875 C 1.34375 -1.289062 1.015625 -2.144531 1.015625 -3.25 C 1.015625 -5.632812 2.914062 -6.882812 6.71875 -7 L 8.71875 -7.0625 L 8.71875 -7.78125 C 8.71875 -8.707031 8.515625 -9.390625 8.109375 -9.828125 C 7.710938 -10.273438 7.078125 -10.5 6.203125 -10.5 C 5.222656 -10.5 4.113281 -10.195312 2.875 -9.59375 L 2.328125 -10.953125 C 2.910156 -11.273438 3.546875 -11.523438 4.234375 -11.703125 C 4.929688 -11.878906 5.625 -11.96875 6.3125 -11.96875 C 7.71875 -11.96875 8.757812 -11.65625 9.4375 -11.03125 C 10.113281 -10.40625 10.453125 -9.40625 10.453125 -8.03125 L 10.453125 0 Z M 5.109375 -1.25 C 6.210938 -1.25 7.082031 -1.550781 7.71875 -2.15625 C 8.351562 -2.769531 8.671875 -3.628906 8.671875 -4.734375 L 8.671875 -5.796875 L 6.890625 -5.71875 C 5.472656 -5.664062 4.445312 -5.441406 3.8125 -5.046875 C 3.1875 -4.660156 2.875 -4.054688 2.875 -3.234375 C 2.875 -2.585938 3.066406 -2.09375 3.453125 -1.75 C 3.847656 -1.414062 4.398438 -1.25 5.109375 -1.25 Z M 5.109375 -1.25 "/></g></g></g><g fill="#fafdfd" fill-opacity="1"><g transform="translate(267.553703, 244.968807)"><g><path d="M 6.28125 -15.9375 C 7.707031 -15.9375 8.835938 -15.601562 9.671875 -14.9375 C 10.515625 -14.269531 10.9375 -13.347656 10.9375 -12.171875 C 10.9375 -11.398438 10.695312 -10.691406 10.21875 -10.046875 C 9.738281 -9.410156 8.972656 -8.832031 7.921875 -8.3125 C 9.191406 -7.707031 10.09375 -7.066406 10.625 -6.390625 C 11.164062 -5.722656 11.4375 -4.953125 11.4375 -4.078125 C 11.4375 -2.765625 10.984375 -1.71875 10.078125 -0.9375 C 9.171875 -0.164062 7.925781 0.21875 6.34375 0.21875 C 4.664062 0.21875 3.375 -0.144531 2.46875 -0.875 C 1.570312 -1.613281 1.125 -2.65625 1.125 -4 C 1.125 -5.800781 2.21875 -7.203125 4.40625 -8.203125 C 3.414062 -8.765625 2.707031 -9.367188 2.28125 -10.015625 C 1.851562 -10.660156 1.640625 -11.382812 1.640625 -12.1875 C 1.640625 -13.332031 2.054688 -14.242188 2.890625 -14.921875 C 3.734375 -15.597656 4.863281 -15.9375 6.28125 -15.9375 Z M 2.875 -3.96875 C 2.875 -3.101562 3.171875 -2.429688 3.765625 -1.953125 C 4.367188 -1.472656 5.210938 -1.234375 6.296875 -1.234375 C 7.359375 -1.234375 8.1875 -1.484375 8.78125 -1.984375 C 9.375 -2.484375 9.671875 -3.171875 9.671875 -4.046875 C 9.671875 -4.742188 9.390625 -5.363281 8.828125 -5.90625 C 8.273438 -6.445312 7.304688 -6.972656 5.921875 -7.484375 C 4.847656 -7.023438 4.070312 -6.515625 3.59375 -5.953125 C 3.113281 -5.398438 2.875 -4.738281 2.875 -3.96875 Z M 6.25 -14.484375 C 5.351562 -14.484375 4.648438 -14.265625 4.140625 -13.828125 C 3.640625 -13.398438 3.390625 -12.832031 3.390625 -12.125 C 3.390625 -11.457031 3.597656 -10.890625 4.015625 -10.421875 C 4.441406 -9.953125 5.222656 -9.476562 6.359375 -9 C 7.378906 -9.425781 8.101562 -9.882812 8.53125 -10.375 C 8.957031 -10.875 9.171875 -11.457031 9.171875 -12.125 C 9.171875 -12.84375 8.910156 -13.414062 8.390625 -13.84375 C 7.867188 -14.269531 7.15625 -14.484375 6.25 -14.484375 Z M 6.25 -14.484375 "/></g></g></g><g fill="#fafdfd" fill-opacity="1"><g transform="translate(280.130576, 244.968807)"><g><path d="M 6.859375 0.21875 C 5.117188 0.21875 3.742188 -0.3125 2.734375 -1.375 C 1.734375 -2.4375 1.234375 -3.910156 1.234375 -5.796875 C 1.234375 -7.691406 1.703125 -9.195312 2.640625 -10.3125 C 3.578125 -11.425781 4.832031 -11.984375 6.40625 -11.984375 C 7.875 -11.984375 9.035156 -11.5 9.890625 -10.53125 C 10.753906 -9.5625 11.1875 -8.28125 11.1875 -6.6875 L 11.1875 -5.5625 L 3.078125 -5.5625 C 3.117188 -4.175781 3.46875 -3.125 4.125 -2.40625 C 4.789062 -1.695312 5.722656 -1.34375 6.921875 -1.34375 C 8.191406 -1.34375 9.445312 -1.609375 10.6875 -2.140625 L 10.6875 -0.546875 C 10.0625 -0.273438 9.46875 -0.0820312 8.90625 0.03125 C 8.34375 0.15625 7.660156 0.21875 6.859375 0.21875 Z M 6.375 -10.5 C 5.4375 -10.5 4.6875 -10.1875 4.125 -9.5625 C 3.5625 -8.945312 3.226562 -8.097656 3.125 -7.015625 L 9.28125 -7.015625 C 9.28125 -8.140625 9.03125 -9 8.53125 -9.59375 C 8.03125 -10.195312 7.3125 -10.5 6.375 -10.5 Z M 6.375 -10.5 "/></g></g></g><g fill="#fafdfd" fill-opacity="1"><g transform="translate(292.471163, 244.968807)"><g><path d="M 11.484375 -7.875 C 11.484375 -5.15625 11.054688 -3.125 10.203125 -1.78125 C 9.347656 -0.445312 8.039062 0.21875 6.28125 0.21875 C 4.582031 0.21875 3.289062 -0.46875 2.40625 -1.84375 C 1.53125 -3.21875 1.09375 -5.226562 1.09375 -7.875 C 1.09375 -10.613281 1.519531 -12.644531 2.375 -13.96875 C 3.226562 -15.289062 4.53125 -15.953125 6.28125 -15.953125 C 7.976562 -15.953125 9.269531 -15.257812 10.15625 -13.875 C 11.039062 -12.5 11.484375 -10.5 11.484375 -7.875 Z M 2.90625 -7.875 C 2.90625 -5.59375 3.171875 -3.929688 3.703125 -2.890625 C 4.242188 -1.847656 5.101562 -1.328125 6.28125 -1.328125 C 7.46875 -1.328125 8.328125 -1.851562 8.859375 -2.90625 C 9.390625 -3.957031 9.65625 -5.613281 9.65625 -7.875 C 9.65625 -10.132812 9.390625 -11.785156 8.859375 -12.828125 C 8.328125 -13.878906 7.46875 -14.40625 6.28125 -14.40625 C 5.101562 -14.40625 4.242188 -13.882812 3.703125 -12.84375 C 3.171875 -11.8125 2.90625 -10.15625 2.90625 -7.875 Z M 2.90625 -7.875 "/></g></g></g><g fill="#fafdfd" fill-opacity="1"><g transform="translate(210.434684, 136.850441)"><g><path d="M 10.53125 -9.65625 L 9.828125 -6 L 12.875 -6 L 12.875 -4.625 L 9.578125 -4.625 L 8.671875 0 L 7.203125 0 L 8.09375 -4.625 L 4.84375 -4.625 L 3.96875 0 L 2.5 0 L 3.359375 -4.625 L 0.546875 -4.625 L 0.546875 -6 L 3.625 -6 L 4.359375 -9.65625 L 1.390625 -9.65625 L 1.390625 -11.015625 L 4.59375 -11.015625 L 5.484375 -15.703125 L 6.96875 -15.703125 L 6.09375 -11.015625 L 9.375 -11.015625 L 10.265625 -15.703125 L 11.703125 -15.703125 L 10.8125 -11.015625 L 13.640625 -11.015625 L 13.640625 -9.65625 Z M 5.109375 -6 L 8.359375 -6 L 9.0625 -9.65625 L 5.8125 -9.65625 Z M 5.109375 -6 "/></g></g></g><g fill="#fafdfd" fill-opacity="1"><g transform="translate(224.644079, 136.850441)"><g><path d="M 7.375 -11.96875 C 8.914062 -11.96875 10.113281 -11.4375 10.96875 -10.375 C 11.820312 -9.320312 12.25 -7.828125 12.25 -5.890625 C 12.25 -3.960938 11.816406 -2.460938 10.953125 -1.390625 C 10.097656 -0.316406 8.90625 0.21875 7.375 0.21875 C 6.601562 0.21875 5.898438 0.078125 5.265625 -0.203125 C 4.628906 -0.492188 4.097656 -0.929688 3.671875 -1.515625 L 3.546875 -1.515625 L 3.171875 0 L 1.890625 0 L 1.890625 -16.71875 L 3.671875 -16.71875 L 3.671875 -12.65625 C 3.671875 -11.75 3.644531 -10.929688 3.59375 -10.203125 L 3.671875 -10.203125 C 4.503906 -11.378906 5.738281 -11.96875 7.375 -11.96875 Z M 7.109375 -10.46875 C 5.890625 -10.46875 5.007812 -10.117188 4.46875 -9.421875 C 3.9375 -8.722656 3.671875 -7.546875 3.671875 -5.890625 C 3.671875 -4.242188 3.945312 -3.0625 4.5 -2.34375 C 5.050781 -1.632812 5.9375 -1.28125 7.15625 -1.28125 C 8.25 -1.28125 9.0625 -1.675781 9.59375 -2.46875 C 10.132812 -3.269531 10.40625 -4.421875 10.40625 -5.921875 C 10.40625 -7.453125 10.132812 -8.59375 9.59375 -9.34375 C 9.0625 -10.09375 8.234375 -10.46875 7.109375 -10.46875 Z M 7.109375 -10.46875 "/></g></g></g><g fill="#fafdfd" fill-opacity="1"><g transform="translate(238.123136, 136.850441)"><g><path d="M 3.0625 0 L 9.578125 -14.0625 L 1.015625 -14.0625 L 1.015625 -15.703125 L 11.46875 -15.703125 L 11.46875 -14.28125 L 5.03125 0 Z M 3.0625 0 "/></g></g></g><g fill="#fafdfd" fill-opacity="1"><g transform="translate(250.700009, 136.850441)"><g><path d="M 6.59375 0.21875 C 4.894531 0.21875 3.578125 -0.304688 2.640625 -1.359375 C 1.703125 -2.410156 1.234375 -3.894531 1.234375 -5.8125 C 1.234375 -7.78125 1.707031 -9.300781 2.65625 -10.375 C 3.601562 -11.445312 4.957031 -11.984375 6.71875 -11.984375 C 7.28125 -11.984375 7.84375 -11.921875 8.40625 -11.796875 C 8.976562 -11.679688 9.425781 -11.539062 9.75 -11.375 L 9.203125 -9.859375 C 8.804688 -10.015625 8.375 -10.144531 7.90625 -10.25 C 7.4375 -10.351562 7.023438 -10.40625 6.671875 -10.40625 C 4.273438 -10.40625 3.078125 -8.878906 3.078125 -5.828125 C 3.078125 -4.378906 3.367188 -3.269531 3.953125 -2.5 C 4.535156 -1.726562 5.398438 -1.34375 6.546875 -1.34375 C 7.535156 -1.34375 8.546875 -1.554688 9.578125 -1.984375 L 9.578125 -0.390625 C 8.785156 0.015625 7.789062 0.21875 6.59375 0.21875 Z M 6.59375 0.21875 "/></g></g></g><g fill="#fafdfd" fill-opacity="1"><g transform="translate(261.171787, 136.850441)"><g><path d="M 6.59375 0.21875 C 4.894531 0.21875 3.578125 -0.304688 2.640625 -1.359375 C 1.703125 -2.410156 1.234375 -3.894531 1.234375 -5.8125 C 1.234375 -7.78125 1.707031 -9.300781 2.65625 -10.375 C 3.601562 -11.445312 4.957031 -11.984375 6.71875 -11.984375 C 7.28125 -11.984375 7.84375 -11.921875 8.40625 -11.796875 C 8.976562 -11.679688 9.425781 -11.539062 9.75 -11.375 L 9.203125 -9.859375 C 8.804688 -10.015625 8.375 -10.144531 7.90625 -10.25 C 7.4375 -10.351562 7.023438 -10.40625 6.671875 -10.40625 C 4.273438 -10.40625 3.078125 -8.878906 3.078125 -5.828125 C 3.078125 -4.378906 3.367188 -3.269531 3.953125 -2.5 C 4.535156 -1.726562 5.398438 -1.34375 6.546875 -1.34375 C 7.535156 -1.34375 8.546875 -1.554688 9.578125 -1.984375 L 9.578125 -0.390625 C 8.785156 0.015625 7.789062 0.21875 6.59375 0.21875 Z M 6.59375 0.21875 "/></g></g></g><g fill="#fafdfd" fill-opacity="1"><g transform="translate(271.643565, 136.850441)"><g><path d="M 6.859375 0.21875 C 5.117188 0.21875 3.742188 -0.3125 2.734375 -1.375 C 1.734375 -2.4375 1.234375 -3.910156 1.234375 -5.796875 C 1.234375 -7.691406 1.703125 -9.195312 2.640625 -10.3125 C 3.578125 -11.425781 4.832031 -11.984375 6.40625 -11.984375 C 7.875 -11.984375 9.035156 -11.5 9.890625 -10.53125 C 10.753906 -9.5625 11.1875 -8.28125 11.1875 -6.6875 L 11.1875 -5.5625 L 3.078125 -5.5625 C 3.117188 -4.175781 3.46875 -3.125 4.125 -2.40625 C 4.789062 -1.695312 5.722656 -1.34375 6.921875 -1.34375 C 8.191406 -1.34375 9.445312 -1.609375 10.6875 -2.140625 L 10.6875 -0.546875 C 10.0625 -0.273438 9.46875 -0.0820312 8.90625 0.03125 C 8.34375 0.15625 7.660156 0.21875 6.859375 0.21875 Z M 6.375 -10.5 C 5.4375 -10.5 4.6875 -10.1875 4.125 -9.5625 C 3.5625 -8.945312 3.226562 -8.097656 3.125 -7.015625 L 9.28125 -7.015625 C 9.28125 -8.140625 9.03125 -9 8.53125 -9.59375 C 8.03125 -10.195312 7.3125 -10.5 6.375 -10.5 Z M 6.375 -10.5 "/></g></g></g><g fill="#fafdfd" fill-opacity="1"><g transform="translate(283.984152, 136.850441)"><g><path d="M 11.390625 -9 C 11.390625 -2.851562 9.015625 0.21875 4.265625 0.21875 C 3.429688 0.21875 2.769531 0.144531 2.28125 0 L 2.28125 -1.53125 C 2.851562 -1.34375 3.507812 -1.25 4.25 -1.25 C 5.96875 -1.25 7.265625 -1.78125 8.140625 -2.84375 C 9.015625 -3.914062 9.492188 -5.550781 9.578125 -7.75 L 9.4375 -7.75 C 9.050781 -7.15625 8.53125 -6.703125 7.875 -6.390625 C 7.21875 -6.078125 6.484375 -5.921875 5.671875 -5.921875 C 4.285156 -5.921875 3.179688 -6.332031 2.359375 -7.15625 C 1.546875 -7.988281 1.140625 -9.148438 1.140625 -10.640625 C 1.140625 -12.273438 1.59375 -13.566406 2.5 -14.515625 C 3.414062 -15.460938 4.617188 -15.9375 6.109375 -15.9375 C 7.179688 -15.9375 8.113281 -15.660156 8.90625 -15.109375 C 9.707031 -14.554688 10.320312 -13.753906 10.75 -12.703125 C 11.175781 -11.660156 11.390625 -10.425781 11.390625 -9 Z M 6.109375 -14.40625 C 5.085938 -14.40625 4.296875 -14.070312 3.734375 -13.40625 C 3.179688 -12.75 2.90625 -11.835938 2.90625 -10.671875 C 2.90625 -9.640625 3.160156 -8.828125 3.671875 -8.234375 C 4.191406 -7.640625 4.976562 -7.34375 6.03125 -7.34375 C 6.675781 -7.34375 7.269531 -7.472656 7.8125 -7.734375 C 8.363281 -8.003906 8.796875 -8.367188 9.109375 -8.828125 C 9.429688 -9.285156 9.59375 -9.765625 9.59375 -10.265625 C 9.59375 -11.015625 9.445312 -11.707031 9.15625 -12.34375 C 8.863281 -12.988281 8.453125 -13.492188 7.921875 -13.859375 C 7.398438 -14.222656 6.796875 -14.40625 6.109375 -14.40625 Z M 6.109375 -14.40625 "/></g></g></g></svg>