<svg xmlns="http://www.w3.org/2000/svg" xmlns:xlink="http://www.w3.org/1999/xlink" width="500" zoomAndPan="magnify" viewBox="0 0 375 374.999991" height="500" preserveAspectRatio="xMidYMid meet" version="1.0"><defs><g/><clipPath id="fce7bf3584"><path d="M 159.289062 199.640625 L 269.097656 199.640625 L 269.097656 309.140625 L 159.289062 309.140625 Z M 159.289062 199.640625 " clip-rule="nonzero"/></clipPath><clipPath id="e5cd56193d"><path d="M 162.457031 199.640625 L 272.265625 199.640625 L 272.265625 309.140625 L 162.457031 309.140625 Z M 162.457031 199.640625 " clip-rule="nonzero"/></clipPath></defs><g clip-path="url(#fce7bf3584)"><path fill="#545454" d="M 233.183594 252.9375 C 228.734375 252.804688 224.160156 252.667969 219.53125 252.523438 C 222.652344 249.585938 225.746094 246.675781 228.753906 243.839844 C 228.753906 243.839844 243.789062 241.941406 244 243.8125 C 244.214844 245.6875 233.183594 252.9375 233.183594 252.9375 Z M 242.75 267.734375 C 241.566406 269.210938 228.644531 266.535156 228.644531 266.535156 L 228.644531 266.707031 C 225.632812 263.507812 222.535156 260.21875 219.398438 256.890625 C 223.785156 257.023438 228.125 257.152344 232.347656 257.285156 C 234.351562 258.863281 243.804688 266.417969 242.75 267.734375 Z M 224.949219 283.761719 C 223.078125 283.980469 215.824219 272.941406 215.824219 272.941406 C 215.949219 268.6875 216.082031 264.308594 216.21875 259.882812 C 219.195312 263.042969 222.140625 266.171875 225.007812 269.214844 C 225.351562 272.179688 226.578125 283.582031 224.949219 283.761719 Z M 216.902344 237.070312 L 217.210938 236.808594 C 217.210938 236.808594 226.5 224.835938 227.976562 226.007812 C 229.273438 227.054688 227.34375 237.238281 226.875 239.613281 C 223.511719 242.777344 220.046875 246.042969 216.53125 249.351562 C 216.65625 245.199219 216.78125 241.082031 216.902344 237.070312 Z M 212.171875 249.214844 C 209.417969 246.292969 206.6875 243.390625 204.023438 240.566406 L 204.078125 240.003906 C 204.078125 240.003906 202.175781 224.972656 204.050781 224.757812 C 205.613281 224.585938 210.867188 232.15625 212.601562 234.734375 C 212.464844 239.433594 212.316406 244.292969 212.171875 249.214844 Z M 211.484375 272.105469 C 209.90625 274.109375 202.347656 283.5625 201.027344 282.515625 C 199.726562 281.476562 201.65625 271.292969 202.128906 268.917969 C 205.292969 265.929688 208.554688 262.859375 211.855469 259.753906 C 211.730469 263.933594 211.601562 268.074219 211.484375 272.105469 Z M 200.246094 264.6875 C 200.246094 264.6875 185.210938 266.589844 184.996094 264.710938 C 184.824219 263.152344 192.398438 257.898438 194.96875 256.160156 C 199.484375 256.296875 204.144531 256.433594 208.859375 256.574219 C 205.953125 259.316406 203.066406 262.035156 200.25 264.6875 Z M 186.25 240.792969 C 187.207031 239.59375 195.898438 241.132812 199.144531 241.753906 C 202.339844 245.148438 205.648438 248.65625 208.992188 252.210938 C 205.042969 252.09375 201.125 251.972656 197.300781 251.859375 L 197.046875 251.554688 C 197.046875 251.554688 185.074219 242.265625 186.25 240.792969 Z M 267.402344 254.457031 C 266.242188 254.269531 261.863281 253.976562 260.5625 253.769531 C 259.261719 253.566406 257.867188 253.742188 256.4375 253.628906 C 255.636719 253.605469 254.78125 253.585938 253.953125 253.558594 C 254.789062 252.769531 255.660156 251.949219 256.535156 251.125 C 258.59375 249.183594 260.660156 247.246094 262.203125 245.789062 C 262.34375 245.554688 263.945312 244.167969 262.925781 242.589844 C 261.90625 241.007812 259.953125 242.238281 259.210938 242.609375 C 258.46875 242.980469 255.601562 246.007812 253.542969 247.945312 C 251.484375 249.886719 249.417969 251.832031 247.875 253.285156 C 247.847656 253.328125 247.804688 253.34375 247.761719 253.375 C 245.179688 253.296875 242.476562 253.214844 239.691406 253.132812 C 244.28125 249.972656 251.1875 244.683594 250.464844 241.878906 C 249.671875 238.828125 239.144531 239.011719 233.546875 239.328125 C 235.8125 237.191406 238.003906 235.128906 240.09375 233.160156 C 240.140625 233.164062 240.191406 233.140625 240.242188 233.152344 C 242.355469 233.214844 245.1875 233.300781 248.015625 233.386719 C 250.847656 233.46875 254.992188 233.839844 255.800781 233.621094 C 256.605469 233.402344 258.886719 233.03125 258.59375 231.171875 C 258.3125 229.320312 256.1875 229.335938 255.933594 229.257812 C 253.8125 229.199219 250.980469 229.109375 248.152344 229.027344 C 246.949219 228.988281 245.753906 228.953125 244.601562 228.917969 C 245.207031 228.347656 245.832031 227.761719 246.410156 227.214844 C 247.414062 226.183594 248.5625 225.390625 249.410156 224.378906 C 250.246094 223.355469 253.324219 220.230469 254.074219 219.320312 C 255.574219 217.507812 253.65625 215.46875 251.753906 216.859375 C 250.804688 217.550781 247.5 220.4375 246.425781 221.210938 C 245.363281 221.992188 244.507812 223.097656 243.417969 224.035156 C 242.832031 224.582031 242.214844 225.167969 241.605469 225.738281 C 241.640625 224.585938 241.683594 223.394531 241.714844 222.195312 C 241.796875 219.363281 241.882812 216.535156 241.945312 214.410156 C 241.882812 214.140625 242.03125 212.035156 240.191406 211.632812 C 238.359375 211.234375 237.851562 213.488281 237.589844 214.277344 C 237.320312 215.070312 237.441406 219.230469 237.347656 222.0625 C 237.269531 224.890625 237.183594 227.71875 237.121094 229.84375 C 237.128906 229.890625 237.105469 229.9375 237.101562 229.984375 C 235.339844 231.644531 233.5 233.378906 231.601562 235.160156 C 232.59375 229.671875 233.597656 221.503906 231.171875 220.074219 C 228.378906 218.433594 220.726562 226.484375 217.097656 230.578125 C 217.195312 227.300781 217.292969 224.128906 217.382812 221.117188 C 217.414062 221.082031 217.433594 221.03125 217.480469 221.011719 C 219.023438 219.558594 221.089844 217.613281 223.148438 215.675781 C 225.207031 213.734375 228.394531 211.0625 228.808594 210.335938 C 229.230469 209.617188 230.570312 207.738281 229.058594 206.632812 C 227.542969 205.519531 226.058594 207.023438 225.816406 207.160156 C 224.273438 208.613281 222.210938 210.554688 220.15625 212.492188 C 219.277344 213.316406 218.40625 214.140625 217.566406 214.929688 C 217.589844 214.097656 217.621094 213.242188 217.644531 212.445312 C 217.621094 211.007812 217.878906 209.628906 217.757812 208.320312 C 217.628906 207 217.597656 202.617188 217.484375 201.449219 C 217.261719 199.105469 214.460938 199.015625 214.101562 201.34375 C 213.917969 202.507812 213.628906 206.882812 213.417969 208.1875 C 213.210938 209.488281 213.390625 210.875 213.28125 212.3125 C 213.257812 213.105469 213.226562 213.960938 213.207031 214.796875 C 212.417969 213.957031 211.597656 213.089844 210.777344 212.210938 C 208.832031 210.15625 206.890625 208.089844 205.429688 206.546875 C 205.199219 206.402344 203.816406 204.808594 202.234375 205.820312 C 200.648438 206.839844 201.886719 208.789062 202.257812 209.539062 C 202.628906 210.28125 205.652344 213.144531 207.597656 215.203125 C 209.535156 217.265625 211.472656 219.324219 212.933594 220.875 C 212.972656 220.90625 212.992188 220.949219 213.019531 220.984375 C 212.945312 223.320312 212.871094 225.753906 212.800781 228.253906 C 209.605469 223.707031 204.757812 217.621094 202.113281 218.304688 C 198.9375 219.125 199.269531 230.492188 199.601562 235.867188 C 197.246094 233.367188 194.96875 230.945312 192.808594 228.652344 C 192.8125 228.609375 192.785156 228.566406 192.800781 228.511719 C 192.863281 226.390625 192.945312 223.558594 193.035156 220.730469 C 193.117188 217.90625 193.484375 213.753906 193.265625 212.953125 C 193.050781 212.144531 192.675781 209.863281 190.820312 210.15625 C 188.960938 210.445312 188.980469 212.554688 188.902344 212.820312 C 188.839844 214.945312 188.757812 217.773438 188.671875 220.597656 C 188.636719 221.804688 188.601562 223 188.566406 224.152344 C 187.996094 223.542969 187.410156 222.921875 186.863281 222.335938 C 185.824219 221.335938 185.039062 220.183594 184.023438 219.34375 C 183 218.503906 179.878906 215.425781 178.972656 214.675781 C 177.15625 213.179688 175.117188 215.097656 176.507812 216.996094 C 177.199219 217.953125 180.089844 221.25 180.859375 222.320312 C 181.636719 223.386719 182.742188 224.246094 183.683594 225.332031 C 184.226562 225.910156 184.816406 226.535156 185.386719 227.140625 C 184.234375 227.109375 183.042969 227.074219 181.839844 227.035156 C 179.007812 226.957031 176.179688 226.867188 174.054688 226.804688 C 173.792969 226.871094 171.6875 226.722656 171.28125 228.554688 C 170.882812 230.390625 173.136719 230.898438 173.925781 231.167969 C 174.714844 231.433594 178.878906 231.316406 181.707031 231.402344 C 184.539062 231.484375 187.363281 231.570312 189.488281 231.636719 C 189.539062 231.621094 189.585938 231.644531 189.628906 231.644531 C 191.261719 233.382812 192.960938 235.1875 194.707031 237.039062 C 189.25 236.097656 181.691406 235.273438 180.316406 237.597656 C 178.675781 240.386719 186.722656 248.042969 190.8125 251.667969 C 187.324219 251.558594 183.960938 251.460938 180.761719 251.367188 C 180.730469 251.332031 180.679688 251.3125 180.660156 251.269531 C 179.203125 249.726562 177.261719 247.664062 175.320312 245.605469 C 173.378906 243.542969 170.703125 240.347656 169.984375 239.9375 C 169.261719 239.515625 167.386719 238.175781 166.277344 239.6875 C 165.167969 241.207031 166.675781 242.683594 166.804688 242.929688 C 168.257812 244.472656 170.199219 246.535156 172.140625 248.597656 C 172.96875 249.476562 173.785156 250.34375 174.578125 251.179688 C 173.746094 251.152344 172.886719 251.128906 172.09375 251.105469 C 170.652344 251.125 169.28125 250.875 167.96875 250.992188 C 166.652344 251.121094 162.265625 251.152344 161.09375 251.265625 C 158.746094 251.488281 158.667969 254.289062 160.996094 254.648438 C 162.15625 254.835938 166.535156 255.125 167.839844 255.332031 C 169.144531 255.535156 170.523438 255.363281 171.960938 255.46875 C 172.757812 255.492188 173.613281 255.519531 174.445312 255.542969 C 173.609375 256.332031 172.738281 257.152344 171.863281 257.972656 C 169.804688 259.917969 167.738281 261.859375 166.195312 263.3125 C 166.050781 263.546875 164.457031 264.9375 165.472656 266.515625 C 166.488281 268.097656 168.441406 266.867188 169.1875 266.492188 C 169.933594 266.121094 172.796875 263.097656 174.855469 261.15625 C 176.914062 259.214844 178.976562 257.273438 180.523438 255.816406 C 180.550781 255.777344 180.59375 255.761719 180.632812 255.730469 C 183.148438 255.804688 185.789062 255.886719 188.496094 255.964844 C 183.953125 259.160156 177.863281 264.007812 178.546875 266.65625 C 179.332031 269.707031 189.867188 269.523438 195.460938 269.199219 C 192.976562 271.535156 190.578125 273.796875 188.304688 275.941406 C 188.257812 275.941406 188.210938 275.964844 188.160156 275.949219 C 186.039062 275.886719 183.210938 275.800781 180.382812 275.714844 C 177.554688 275.628906 173.40625 275.261719 172.601562 275.480469 C 171.796875 275.703125 169.511719 276.070312 169.804688 277.929688 C 170.09375 279.785156 172.203125 279.761719 172.46875 279.847656 C 174.59375 279.910156 177.421875 279.996094 180.253906 280.082031 C 181.457031 280.117188 182.648438 280.152344 183.796875 280.1875 C 183.195312 280.753906 182.570312 281.339844 181.988281 281.886719 C 180.988281 282.917969 179.835938 283.710938 178.988281 284.722656 C 178.15625 285.75 175.074219 288.867188 174.328125 289.78125 C 172.824219 291.59375 174.746094 293.628906 176.644531 292.242188 C 177.601562 291.550781 180.902344 288.664062 181.972656 287.890625 C 183.035156 287.105469 183.894531 286.003906 184.980469 285.0625 C 185.566406 284.515625 186.1875 283.929688 186.792969 283.363281 C 186.757812 284.515625 186.722656 285.707031 186.6875 286.910156 C 186.601562 289.738281 186.515625 292.570312 186.453125 294.691406 C 186.515625 294.960938 186.371094 297.070312 188.203125 297.464844 C 190.039062 297.867188 190.550781 295.613281 190.8125 294.824219 C 191.078125 294.035156 190.964844 289.875 191.046875 287.035156 C 191.132812 284.214844 191.21875 281.382812 191.28125 279.261719 C 191.269531 279.210938 191.296875 279.167969 191.296875 279.117188 C 193.25 277.277344 195.300781 275.347656 197.40625 273.367188 C 196.417969 278.851562 195.414062 287.023438 197.835938 288.449219 C 200.480469 290.007812 207.480469 282.875 211.289062 278.636719 C 211.191406 281.878906 211.101562 285.011719 211.007812 287.984375 C 210.976562 288.019531 210.960938 288.070312 210.917969 288.089844 C 209.367188 289.539062 207.308594 291.492188 205.246094 293.425781 C 203.191406 295.371094 200 298.046875 199.574219 298.765625 C 199.164062 299.488281 197.8125 301.363281 199.335938 302.472656 C 200.847656 303.578125 202.328125 302.070312 202.574219 301.945312 C 204.121094 300.492188 206.179688 298.539062 208.246094 296.609375 C 209.121094 295.78125 209.992188 294.960938 210.828125 294.175781 C 210.800781 295.011719 210.769531 295.859375 210.75 296.652344 C 210.769531 298.09375 210.515625 299.46875 210.636719 300.785156 C 210.769531 302.097656 210.796875 306.484375 210.917969 307.652344 C 211.132812 309.996094 213.929688 310.085938 214.292969 307.753906 C 214.484375 306.59375 214.773438 302.21875 214.984375 300.917969 C 215.183594 299.609375 215.011719 298.222656 215.117188 296.785156 C 215.136719 295.992188 215.164062 295.136719 215.1875 294.300781 C 215.976562 295.144531 216.796875 296.007812 217.621094 296.890625 C 219.566406 298.949219 221.503906 301.011719 222.960938 302.550781 C 223.195312 302.699219 224.582031 304.292969 226.160156 303.273438 C 227.738281 302.261719 226.511719 300.308594 226.140625 299.566406 C 225.765625 298.816406 222.742188 295.957031 220.800781 293.890625 C 218.855469 291.832031 216.914062 289.773438 215.464844 288.226562 C 215.417969 288.195312 215.40625 288.148438 215.375 288.117188 C 215.460938 285.351562 215.542969 282.445312 215.632812 279.453125 C 218.792969 284.035156 224.085938 290.941406 226.890625 290.21875 C 229.828125 289.464844 229.765625 279.683594 229.476562 273.960938 C 231.589844 276.195312 233.640625 278.375 235.59375 280.449219 C 235.59375 280.5 235.605469 280.546875 235.59375 280.589844 C 235.527344 282.714844 235.453125 285.542969 235.351562 288.375 C 235.273438 291.195312 234.914062 295.351562 235.125 296.148438 C 235.339844 296.957031 235.714844 299.234375 237.574219 298.949219 C 239.429688 298.660156 239.414062 296.546875 239.5 296.285156 C 239.554688 294.160156 239.632812 291.332031 239.726562 288.5 C 239.761719 287.296875 239.800781 286.101562 239.839844 284.957031 C 240.402344 285.558594 240.992188 286.1875 241.535156 286.761719 C 242.570312 287.765625 243.347656 288.917969 244.375 289.761719 C 245.398438 290.59375 248.519531 293.679688 249.425781 294.421875 C 251.242188 295.921875 253.28125 294.003906 251.886719 292.101562 C 251.195312 291.152344 248.308594 287.851562 247.535156 286.78125 C 246.757812 285.714844 245.652344 284.863281 244.714844 283.765625 C 244.167969 283.1875 243.582031 282.566406 243.007812 281.957031 C 244.160156 281.992188 245.355469 282.027344 246.558594 282.070312 C 249.390625 282.148438 252.210938 282.230469 254.34375 282.300781 C 254.605469 282.230469 256.710938 282.378906 257.117188 280.546875 C 257.503906 278.707031 255.261719 278.199219 254.46875 277.929688 C 253.683594 277.667969 249.515625 277.789062 246.6875 277.703125 C 243.855469 277.613281 241.027344 277.535156 238.902344 277.46875 C 238.855469 277.484375 238.8125 277.457031 238.769531 277.449219 C 236.894531 275.460938 234.933594 273.378906 232.910156 271.238281 C 238.378906 272.253906 247.203125 273.453125 248.6875 270.925781 C 250.246094 268.289062 243.113281 261.292969 238.875 257.472656 C 241.902344 257.566406 244.839844 257.65625 247.636719 257.742188 C 247.671875 257.769531 247.714844 257.789062 247.742188 257.832031 C 249.199219 259.382812 251.136719 261.4375 253.074219 263.503906 C 255.023438 265.5625 257.6875 268.75 258.410156 269.167969 C 259.132812 269.582031 261.007812 270.933594 262.125 269.414062 C 263.230469 267.894531 261.722656 266.414062 261.59375 266.171875 C 260.144531 264.628906 258.199219 262.570312 256.261719 260.503906 C 255.433594 259.628906 254.617188 258.761719 253.824219 257.921875 C 254.660156 257.949219 255.511719 257.972656 256.300781 257.996094 C 257.746094 257.972656 259.117188 258.238281 260.433594 258.109375 C 261.75 257.980469 266.128906 257.949219 267.304688 257.835938 C 269.648438 257.617188 269.730469 254.816406 267.402344 254.457031 " fill-opacity="1" fill-rule="nonzero"/></g><g fill="#000000" fill-opacity="1"><g transform="translate(27.264784, 171.677038)"><g><path d="M 50.375 -59.46875 L 51.453125 -59.46875 L 51.453125 -49.296875 L 51.578125 -49.296875 L 51.578125 -48.828125 L 51.453125 -48.828125 L 51.453125 -38.65625 L 50.375 -38.65625 L 50.015625 -40.203125 C 49.773438 -41.640625 49.054688 -43.015625 47.859375 -44.328125 C 46.660156 -45.648438 45.265625 -46.726562 43.671875 -47.5625 C 42.078125 -48.40625 40.484375 -48.828125 38.890625 -48.828125 L 19.625 -48.828125 L 19.625 0 L 12.5625 0 L 12.5625 -95.015625 L 59.953125 -95.015625 L 59.953125 -94.65625 L 59.828125 -94.65625 L 61.140625 -84.484375 L 60.0625 -84.484375 L 59.46875 -86.03125 C 59.070312 -87.46875 58.210938 -88.84375 56.890625 -90.15625 C 55.578125 -91.476562 54.0625 -92.554688 52.34375 -93.390625 C 50.632812 -94.234375 48.941406 -94.65625 47.265625 -94.65625 L 19.625 -94.65625 L 19.625 -49.296875 L 38.890625 -49.296875 C 40.484375 -49.296875 42.078125 -49.710938 43.671875 -50.546875 C 45.265625 -51.390625 46.660156 -52.46875 47.859375 -53.78125 C 49.054688 -55.101562 49.773438 -56.484375 50.015625 -57.921875 Z M 50.375 -59.46875 "/></g></g></g><g fill="#000000" fill-opacity="1"><g transform="translate(92.838144, 171.677038)"><g><path d="M 5.03125 -94.171875 C 5.582031 -94.171875 6.132812 -94.269531 6.6875 -94.46875 C 7.25 -94.664062 7.691406 -94.847656 8.015625 -95.015625 L 11.015625 -95.015625 L 11.015625 0 L 5.03125 0 L 5.03125 -87.234375 C 5.03125 -88.585938 4.890625 -89.863281 4.609375 -91.0625 C 4.328125 -92.257812 3.988281 -92.894531 3.59375 -92.96875 L 3.234375 -92.96875 L 3.234375 -93.578125 C 3.472656 -93.648438 3.75 -93.726562 4.0625 -93.8125 C 4.382812 -93.894531 4.707031 -93.972656 5.03125 -94.046875 Z M 5.03125 -94.171875 "/></g></g></g><g fill="#000000" fill-opacity="1"><g transform="translate(109.111824, 171.677038)"><g><path d="M 5.390625 -32.546875 C 5.390625 -36.773438 6.285156 -40.898438 8.078125 -44.921875 C 9.867188 -48.953125 12.320312 -52.582031 15.4375 -55.8125 C 18.550781 -59.050781 22.019531 -61.609375 25.84375 -63.484375 C 29.675781 -65.359375 33.625 -66.296875 37.6875 -66.296875 C 41.757812 -66.296875 45.707031 -65.359375 49.53125 -63.484375 C 53.363281 -61.609375 56.832031 -59.050781 59.9375 -55.8125 C 63.050781 -52.582031 65.503906 -48.953125 67.296875 -44.921875 C 69.097656 -40.898438 70 -36.773438 70 -32.546875 C 70 -28.316406 69.097656 -24.1875 67.296875 -20.15625 C 65.503906 -16.132812 63.050781 -12.503906 59.9375 -9.265625 C 56.832031 -6.035156 53.363281 -3.484375 49.53125 -1.609375 C 45.707031 0.265625 41.757812 1.203125 37.6875 1.203125 C 33.625 1.203125 29.675781 0.265625 25.84375 -1.609375 C 22.019531 -3.484375 18.550781 -6.035156 15.4375 -9.265625 C 12.320312 -12.503906 9.867188 -16.132812 8.078125 -20.15625 C 6.285156 -24.1875 5.390625 -28.316406 5.390625 -32.546875 Z M 11.96875 -32.546875 C 11.96875 -28.398438 12.6875 -24.351562 14.125 -20.40625 C 15.5625 -16.457031 17.492188 -12.882812 19.921875 -9.6875 C 22.359375 -6.5 25.109375 -3.988281 28.171875 -2.15625 C 31.242188 -0.320312 34.414062 0.59375 37.6875 0.59375 C 40.957031 0.59375 44.128906 -0.320312 47.203125 -2.15625 C 50.273438 -3.988281 53.023438 -6.5 55.453125 -9.6875 C 57.890625 -12.882812 59.828125 -16.457031 61.265625 -20.40625 C 62.703125 -24.351562 63.421875 -28.398438 63.421875 -32.546875 C 63.421875 -36.773438 62.703125 -40.84375 61.265625 -44.75 C 59.828125 -48.65625 57.890625 -52.203125 55.453125 -55.390625 C 53.023438 -58.585938 50.273438 -61.101562 47.203125 -62.9375 C 44.128906 -64.769531 40.957031 -65.6875 37.6875 -65.6875 C 34.414062 -65.6875 31.242188 -64.769531 28.171875 -62.9375 C 25.109375 -61.101562 22.359375 -58.585938 19.921875 -55.390625 C 17.492188 -52.203125 15.5625 -48.65625 14.125 -44.75 C 12.6875 -40.84375 11.96875 -36.773438 11.96875 -32.546875 Z M 11.96875 -32.546875 "/></g></g></g><g fill="#000000" fill-opacity="1"><g transform="translate(184.497256, 171.677038)"><g><path d="M 56 -16.28125 C 54.882812 -13.320312 52.929688 -10.503906 50.140625 -7.828125 C 47.347656 -5.160156 44.273438 -2.988281 40.921875 -1.3125 C 37.566406 0.363281 34.375 1.203125 31.34375 1.203125 C 28.070312 1.203125 24.878906 0.304688 21.765625 -1.484375 C 18.660156 -3.285156 15.867188 -5.722656 13.390625 -8.796875 C 10.921875 -11.867188 8.96875 -15.316406 7.53125 -19.140625 C 6.101562 -22.972656 5.390625 -26.921875 5.390625 -30.984375 C 5.390625 -35.453125 6.1875 -39.78125 7.78125 -43.96875 C 9.375 -48.15625 11.503906 -51.925781 14.171875 -55.28125 C 16.847656 -58.632812 19.859375 -61.304688 23.203125 -63.296875 C 26.554688 -65.296875 30.03125 -66.296875 33.625 -66.296875 C 36.65625 -66.296875 39.742188 -65.695312 42.890625 -64.5 C 46.046875 -63.300781 48.835938 -61.742188 51.265625 -59.828125 C 53.703125 -57.910156 55.28125 -55.878906 56 -53.734375 C 56.320312 -52.929688 56.160156 -52.226562 55.515625 -51.625 C 54.878906 -51.03125 54.046875 -50.734375 53.015625 -50.734375 C 52.535156 -50.734375 51.992188 -51.03125 51.390625 -51.625 C 50.796875 -52.226562 50.335938 -52.929688 50.015625 -53.734375 C 49.296875 -55.804688 48 -57.78125 46.125 -59.65625 C 44.25 -61.53125 42.191406 -63.046875 39.953125 -64.203125 C 37.722656 -65.359375 35.570312 -65.9375 33.5 -65.9375 C 30.707031 -65.9375 27.992188 -65.035156 25.359375 -63.234375 C 22.734375 -61.441406 20.363281 -59.03125 18.25 -56 C 16.132812 -52.96875 14.457031 -49.554688 13.21875 -45.765625 C 11.988281 -41.972656 11.375 -38.085938 11.375 -34.109375 C 11.375 -29.878906 11.953125 -25.75 13.109375 -21.71875 C 14.265625 -17.6875 15.859375 -14.078125 17.890625 -10.890625 C 19.921875 -7.703125 22.171875 -5.171875 24.640625 -3.296875 C 27.117188 -1.421875 29.675781 -0.484375 32.3125 -0.484375 C 35.257812 -0.484375 38.347656 -1.257812 41.578125 -2.8125 C 44.804688 -4.363281 47.71875 -6.351562 50.3125 -8.78125 C 52.90625 -11.21875 54.722656 -13.753906 55.765625 -16.390625 Z M 56 -16.28125 "/></g></g></g><g fill="#000000" fill-opacity="1"><g transform="translate(272.347487, 290.188985)"><g><path d="M 5.390625 -32.546875 C 5.390625 -36.773438 6.285156 -40.898438 8.078125 -44.921875 C 9.867188 -48.953125 12.320312 -52.582031 15.4375 -55.8125 C 18.550781 -59.050781 22.019531 -61.609375 25.84375 -63.484375 C 29.675781 -65.359375 33.625 -66.296875 37.6875 -66.296875 C 41.757812 -66.296875 45.707031 -65.359375 49.53125 -63.484375 C 53.363281 -61.609375 56.832031 -59.050781 59.9375 -55.8125 C 63.050781 -52.582031 65.503906 -48.953125 67.296875 -44.921875 C 69.097656 -40.898438 70 -36.773438 70 -32.546875 C 70 -28.316406 69.097656 -24.1875 67.296875 -20.15625 C 65.503906 -16.132812 63.050781 -12.503906 59.9375 -9.265625 C 56.832031 -6.035156 53.363281 -3.484375 49.53125 -1.609375 C 45.707031 0.265625 41.757812 1.203125 37.6875 1.203125 C 33.625 1.203125 29.675781 0.265625 25.84375 -1.609375 C 22.019531 -3.484375 18.550781 -6.035156 15.4375 -9.265625 C 12.320312 -12.503906 9.867188 -16.132812 8.078125 -20.15625 C 6.285156 -24.1875 5.390625 -28.316406 5.390625 -32.546875 Z M 11.96875 -32.546875 C 11.96875 -28.398438 12.6875 -24.351562 14.125 -20.40625 C 15.5625 -16.457031 17.492188 -12.882812 19.921875 -9.6875 C 22.359375 -6.5 25.109375 -3.988281 28.171875 -2.15625 C 31.242188 -0.320312 34.414062 0.59375 37.6875 0.59375 C 40.957031 0.59375 44.128906 -0.320312 47.203125 -2.15625 C 50.273438 -3.988281 53.023438 -6.5 55.453125 -9.6875 C 57.890625 -12.882812 59.828125 -16.457031 61.265625 -20.40625 C 62.703125 -24.351562 63.421875 -28.398438 63.421875 -32.546875 C 63.421875 -36.773438 62.703125 -40.84375 61.265625 -44.75 C 59.828125 -48.65625 57.890625 -52.203125 55.453125 -55.390625 C 53.023438 -58.585938 50.273438 -61.101562 47.203125 -62.9375 C 44.128906 -64.769531 40.957031 -65.6875 37.6875 -65.6875 C 34.414062 -65.6875 31.242188 -64.769531 28.171875 -62.9375 C 25.109375 -61.101562 22.359375 -58.585938 19.921875 -55.390625 C 17.492188 -52.203125 15.5625 -48.65625 14.125 -44.75 C 12.6875 -40.84375 11.96875 -36.773438 11.96875 -32.546875 Z M 11.96875 -32.546875 "/></g></g></g><g clip-path="url(#e5cd56193d)"><path fill="#a6a6a6" d="M 236.351562 252.9375 C 231.902344 252.804688 227.332031 252.667969 222.699219 252.523438 C 225.820312 249.585938 228.914062 246.675781 231.921875 243.839844 C 231.921875 243.839844 246.957031 241.941406 247.171875 243.8125 C 247.382812 245.6875 236.351562 252.9375 236.351562 252.9375 Z M 245.917969 267.734375 C 244.738281 269.210938 231.816406 266.535156 231.816406 266.535156 L 231.8125 266.707031 C 228.800781 263.507812 225.703125 260.21875 222.566406 256.890625 C 226.953125 257.023438 231.292969 257.152344 235.519531 257.285156 C 237.519531 258.863281 246.972656 266.417969 245.917969 267.734375 Z M 228.117188 283.761719 C 226.246094 283.980469 218.996094 272.941406 218.996094 272.941406 C 219.117188 268.6875 219.25 264.308594 219.386719 259.882812 C 222.363281 263.042969 225.308594 266.171875 228.175781 269.214844 C 228.519531 272.179688 229.75 283.582031 228.117188 283.761719 Z M 220.074219 237.070312 L 220.382812 236.808594 C 220.382812 236.808594 229.667969 224.835938 231.144531 226.007812 C 232.441406 227.054688 230.515625 237.238281 230.042969 239.613281 C 226.679688 242.777344 223.214844 246.042969 219.703125 249.351562 C 219.828125 245.199219 219.949219 241.082031 220.074219 237.070312 Z M 215.339844 249.214844 C 212.589844 246.292969 209.855469 243.390625 207.191406 240.566406 L 207.246094 240.003906 C 207.246094 240.003906 205.347656 224.972656 207.222656 224.757812 C 208.78125 224.585938 214.035156 232.15625 215.773438 234.734375 C 215.632812 239.433594 215.488281 244.292969 215.339844 249.214844 Z M 214.652344 272.105469 C 213.078125 274.109375 205.519531 283.5625 204.195312 282.515625 C 202.894531 281.476562 204.828125 271.292969 205.296875 268.917969 C 208.464844 265.929688 211.726562 262.859375 215.027344 259.753906 C 214.898438 263.933594 214.773438 268.074219 214.652344 272.105469 Z M 203.414062 264.6875 C 203.414062 264.6875 188.378906 266.589844 188.167969 264.710938 C 187.992188 263.152344 195.570312 257.898438 198.136719 256.160156 C 202.65625 256.296875 207.3125 256.433594 212.027344 256.574219 C 209.121094 259.316406 206.234375 262.035156 203.417969 264.6875 Z M 189.417969 240.792969 C 190.375 239.59375 199.066406 241.132812 202.3125 241.753906 C 205.511719 245.148438 208.816406 248.65625 212.164062 252.210938 C 208.210938 252.09375 204.292969 251.972656 200.472656 251.859375 L 200.214844 251.554688 C 200.214844 251.554688 188.242188 242.265625 189.417969 240.792969 Z M 270.574219 254.457031 C 269.414062 254.269531 265.03125 253.976562 263.730469 253.769531 C 262.429688 253.566406 261.035156 253.742188 259.605469 253.628906 C 258.804688 253.605469 257.949219 253.585938 257.121094 253.558594 C 257.957031 252.769531 258.828125 251.949219 259.703125 251.125 C 261.765625 249.183594 263.828125 247.246094 265.371094 245.789062 C 265.515625 245.554688 267.113281 244.167969 266.09375 242.589844 C 265.074219 241.007812 263.121094 242.238281 262.378906 242.609375 C 261.636719 242.980469 258.769531 246.007812 256.710938 247.945312 C 254.652344 249.886719 252.585938 251.832031 251.042969 253.285156 C 251.015625 253.328125 250.972656 253.34375 250.929688 253.375 C 248.347656 253.296875 245.644531 253.214844 242.859375 253.132812 C 247.449219 249.972656 254.355469 244.683594 253.632812 241.878906 C 252.84375 238.828125 242.3125 239.011719 236.71875 239.328125 C 238.980469 237.191406 241.175781 235.128906 243.261719 233.160156 C 243.3125 233.164062 243.359375 233.140625 243.410156 233.152344 C 245.527344 233.214844 248.355469 233.300781 251.1875 233.386719 C 254.015625 233.46875 258.164062 233.839844 258.96875 233.621094 C 259.777344 233.402344 262.054688 233.03125 261.765625 231.171875 C 261.480469 229.320312 259.359375 229.335938 259.105469 229.257812 C 256.980469 229.199219 254.152344 229.109375 251.320312 229.027344 C 250.117188 228.988281 248.921875 228.953125 247.769531 228.917969 C 248.378906 228.347656 249 227.761719 249.582031 227.214844 C 250.585938 226.183594 251.730469 225.390625 252.582031 224.378906 C 253.414062 223.355469 256.492188 220.230469 257.242188 219.320312 C 258.742188 217.507812 256.824219 215.46875 254.921875 216.859375 C 253.972656 217.550781 250.667969 220.4375 249.59375 221.210938 C 248.53125 221.992188 247.675781 223.097656 246.585938 224.035156 C 246 224.582031 245.382812 225.167969 244.777344 225.738281 C 244.8125 224.585938 244.855469 223.394531 244.882812 222.195312 C 244.96875 219.363281 245.050781 216.535156 245.117188 214.410156 C 245.050781 214.140625 245.199219 212.035156 243.359375 211.632812 C 241.527344 211.234375 241.019531 213.488281 240.757812 214.277344 C 240.488281 215.070312 240.609375 219.230469 240.515625 222.0625 C 240.4375 224.890625 240.355469 227.71875 240.289062 229.84375 C 240.296875 229.890625 240.277344 229.9375 240.269531 229.984375 C 238.507812 231.644531 236.667969 233.378906 234.773438 235.160156 C 235.761719 229.671875 236.765625 221.503906 234.339844 220.074219 C 231.546875 218.433594 223.894531 226.484375 220.265625 230.578125 C 220.363281 227.300781 220.460938 224.128906 220.554688 221.117188 C 220.585938 221.082031 220.605469 221.03125 220.652344 221.011719 C 222.191406 219.558594 224.257812 217.613281 226.320312 215.675781 C 228.375 213.734375 231.5625 211.0625 231.980469 210.335938 C 232.398438 209.617188 233.738281 207.738281 232.226562 206.632812 C 230.710938 205.519531 229.230469 207.023438 228.984375 207.160156 C 227.441406 208.613281 225.378906 210.554688 223.324219 212.492188 C 222.445312 213.316406 221.578125 214.140625 220.734375 214.929688 C 220.761719 214.097656 220.789062 213.242188 220.8125 212.445312 C 220.789062 211.007812 221.050781 209.628906 220.925781 208.320312 C 220.796875 207 220.765625 202.617188 220.652344 201.449219 C 220.429688 199.105469 217.628906 199.015625 217.269531 201.34375 C 217.085938 202.507812 216.796875 206.882812 216.589844 208.1875 C 216.378906 209.488281 216.558594 210.875 216.449219 212.3125 C 216.425781 213.105469 216.398438 213.960938 216.375 214.796875 C 215.585938 213.957031 214.765625 213.089844 213.945312 212.210938 C 212 210.15625 210.058594 208.089844 208.601562 206.546875 C 208.367188 206.402344 206.984375 204.808594 205.402344 205.820312 C 203.820312 206.839844 205.054688 208.789062 205.429688 209.539062 C 205.796875 210.28125 208.820312 213.144531 210.765625 215.203125 C 212.703125 217.265625 214.640625 219.324219 216.101562 220.875 C 216.140625 220.90625 216.160156 220.949219 216.1875 220.984375 C 216.117188 223.320312 216.039062 225.753906 215.96875 228.253906 C 212.773438 223.707031 207.925781 217.621094 205.28125 218.304688 C 202.109375 219.125 202.4375 230.492188 202.773438 235.867188 C 200.414062 233.367188 198.136719 230.945312 195.976562 228.652344 C 195.980469 228.609375 195.957031 228.566406 195.96875 228.511719 C 196.035156 226.390625 196.117188 223.558594 196.203125 220.730469 C 196.289062 217.90625 196.65625 213.753906 196.433594 212.953125 C 196.222656 212.144531 195.84375 209.863281 193.988281 210.15625 C 192.132812 210.445312 192.152344 212.554688 192.074219 212.820312 C 192.007812 214.945312 191.925781 217.773438 191.839844 220.597656 C 191.804688 221.804688 191.769531 223 191.734375 224.152344 C 191.164062 223.542969 190.578125 222.921875 190.03125 222.335938 C 188.992188 221.335938 188.210938 220.183594 187.191406 219.34375 C 186.167969 218.503906 183.050781 215.425781 182.140625 214.675781 C 180.328125 213.179688 178.285156 215.097656 179.675781 216.996094 C 180.367188 217.953125 183.257812 221.25 184.03125 222.320312 C 184.808594 223.386719 185.914062 224.246094 186.851562 225.332031 C 187.394531 225.910156 187.984375 226.535156 188.554688 227.140625 C 187.40625 227.109375 186.214844 227.074219 185.007812 227.035156 C 182.175781 226.957031 179.347656 226.867188 177.226562 226.804688 C 176.960938 226.871094 174.855469 226.722656 174.449219 228.554688 C 174.054688 230.390625 176.304688 230.898438 177.097656 231.167969 C 177.882812 231.433594 182.050781 231.316406 184.875 231.402344 C 187.710938 231.484375 190.535156 231.570312 192.660156 231.636719 C 192.707031 231.621094 192.753906 231.644531 192.796875 231.644531 C 194.429688 233.382812 196.128906 235.1875 197.878906 237.039062 C 192.417969 236.097656 184.859375 235.273438 183.484375 237.597656 C 181.84375 240.386719 189.894531 248.042969 193.984375 251.667969 C 190.496094 251.558594 187.128906 251.460938 183.929688 251.367188 C 183.902344 251.332031 183.851562 251.3125 183.828125 251.269531 C 182.371094 249.726562 180.429688 247.664062 178.488281 245.605469 C 176.546875 243.542969 173.875 240.347656 173.15625 239.9375 C 172.429688 239.515625 170.554688 238.175781 169.445312 239.6875 C 168.335938 241.207031 169.84375 242.683594 169.972656 242.929688 C 171.425781 244.472656 173.371094 246.535156 175.308594 248.597656 C 176.136719 249.476562 176.953125 250.34375 177.746094 251.179688 C 176.917969 251.152344 176.058594 251.128906 175.261719 251.105469 C 173.820312 251.125 172.449219 250.875 171.136719 250.992188 C 169.820312 251.121094 165.433594 251.152344 164.261719 251.265625 C 161.917969 251.488281 161.835938 254.289062 164.167969 254.648438 C 165.324219 254.835938 169.707031 255.125 171.007812 255.332031 C 172.3125 255.535156 173.695312 255.363281 175.128906 255.46875 C 175.925781 255.492188 176.78125 255.519531 177.613281 255.542969 C 176.777344 256.332031 175.90625 257.152344 175.03125 257.972656 C 172.976562 259.917969 170.90625 261.859375 169.363281 263.3125 C 169.21875 263.546875 167.628906 264.9375 168.640625 266.515625 C 169.65625 268.097656 171.609375 266.867188 172.359375 266.492188 C 173.101562 266.121094 175.964844 263.097656 178.023438 261.15625 C 180.082031 259.214844 182.144531 257.273438 183.691406 255.816406 C 183.71875 255.777344 183.761719 255.761719 183.800781 255.730469 C 186.320312 255.804688 188.957031 255.886719 191.664062 255.964844 C 187.121094 259.160156 181.035156 264.007812 181.714844 266.65625 C 182.5 269.707031 193.035156 269.523438 198.628906 269.199219 C 196.148438 271.535156 193.746094 273.796875 191.472656 275.941406 C 191.425781 275.941406 191.382812 275.964844 191.328125 275.949219 C 189.210938 275.886719 186.378906 275.800781 183.550781 275.714844 C 180.722656 275.628906 176.574219 275.261719 175.769531 275.480469 C 174.964844 275.703125 172.683594 276.070312 172.972656 277.929688 C 173.261719 279.785156 175.375 279.761719 175.636719 279.847656 C 177.761719 279.910156 180.59375 279.996094 183.421875 280.082031 C 184.625 280.117188 185.816406 280.152344 186.964844 280.1875 C 186.363281 280.753906 185.742188 281.339844 185.15625 281.886719 C 184.15625 282.917969 183.003906 283.710938 182.160156 284.722656 C 181.324219 285.75 178.242188 288.867188 177.496094 289.78125 C 175.992188 291.59375 177.914062 293.628906 179.816406 292.242188 C 180.769531 291.550781 184.070312 288.664062 185.140625 287.890625 C 186.207031 287.105469 187.0625 286.003906 188.152344 285.0625 C 188.734375 284.515625 189.355469 283.929688 189.960938 283.363281 C 189.925781 284.515625 189.894531 285.707031 189.855469 286.910156 C 189.769531 289.738281 189.683594 292.570312 189.621094 294.691406 C 189.683594 294.960938 189.539062 297.070312 191.375 297.464844 C 193.207031 297.867188 193.71875 295.613281 193.984375 294.824219 C 194.25 294.035156 194.132812 289.875 194.21875 287.035156 C 194.304688 284.214844 194.390625 281.382812 194.449219 279.261719 C 194.4375 279.210938 194.464844 279.167969 194.464844 279.117188 C 196.421875 277.277344 198.46875 275.347656 200.574219 273.367188 C 199.589844 278.851562 198.585938 287.023438 201.007812 288.449219 C 203.648438 290.007812 210.648438 282.875 214.460938 278.636719 C 214.359375 281.878906 214.273438 285.011719 214.179688 287.984375 C 214.148438 288.019531 214.128906 288.070312 214.085938 288.089844 C 212.535156 289.539062 210.476562 291.492188 208.414062 293.425781 C 206.363281 295.371094 203.167969 298.046875 202.746094 298.765625 C 202.332031 299.488281 200.984375 301.363281 202.507812 302.472656 C 204.019531 303.578125 205.496094 302.070312 205.742188 301.945312 C 207.289062 300.492188 209.351562 298.539062 211.414062 296.609375 C 212.289062 295.78125 213.160156 294.960938 213.996094 294.175781 C 213.972656 295.011719 213.941406 295.859375 213.921875 296.652344 C 213.941406 298.09375 213.683594 299.46875 213.804688 300.785156 C 213.941406 302.097656 213.96875 306.484375 214.085938 307.652344 C 214.300781 309.996094 217.097656 310.085938 217.464844 307.753906 C 217.652344 306.59375 217.941406 302.21875 218.152344 300.917969 C 218.355469 299.609375 218.179688 298.222656 218.285156 296.785156 C 218.308594 295.992188 218.335938 295.136719 218.355469 294.300781 C 219.148438 295.144531 219.964844 296.007812 220.792969 296.890625 C 222.734375 298.949219 224.671875 301.011719 226.132812 302.550781 C 226.363281 302.699219 227.75 304.292969 229.328125 303.273438 C 230.90625 302.261719 229.679688 300.308594 229.308594 299.566406 C 228.9375 298.816406 225.914062 295.957031 223.96875 293.890625 C 222.023438 291.832031 220.082031 289.773438 218.632812 288.226562 C 218.589844 288.195312 218.574219 288.148438 218.546875 288.117188 C 218.628906 285.351562 218.714844 282.445312 218.800781 279.453125 C 221.960938 284.035156 227.257812 290.941406 230.0625 290.21875 C 232.996094 289.464844 232.933594 279.683594 232.644531 273.960938 C 234.757812 276.195312 236.808594 278.375 238.761719 280.449219 C 238.761719 280.5 238.777344 280.546875 238.761719 280.589844 C 238.699219 282.714844 238.621094 285.542969 238.523438 288.375 C 238.445312 291.195312 238.082031 295.351562 238.296875 296.148438 C 238.507812 296.957031 238.882812 299.234375 240.742188 298.949219 C 242.597656 298.660156 242.582031 296.546875 242.667969 296.285156 C 242.722656 294.160156 242.800781 291.332031 242.894531 288.5 C 242.929688 287.296875 242.972656 286.101562 243.007812 284.957031 C 243.574219 285.558594 244.160156 286.1875 244.707031 286.761719 C 245.738281 287.765625 246.515625 288.917969 247.542969 289.761719 C 248.570312 290.59375 251.6875 293.679688 252.59375 294.421875 C 254.414062 295.921875 256.449219 294.003906 255.054688 292.101562 C 254.363281 291.152344 251.476562 287.851562 250.707031 286.78125 C 249.925781 285.714844 248.824219 284.863281 247.882812 283.765625 C 247.335938 283.1875 246.75 282.566406 246.175781 281.957031 C 247.332031 281.992188 248.527344 282.027344 249.730469 282.070312 C 252.558594 282.148438 255.382812 282.230469 257.511719 282.300781 C 257.773438 282.230469 259.882812 282.378906 260.285156 280.546875 C 260.675781 278.707031 258.429688 278.199219 257.640625 277.929688 C 256.855469 277.667969 252.6875 277.789062 249.855469 277.703125 C 247.027344 277.613281 244.195312 277.535156 242.074219 277.46875 C 242.023438 277.484375 241.980469 277.457031 241.9375 277.449219 C 240.0625 275.460938 238.105469 273.378906 236.082031 271.238281 C 241.550781 272.253906 250.371094 273.453125 251.859375 270.925781 C 253.414062 268.289062 246.28125 261.292969 242.046875 257.472656 C 245.074219 257.566406 248.007812 257.65625 250.804688 257.742188 C 250.839844 257.769531 250.882812 257.789062 250.910156 257.832031 C 252.367188 259.382812 254.304688 261.4375 256.246094 263.503906 C 258.191406 265.5625 260.859375 268.75 261.578125 269.167969 C 262.300781 269.582031 264.175781 270.933594 265.292969 269.414062 C 266.398438 267.894531 264.890625 266.414062 264.765625 266.171875 C 263.3125 264.628906 261.367188 262.570312 259.429688 260.503906 C 258.601562 259.628906 257.789062 258.761719 256.996094 257.921875 C 257.832031 257.949219 258.679688 257.972656 259.472656 257.996094 C 260.914062 257.972656 262.289062 258.238281 263.605469 258.109375 C 264.917969 257.980469 269.300781 257.949219 270.472656 257.835938 C 272.816406 257.617188 272.902344 254.816406 270.574219 254.457031 " fill-opacity="1" fill-rule="nonzero"/></g></svg>