<svg xmlns="http://www.w3.org/2000/svg" xmlns:xlink="http://www.w3.org/1999/xlink" width="500" zoomAndPan="magnify" viewBox="0 0 375 374.999991" height="500" preserveAspectRatio="xMidYMid meet" version="1.0"><defs><clipPath id="8df2826d7d"><path d="M 71.601562 63.28125 L 303.195312 63.28125 L 303.195312 295.03125 L 71.601562 295.03125 Z M 71.601562 63.28125 " clip-rule="nonzero"/></clipPath><clipPath id="96f651c123"><path d="M 78.289062 63.28125 L 309.886719 63.28125 L 309.886719 295.03125 L 78.289062 295.03125 Z M 78.289062 63.28125 " clip-rule="nonzero"/></clipPath></defs><g clip-path="url(#8df2826d7d)"><path fill="#737373" d="M 227.582031 175.785156 C 218.191406 175.5 208.539062 175.214844 198.765625 174.910156 C 205.351562 168.710938 211.878906 162.566406 218.234375 156.582031 C 218.234375 156.582031 249.96875 152.574219 250.417969 156.523438 C 250.867188 160.476562 227.582031 175.785156 227.582031 175.785156 Z M 247.773438 207.023438 C 245.28125 210.132812 218.003906 204.484375 218.003906 204.484375 L 218 204.851562 C 211.640625 198.097656 205.101562 191.152344 198.484375 184.128906 C 207.742188 184.410156 216.902344 184.683594 225.820312 184.957031 C 230.046875 188.289062 250 204.238281 247.773438 207.023438 Z M 210.199219 240.847656 C 206.25 241.308594 190.941406 218.011719 190.941406 218.011719 C 191.203125 209.03125 191.484375 199.789062 191.769531 190.441406 C 198.054688 197.117188 204.273438 203.71875 210.324219 210.144531 C 211.050781 216.398438 213.640625 240.472656 210.199219 240.847656 Z M 193.21875 142.289062 L 193.871094 141.738281 C 193.871094 141.738281 213.472656 116.464844 216.585938 118.941406 C 219.328125 121.152344 215.257812 142.644531 214.265625 147.65625 C 207.167969 154.339844 199.851562 161.230469 192.433594 168.214844 C 192.699219 159.445312 192.960938 150.757812 193.21875 142.289062 Z M 183.226562 167.929688 C 177.417969 161.757812 171.652344 155.636719 166.03125 149.667969 L 166.140625 148.484375 C 166.140625 148.484375 162.132812 116.753906 166.089844 116.304688 C 169.386719 115.933594 180.472656 131.921875 184.140625 137.359375 C 183.847656 147.28125 183.539062 157.539062 183.226562 167.929688 Z M 181.777344 216.25 C 178.449219 220.476562 162.492188 240.429688 159.707031 238.21875 C 156.957031 236.023438 161.035156 214.53125 162.027344 209.511719 C 168.714844 203.210938 175.597656 196.730469 182.5625 190.171875 C 182.296875 198.996094 182.027344 207.734375 181.777344 216.25 Z M 158.054688 200.589844 C 158.054688 200.589844 126.316406 204.601562 125.867188 200.640625 C 125.5 197.34375 141.492188 186.253906 146.914062 182.582031 C 156.449219 182.875 166.285156 183.167969 176.238281 183.464844 C 170.101562 189.246094 164.003906 194.988281 158.0625 200.589844 Z M 128.511719 150.144531 C 130.53125 147.613281 148.878906 150.863281 155.726562 152.175781 C 162.476562 159.339844 169.457031 166.75 176.519531 174.246094 C 168.183594 174 159.910156 173.75 151.84375 173.507812 L 151.296875 172.863281 C 151.296875 172.863281 126.03125 153.253906 128.511719 150.144531 Z M 299.816406 178.992188 C 297.367188 178.59375 288.121094 177.976562 285.375 177.535156 C 282.625 177.113281 279.683594 177.484375 276.667969 177.246094 C 274.980469 177.199219 273.171875 177.152344 271.425781 177.097656 C 273.1875 175.429688 275.023438 173.699219 276.875 171.960938 C 281.222656 167.863281 285.582031 163.769531 288.839844 160.695312 C 289.136719 160.199219 292.511719 157.269531 290.363281 153.945312 C 288.210938 150.601562 284.089844 153.203125 282.523438 153.984375 C 280.953125 154.765625 274.90625 161.15625 270.558594 165.25 C 266.210938 169.347656 261.851562 173.449219 258.597656 176.515625 C 258.535156 176.609375 258.445312 176.636719 258.355469 176.707031 C 252.90625 176.539062 247.199219 176.371094 241.316406 176.195312 C 251.007812 169.527344 265.585938 158.359375 264.0625 152.4375 C 262.390625 146 240.164062 146.390625 228.351562 147.054688 C 233.132812 142.550781 237.761719 138.191406 242.167969 134.039062 C 242.273438 134.042969 242.375 133.992188 242.480469 134.019531 C 246.945312 134.15625 252.921875 134.335938 258.894531 134.515625 C 264.867188 134.691406 273.621094 135.46875 275.324219 135.007812 C 277.027344 134.550781 281.835938 133.761719 281.222656 129.84375 C 280.625 125.929688 276.144531 125.964844 275.605469 125.800781 C 271.125 125.671875 265.152344 125.484375 259.179688 125.308594 C 256.640625 125.230469 254.113281 125.160156 251.679688 125.082031 C 252.964844 123.882812 254.28125 122.636719 255.503906 121.484375 C 257.625 119.308594 260.042969 117.640625 261.835938 115.496094 C 263.597656 113.339844 270.097656 106.746094 271.679688 104.828125 C 274.84375 100.996094 270.796875 96.695312 266.78125 99.628906 C 264.777344 101.085938 257.804688 107.183594 255.535156 108.816406 C 253.292969 110.464844 251.488281 112.796875 249.1875 114.773438 C 247.945312 115.929688 246.648438 117.167969 245.363281 118.367188 C 245.4375 115.941406 245.527344 113.425781 245.585938 110.890625 C 245.765625 104.914062 245.945312 98.945312 246.078125 94.453125 C 245.945312 93.886719 246.257812 89.445312 242.375 88.597656 C 238.507812 87.757812 237.433594 92.511719 236.878906 94.179688 C 236.3125 95.847656 236.566406 104.636719 236.371094 110.609375 C 236.207031 116.582031 236.027344 122.550781 235.894531 127.03125 C 235.910156 127.136719 235.863281 127.234375 235.847656 127.328125 C 232.128906 130.835938 228.246094 134.5 224.246094 138.261719 C 226.335938 126.675781 228.457031 109.4375 223.332031 106.414062 C 217.441406 102.949219 201.285156 119.949219 193.625 128.585938 C 193.832031 121.671875 194.035156 114.972656 194.234375 108.613281 C 194.296875 108.542969 194.339844 108.4375 194.4375 108.390625 C 197.691406 105.324219 202.050781 101.222656 206.402344 97.125 C 210.742188 93.03125 217.46875 87.390625 218.351562 85.859375 C 219.238281 84.339844 222.0625 80.371094 218.871094 78.039062 C 215.671875 75.691406 212.546875 78.867188 212.03125 79.152344 C 208.773438 82.222656 204.417969 86.316406 200.078125 90.40625 C 198.230469 92.148438 196.390625 93.886719 194.617188 95.554688 C 194.671875 93.800781 194.730469 91.992188 194.78125 90.308594 C 194.730469 87.273438 195.277344 84.367188 195.019531 81.601562 C 194.746094 78.820312 194.683594 69.558594 194.441406 67.097656 C 193.972656 62.152344 188.0625 61.964844 187.304688 66.875 C 186.910156 69.332031 186.304688 78.566406 185.863281 81.320312 C 185.425781 84.070312 185.804688 87 185.570312 90.03125 C 185.519531 91.707031 185.457031 93.507812 185.410156 95.269531 C 183.75 93.503906 182.015625 91.671875 180.285156 89.816406 C 176.175781 85.476562 172.082031 81.113281 169 77.863281 C 168.511719 77.554688 165.589844 74.1875 162.25 76.324219 C 158.90625 78.480469 161.515625 82.59375 162.304688 84.175781 C 163.085938 85.742188 169.46875 91.789062 173.570312 96.132812 C 177.664062 100.488281 181.753906 104.832031 184.832031 108.105469 C 184.917969 108.171875 184.957031 108.257812 185.015625 108.332031 C 184.863281 113.261719 184.707031 118.402344 184.554688 123.679688 C 177.808594 114.085938 167.578125 101.238281 161.996094 102.679688 C 155.296875 104.414062 155.992188 128.40625 156.699219 139.75 C 151.722656 134.46875 146.914062 129.367188 142.355469 124.523438 C 142.363281 124.429688 142.3125 124.335938 142.339844 124.226562 C 142.472656 119.746094 142.648438 113.769531 142.832031 107.804688 C 143.011719 101.832031 143.785156 93.070312 143.320312 91.378906 C 142.871094 89.675781 142.070312 84.863281 138.15625 85.476562 C 134.238281 86.089844 134.277344 90.539062 134.113281 91.101562 C 133.980469 95.585938 133.804688 101.558594 133.621094 107.523438 C 133.546875 110.066406 133.472656 112.59375 133.402344 115.019531 C 132.195312 113.734375 130.957031 112.421875 129.800781 111.191406 C 127.613281 109.082031 125.957031 106.648438 123.808594 104.867188 C 121.652344 103.101562 115.066406 96.601562 113.152344 95.019531 C 109.320312 91.859375 105.011719 95.90625 107.949219 99.921875 C 109.40625 101.933594 115.507812 108.898438 117.136719 111.15625 C 118.777344 113.410156 121.109375 115.21875 123.09375 117.515625 C 124.242188 118.734375 125.484375 120.054688 126.6875 121.332031 C 124.261719 121.261719 121.746094 121.1875 119.203125 121.105469 C 113.222656 120.941406 107.253906 120.753906 102.773438 120.621094 C 102.210938 120.757812 97.769531 120.445312 96.914062 124.320312 C 96.074219 128.191406 100.828125 129.265625 102.5 129.832031 C 104.160156 130.394531 112.953125 130.148438 118.921875 130.324219 C 124.902344 130.503906 130.863281 130.683594 135.351562 130.820312 C 135.457031 130.789062 135.554688 130.835938 135.640625 130.839844 C 139.089844 134.507812 142.679688 138.3125 146.367188 142.230469 C 134.84375 140.238281 118.886719 138.5 115.988281 143.40625 C 112.523438 149.292969 129.511719 165.453125 138.144531 173.101562 C 130.78125 172.875 123.675781 172.664062 116.925781 172.464844 C 116.863281 172.398438 116.757812 172.355469 116.710938 172.261719 C 113.636719 169.007812 109.539062 164.648438 105.4375 160.304688 C 101.34375 155.953125 95.695312 149.210938 94.179688 148.34375 C 92.652344 147.457031 88.691406 144.621094 86.351562 147.820312 C 84.011719 151.019531 87.191406 154.136719 87.464844 154.664062 C 90.535156 157.917969 94.632812 162.269531 98.730469 166.621094 C 100.472656 168.476562 102.199219 170.308594 103.871094 172.078125 C 102.121094 172.019531 100.304688 171.972656 98.632812 171.917969 C 95.585938 171.960938 92.691406 171.429688 89.921875 171.679688 C 87.144531 171.953125 77.886719 172.011719 75.410156 172.25 C 70.457031 172.722656 70.289062 178.632812 75.207031 179.390625 C 77.652344 179.789062 86.898438 180.402344 89.644531 180.839844 C 92.398438 181.269531 95.316406 180.902344 98.351562 181.128906 C 100.03125 181.179688 101.832031 181.238281 103.589844 181.28125 C 101.828125 182.949219 99.992188 184.675781 98.140625 186.414062 C 93.800781 190.523438 89.4375 194.613281 86.175781 197.6875 C 85.871094 198.183594 82.511719 201.113281 84.652344 204.449219 C 86.792969 207.785156 90.917969 205.183594 92.5 204.394531 C 94.070312 203.609375 100.113281 197.226562 104.457031 193.128906 C 108.804688 189.035156 113.15625 184.941406 116.425781 181.867188 C 116.476562 181.777344 116.570312 181.742188 116.652344 181.679688 C 121.96875 181.835938 127.539062 182.011719 133.25 182.175781 C 123.660156 188.917969 110.8125 199.152344 112.246094 204.742188 C 113.910156 211.179688 136.144531 210.792969 147.953125 210.113281 C 142.710938 215.039062 137.648438 219.820312 132.847656 224.34375 C 132.75 224.34375 132.65625 224.386719 132.542969 224.359375 C 128.070312 224.222656 122.097656 224.046875 116.128906 223.867188 C 110.152344 223.6875 101.402344 222.910156 99.699219 223.371094 C 98 223.835938 93.179688 224.613281 93.792969 228.539062 C 94.40625 232.453125 98.863281 232.410156 99.417969 232.589844 C 103.90625 232.722656 109.878906 232.902344 115.851562 233.082031 C 118.390625 233.15625 120.90625 233.230469 123.332031 233.304688 C 122.058594 234.5 120.746094 235.738281 119.515625 236.890625 C 117.40625 239.070312 114.972656 240.742188 113.1875 242.878906 C 111.425781 245.042969 104.921875 251.628906 103.34375 253.558594 C 100.171875 257.378906 104.226562 261.683594 108.238281 258.753906 C 110.253906 257.289062 117.222656 251.195312 119.480469 249.570312 C 121.726562 247.910156 123.535156 245.582031 125.835938 243.59375 C 127.066406 242.445312 128.378906 241.207031 129.65625 240.011719 C 129.578125 242.445312 129.511719 244.953125 129.433594 247.492188 C 129.253906 253.46875 129.074219 259.441406 128.9375 263.921875 C 129.074219 264.488281 128.769531 268.941406 132.636719 269.777344 C 136.511719 270.628906 137.589844 265.863281 138.144531 264.207031 C 138.707031 262.53125 138.460938 253.75 138.640625 247.761719 C 138.820312 241.804688 139.003906 235.828125 139.132812 231.347656 C 139.105469 231.242188 139.164062 231.152344 139.164062 231.050781 C 143.289062 227.167969 147.613281 223.089844 152.058594 218.90625 C 149.976562 230.480469 147.859375 247.730469 152.96875 250.75 C 158.546875 254.035156 173.324219 238.980469 181.367188 230.035156 C 181.160156 236.875 180.972656 243.492188 180.773438 249.761719 C 180.710938 249.839844 180.675781 249.941406 180.582031 249.988281 C 177.308594 253.050781 172.960938 257.171875 168.609375 261.25 C 164.277344 265.355469 157.535156 271 156.640625 272.523438 C 155.769531 274.046875 152.921875 278.007812 156.136719 280.351562 C 159.328125 282.679688 162.449219 279.5 162.96875 279.230469 C 166.234375 276.167969 170.582031 272.046875 174.941406 267.96875 C 176.789062 266.222656 178.625 264.488281 180.390625 262.832031 C 180.335938 264.59375 180.273438 266.386719 180.230469 268.058594 C 180.273438 271.105469 179.730469 274.003906 179.984375 276.78125 C 180.273438 279.558594 180.332031 288.820312 180.582031 291.285156 C 181.039062 296.226562 186.941406 296.421875 187.710938 291.492188 C 188.109375 289.042969 188.71875 279.8125 189.164062 277.066406 C 189.589844 274.300781 189.222656 271.375 189.441406 268.34375 C 189.492188 266.671875 189.550781 264.863281 189.59375 263.101562 C 191.261719 264.878906 192.988281 266.699219 194.734375 268.566406 C 198.835938 272.914062 202.925781 277.257812 206.007812 280.515625 C 206.496094 280.828125 209.425781 284.1875 212.757812 282.039062 C 216.085938 279.902344 213.496094 275.78125 212.714844 274.210938 C 211.929688 272.628906 205.546875 266.59375 201.445312 262.234375 C 197.335938 257.886719 193.242188 253.542969 190.179688 250.269531 C 190.085938 250.210938 190.058594 250.105469 189.992188 250.046875 C 190.171875 244.207031 190.347656 238.070312 190.535156 231.75 C 197.203125 241.429688 208.378906 256.007812 214.300781 254.484375 C 220.496094 252.886719 220.371094 232.246094 219.757812 220.160156 C 224.214844 224.882812 228.546875 229.480469 232.667969 233.859375 C 232.667969 233.960938 232.699219 234.066406 232.667969 234.15625 C 232.535156 238.636719 232.371094 244.609375 232.160156 250.585938 C 231.996094 256.542969 231.234375 265.3125 231.683594 267 C 232.128906 268.703125 232.921875 273.511719 236.851562 272.914062 C 240.761719 272.300781 240.734375 267.835938 240.914062 267.28125 C 241.03125 262.800781 241.195312 256.828125 241.390625 250.855469 C 241.464844 248.316406 241.554688 245.789062 241.628906 243.371094 C 242.824219 244.640625 244.0625 245.96875 245.214844 247.179688 C 247.394531 249.300781 249.039062 251.734375 251.203125 253.511719 C 253.367188 255.273438 259.953125 261.785156 261.867188 263.355469 C 265.703125 266.519531 270.007812 262.472656 267.0625 258.457031 C 265.601562 256.453125 259.507812 249.480469 257.878906 247.222656 C 256.234375 244.96875 253.90625 243.175781 251.917969 240.863281 C 250.769531 239.636719 249.53125 238.324219 248.320312 237.039062 C 250.753906 237.113281 253.277344 237.1875 255.816406 237.277344 C 261.792969 237.441406 267.75 237.621094 272.246094 237.769531 C 272.800781 237.621094 277.25 237.933594 278.101562 234.066406 C 278.921875 230.183594 274.1875 229.109375 272.515625 228.539062 C 270.859375 227.988281 262.0625 228.242188 256.085938 228.0625 C 250.113281 227.867188 244.136719 227.703125 239.65625 227.570312 C 239.554688 227.601562 239.464844 227.539062 239.375 227.523438 C 235.417969 223.328125 231.28125 218.9375 227.007812 214.410156 C 238.554688 216.5625 257.175781 219.085938 260.3125 213.753906 C 263.597656 208.1875 248.542969 193.417969 239.597656 185.359375 C 245.992188 185.558594 252.1875 185.746094 258.089844 185.925781 C 258.164062 185.984375 258.253906 186.027344 258.3125 186.113281 C 261.386719 189.386719 265.480469 193.726562 269.574219 198.085938 C 273.679688 202.429688 279.3125 209.164062 280.835938 210.046875 C 282.359375 210.921875 286.316406 213.769531 288.675781 210.5625 C 291.003906 207.355469 287.824219 204.234375 287.554688 203.71875 C 284.492188 200.460938 280.386719 196.117188 276.292969 191.753906 C 274.546875 189.910156 272.828125 188.078125 271.15625 186.304688 C 272.917969 186.363281 274.710938 186.417969 276.382812 186.464844 C 279.429688 186.417969 282.328125 186.96875 285.105469 186.703125 C 287.882812 186.429688 297.128906 186.363281 299.609375 186.125 C 304.550781 185.660156 304.730469 179.746094 299.816406 178.992188 " fill-opacity="1" fill-rule="nonzero"/></g><g clip-path="url(#96f651c123)"><path fill="#d9d9d9" d="M 234.273438 175.785156 C 224.882812 175.5 215.226562 175.214844 205.453125 174.910156 C 212.042969 168.710938 218.570312 162.566406 224.921875 156.582031 C 224.921875 156.582031 256.660156 152.574219 257.109375 156.523438 C 257.554688 160.476562 234.273438 175.785156 234.273438 175.785156 Z M 254.464844 207.023438 C 251.96875 210.132812 224.695312 204.484375 224.695312 204.484375 L 224.6875 204.851562 C 218.332031 198.097656 211.789062 191.152344 205.175781 184.128906 C 214.433594 184.410156 223.59375 184.683594 232.511719 184.957031 C 236.738281 188.289062 256.691406 204.238281 254.464844 207.023438 Z M 216.890625 240.847656 C 212.9375 241.308594 197.628906 218.011719 197.628906 218.011719 C 197.894531 209.03125 198.175781 199.789062 198.460938 190.441406 C 204.742188 197.117188 210.960938 203.71875 217.011719 210.144531 C 217.742188 216.398438 220.332031 240.472656 216.890625 240.847656 Z M 199.90625 142.289062 L 200.558594 141.738281 C 200.558594 141.738281 220.160156 116.464844 223.277344 118.941406 C 226.019531 121.152344 221.949219 142.644531 220.953125 147.65625 C 213.855469 154.339844 206.539062 161.230469 199.125 168.214844 C 199.386719 159.445312 199.648438 150.757812 199.90625 142.289062 Z M 189.917969 167.929688 C 184.109375 161.757812 178.34375 155.636719 172.71875 149.667969 L 172.832031 148.484375 C 172.832031 148.484375 168.820312 116.753906 172.777344 116.304688 C 176.074219 115.933594 187.164062 131.921875 190.828125 137.359375 C 190.535156 147.28125 190.226562 157.539062 189.917969 167.929688 Z M 188.464844 216.25 C 185.140625 220.476562 169.183594 240.429688 166.394531 238.21875 C 163.648438 236.023438 167.726562 214.53125 168.71875 209.511719 C 175.402344 203.210938 182.289062 196.730469 189.253906 190.171875 C 188.984375 198.996094 188.71875 207.734375 188.464844 216.25 Z M 164.746094 200.589844 C 164.746094 200.589844 133.007812 204.601562 132.558594 200.640625 C 132.191406 197.34375 148.179688 186.253906 153.601562 182.582031 C 163.140625 182.875 172.976562 183.167969 182.929688 183.464844 C 176.792969 189.246094 170.695312 194.988281 164.75 200.589844 Z M 135.199219 150.144531 C 137.21875 147.613281 155.566406 150.863281 162.417969 152.175781 C 169.167969 159.339844 176.144531 166.75 183.207031 174.246094 C 174.871094 174 166.597656 173.75 158.53125 173.507812 L 157.988281 172.863281 C 157.988281 172.863281 132.71875 153.253906 135.199219 150.144531 Z M 306.507812 178.992188 C 304.058594 178.59375 294.8125 177.976562 292.0625 177.535156 C 289.316406 177.113281 286.375 177.484375 283.355469 177.246094 C 281.667969 177.199219 279.863281 177.152344 278.113281 177.097656 C 279.875 175.429688 281.714844 173.699219 283.566406 171.960938 C 287.910156 167.863281 292.273438 163.769531 295.527344 160.695312 C 295.828125 160.199219 299.203125 157.269531 297.050781 153.945312 C 294.902344 150.601562 290.78125 153.203125 289.210938 153.984375 C 287.644531 154.765625 281.59375 161.15625 277.25 165.25 C 272.902344 169.347656 268.539062 173.449219 265.285156 176.515625 C 265.226562 176.609375 265.136719 176.636719 265.046875 176.707031 C 259.59375 176.539062 253.890625 176.371094 248.003906 176.195312 C 257.699219 169.527344 272.273438 158.359375 270.75 152.4375 C 269.078125 146 246.855469 146.390625 235.042969 147.054688 C 239.820312 142.550781 244.449219 138.191406 248.855469 134.039062 C 248.960938 134.042969 249.066406 133.992188 249.171875 134.019531 C 253.636719 134.15625 259.609375 134.335938 265.582031 134.515625 C 271.558594 134.691406 280.308594 135.46875 282.011719 135.007812 C 283.714844 134.550781 288.523438 133.761719 287.910156 129.84375 C 287.3125 125.929688 282.832031 125.964844 282.296875 125.800781 C 277.816406 125.671875 271.839844 125.484375 265.867188 125.308594 C 263.328125 125.230469 260.804688 125.160156 258.371094 125.082031 C 259.65625 123.882812 260.96875 122.636719 262.195312 121.484375 C 264.3125 119.308594 266.734375 117.640625 268.527344 115.496094 C 270.289062 113.339844 276.785156 106.746094 278.367188 104.828125 C 281.535156 100.996094 277.488281 96.695312 273.46875 99.628906 C 271.46875 101.085938 264.492188 107.183594 262.222656 108.816406 C 259.984375 110.464844 258.175781 112.796875 255.875 114.773438 C 254.636719 115.929688 253.335938 117.167969 252.050781 118.367188 C 252.128906 115.941406 252.214844 113.425781 252.277344 110.890625 C 252.457031 104.914062 252.636719 98.945312 252.769531 94.453125 C 252.636719 93.886719 252.949219 89.445312 249.066406 88.597656 C 245.199219 87.757812 244.121094 92.511719 243.570312 94.179688 C 243 95.847656 243.253906 104.636719 243.0625 110.609375 C 242.898438 116.582031 242.71875 122.550781 242.582031 127.03125 C 242.597656 127.136719 242.554688 127.234375 242.539062 127.328125 C 238.820312 130.835938 234.9375 134.5 230.933594 138.261719 C 233.023438 126.675781 235.144531 109.4375 230.023438 106.414062 C 224.132812 102.949219 207.976562 119.949219 200.316406 128.585938 C 200.519531 121.671875 200.726562 114.972656 200.921875 108.613281 C 200.984375 108.542969 201.027344 108.4375 201.125 108.390625 C 204.382812 105.324219 208.742188 101.222656 213.09375 97.125 C 217.433594 93.03125 224.160156 87.390625 225.039062 85.859375 C 225.929688 84.339844 228.753906 80.371094 225.558594 78.039062 C 222.363281 75.691406 219.234375 78.867188 218.722656 79.152344 C 215.460938 82.222656 211.109375 86.316406 206.769531 90.40625 C 204.917969 92.148438 203.082031 93.886719 201.308594 95.554688 C 201.359375 93.800781 201.417969 91.992188 201.472656 90.308594 C 201.417969 87.273438 201.96875 84.367188 201.710938 81.601562 C 201.4375 78.820312 201.371094 69.558594 201.132812 67.097656 C 200.660156 62.152344 194.75 61.964844 193.992188 66.875 C 193.601562 69.332031 192.996094 78.566406 192.550781 81.320312 C 192.113281 84.070312 192.492188 87 192.257812 90.03125 C 192.207031 91.707031 192.148438 93.507812 192.101562 95.269531 C 190.4375 93.503906 188.707031 91.671875 186.972656 89.816406 C 182.867188 85.476562 178.769531 81.113281 175.691406 77.863281 C 175.199219 77.554688 172.277344 74.1875 168.941406 76.324219 C 165.597656 78.480469 168.203125 82.59375 168.992188 84.175781 C 169.773438 85.742188 176.15625 91.789062 180.257812 96.132812 C 184.355469 100.488281 188.445312 104.832031 191.523438 108.105469 C 191.605469 108.171875 191.648438 108.257812 191.707031 108.332031 C 191.554688 113.261719 191.394531 118.402344 191.242188 123.679688 C 184.5 114.085938 174.265625 101.238281 168.683594 102.679688 C 161.984375 104.414062 162.679688 128.40625 163.386719 139.75 C 158.410156 134.46875 153.601562 129.367188 149.046875 124.523438 C 149.050781 124.429688 149 124.335938 149.027344 124.226562 C 149.164062 119.746094 149.335938 113.769531 149.519531 107.804688 C 149.699219 101.832031 150.476562 93.070312 150.007812 91.378906 C 149.558594 89.675781 148.761719 84.863281 144.847656 85.476562 C 140.925781 86.089844 140.964844 90.539062 140.804688 91.101562 C 140.667969 95.585938 140.496094 101.558594 140.3125 107.523438 C 140.238281 110.066406 140.160156 112.59375 140.089844 115.019531 C 138.882812 113.734375 137.644531 112.421875 136.492188 111.191406 C 134.304688 109.082031 132.648438 106.648438 130.5 104.867188 C 128.339844 103.101562 121.753906 96.601562 119.839844 95.019531 C 116.007812 91.859375 111.703125 95.90625 114.636719 99.921875 C 116.097656 101.933594 122.199219 108.898438 123.824219 111.15625 C 125.464844 113.410156 127.800781 115.21875 129.78125 117.515625 C 130.929688 118.734375 132.175781 120.054688 133.375 121.332031 C 130.949219 121.261719 128.433594 121.1875 125.890625 121.105469 C 119.910156 120.941406 113.941406 120.753906 109.460938 120.621094 C 108.902344 120.757812 104.457031 120.445312 103.605469 124.320312 C 102.765625 128.191406 107.519531 129.265625 109.1875 129.832031 C 110.851562 130.394531 119.644531 130.148438 125.613281 130.324219 C 131.589844 130.503906 137.554688 130.683594 142.039062 130.820312 C 142.144531 130.789062 142.242188 130.835938 142.332031 130.839844 C 145.78125 134.507812 149.367188 138.3125 153.054688 142.230469 C 141.53125 140.238281 125.574219 138.5 122.675781 143.40625 C 119.210938 149.292969 136.199219 165.453125 144.835938 173.101562 C 137.472656 172.875 130.367188 172.664062 123.617188 172.464844 C 123.550781 172.398438 123.445312 172.355469 123.398438 172.261719 C 120.324219 169.007812 116.230469 164.648438 112.128906 160.304688 C 108.03125 155.953125 102.386719 149.210938 100.867188 148.34375 C 99.339844 147.457031 95.378906 144.621094 93.039062 147.820312 C 90.699219 151.019531 93.878906 154.136719 94.152344 154.664062 C 97.222656 157.917969 101.324219 162.269531 105.417969 166.621094 C 107.164062 168.476562 108.890625 170.308594 110.558594 172.078125 C 108.808594 172.019531 106.996094 171.972656 105.320312 171.917969 C 102.273438 171.960938 99.382812 171.429688 96.609375 171.679688 C 93.832031 171.953125 84.574219 172.011719 82.101562 172.25 C 77.148438 172.722656 76.976562 178.632812 81.898438 179.390625 C 84.339844 179.789062 93.585938 180.402344 96.335938 180.839844 C 99.089844 181.269531 102.007812 180.902344 105.039062 181.128906 C 106.71875 181.179688 108.523438 181.238281 110.277344 181.28125 C 108.515625 182.949219 106.679688 184.675781 104.832031 186.414062 C 100.488281 190.523438 96.125 194.613281 92.863281 197.6875 C 92.5625 198.183594 89.199219 201.113281 91.34375 204.449219 C 93.484375 207.785156 97.609375 205.183594 99.1875 204.394531 C 100.757812 203.609375 106.800781 197.226562 111.148438 193.128906 C 115.496094 189.035156 119.847656 184.941406 123.113281 181.867188 C 123.167969 181.777344 123.257812 181.742188 123.339844 181.679688 C 128.65625 181.835938 134.226562 182.011719 139.9375 182.175781 C 130.347656 188.917969 117.5 199.152344 118.9375 204.742188 C 120.597656 211.179688 142.832031 210.792969 154.640625 210.113281 C 149.402344 215.039062 144.339844 219.820312 139.535156 224.34375 C 139.4375 224.34375 139.34375 224.386719 139.234375 224.359375 C 134.757812 224.222656 128.785156 224.046875 122.816406 223.867188 C 116.84375 223.6875 108.089844 222.910156 106.386719 223.371094 C 104.691406 223.835938 99.871094 224.613281 100.484375 228.539062 C 101.097656 232.453125 105.554688 232.410156 106.109375 232.589844 C 110.59375 232.722656 116.566406 232.902344 122.542969 233.082031 C 125.078125 233.15625 127.59375 233.230469 130.023438 233.304688 C 128.75 234.5 127.4375 235.738281 126.207031 236.890625 C 124.09375 239.070312 121.660156 240.742188 119.875 242.878906 C 118.113281 245.042969 111.609375 251.628906 110.035156 253.558594 C 106.859375 257.378906 110.914062 261.683594 114.929688 258.753906 C 116.941406 257.289062 123.914062 251.195312 126.171875 249.570312 C 128.417969 247.910156 130.226562 245.582031 132.523438 243.59375 C 133.753906 242.445312 135.070312 241.207031 136.34375 240.011719 C 136.269531 242.445312 136.199219 244.953125 136.125 247.492188 C 135.945312 253.46875 135.761719 259.441406 135.628906 263.921875 C 135.761719 264.488281 135.457031 268.941406 139.328125 269.777344 C 143.199219 270.628906 144.28125 265.863281 144.835938 264.207031 C 145.394531 262.53125 145.148438 253.75 145.332031 247.761719 C 145.511719 241.804688 145.691406 235.828125 145.820312 231.347656 C 145.796875 231.242188 145.855469 231.152344 145.855469 231.050781 C 149.980469 227.167969 154.304688 223.089844 158.75 218.90625 C 156.667969 230.480469 154.546875 247.730469 159.660156 250.75 C 165.234375 254.035156 180.011719 238.980469 188.058594 230.035156 C 187.847656 236.875 187.664062 243.492188 187.464844 249.761719 C 187.398438 249.839844 187.363281 249.941406 187.269531 249.988281 C 183.996094 253.050781 179.652344 257.171875 175.300781 261.25 C 170.964844 265.355469 164.226562 271 163.328125 272.523438 C 162.460938 274.046875 159.613281 278.007812 162.828125 280.351562 C 166.015625 282.679688 169.136719 279.5 169.660156 279.230469 C 172.925781 276.167969 177.273438 272.046875 181.628906 267.96875 C 183.480469 266.222656 185.316406 264.488281 187.078125 262.832031 C 187.027344 264.59375 186.960938 266.386719 186.921875 268.058594 C 186.960938 271.105469 186.421875 274.003906 186.675781 276.78125 C 186.960938 279.558594 187.019531 288.820312 187.269531 291.285156 C 187.726562 296.226562 193.628906 296.421875 194.398438 291.492188 C 194.796875 289.042969 195.410156 279.8125 195.851562 277.066406 C 196.277344 274.300781 195.910156 271.375 196.132812 268.34375 C 196.179688 266.671875 196.238281 264.863281 196.285156 263.101562 C 197.953125 264.878906 199.679688 266.699219 201.425781 268.566406 C 205.527344 272.914062 209.617188 277.257812 212.695312 280.515625 C 213.183594 280.828125 216.113281 284.1875 219.445312 282.039062 C 222.777344 279.902344 220.1875 275.78125 219.402344 274.210938 C 218.617188 272.628906 212.234375 266.59375 208.132812 262.234375 C 204.027344 257.886719 199.929688 253.542969 196.867188 250.269531 C 196.773438 250.210938 196.746094 250.105469 196.683594 250.046875 C 196.863281 244.207031 197.039062 238.070312 197.222656 231.75 C 203.894531 241.429688 215.070312 256.007812 220.992188 254.484375 C 227.1875 252.886719 227.058594 232.246094 226.445312 220.160156 C 230.90625 224.882812 235.234375 229.480469 239.359375 233.859375 C 239.359375 233.960938 239.386719 234.066406 239.359375 234.15625 C 239.222656 238.636719 239.058594 244.609375 238.851562 250.585938 C 238.6875 256.542969 237.925781 265.3125 238.371094 267 C 238.820312 268.703125 239.613281 273.511719 243.539062 272.914062 C 247.453125 272.300781 247.421875 267.835938 247.601562 267.28125 C 247.722656 262.800781 247.886719 256.828125 248.078125 250.855469 C 248.15625 248.316406 248.242188 245.789062 248.320312 243.371094 C 249.511719 244.640625 250.753906 245.96875 251.902344 247.179688 C 254.082031 249.300781 255.726562 251.734375 257.890625 253.511719 C 260.058594 255.273438 266.644531 261.785156 268.554688 263.355469 C 272.394531 266.519531 276.695312 262.472656 273.753906 258.457031 C 272.289062 256.453125 266.195312 249.480469 264.566406 247.222656 C 262.925781 244.96875 260.59375 243.175781 258.609375 240.863281 C 257.460938 239.636719 256.21875 238.324219 255.007812 237.039062 C 257.445312 237.113281 259.96875 237.1875 262.507812 237.277344 C 268.480469 237.441406 274.441406 237.621094 278.9375 237.769531 C 279.488281 237.621094 283.9375 237.933594 284.789062 234.066406 C 285.613281 230.183594 280.878906 229.109375 279.203125 228.539062 C 277.546875 227.988281 268.75 228.242188 262.777344 228.0625 C 256.800781 227.867188 250.828125 227.703125 246.347656 227.570312 C 246.242188 227.601562 246.152344 227.539062 246.0625 227.523438 C 242.105469 223.328125 237.96875 218.9375 233.695312 214.410156 C 245.242188 216.5625 263.867188 219.085938 267.003906 213.753906 C 270.289062 208.1875 255.234375 193.417969 246.289062 185.359375 C 252.679688 185.558594 258.878906 185.746094 264.777344 185.925781 C 264.851562 185.984375 264.941406 186.027344 265 186.113281 C 268.078125 189.386719 272.171875 193.726562 276.261719 198.085938 C 280.371094 202.429688 286 209.164062 287.523438 210.046875 C 289.046875 210.921875 293.003906 213.769531 295.363281 210.5625 C 297.695312 207.355469 294.511719 204.234375 294.246094 203.71875 C 291.183594 200.460938 287.074219 196.117188 282.984375 191.753906 C 281.234375 189.910156 279.519531 188.078125 277.84375 186.304688 C 279.609375 186.363281 281.398438 186.417969 283.074219 186.464844 C 286.121094 186.417969 289.015625 186.96875 291.796875 186.703125 C 294.574219 186.429688 303.816406 186.363281 306.296875 186.125 C 311.242188 185.660156 311.417969 179.746094 306.507812 178.992188 " fill-opacity="1" fill-rule="nonzero"/></g></svg>