<svg xmlns="http://www.w3.org/2000/svg" xmlns:xlink="http://www.w3.org/1999/xlink" width="500" zoomAndPan="magnify" viewBox="0 0 375 374.999991" height="500" preserveAspectRatio="xMidYMid meet" version="1.0"><defs><g/><clipPath id="477f03d5f3"><path d="M 0 182.378906 L 375 182.378906 L 375 375 L 0 375 Z M 0 182.378906 " clip-rule="nonzero"/></clipPath></defs><g clip-path="url(#477f03d5f3)"><path fill="#b7cce9" d="M 0 182.378906 L 374.707031 182.378906 L 374.707031 375 L 0 375 Z M 0 182.378906 " fill-opacity="1" fill-rule="nonzero"/></g><g fill="#91a8e0" fill-opacity="1"><g transform="translate(22.73648, 73.298579)"><g><path d="M -1.359375 0 L -1.359375 -0.140625 L -0.75 -0.140625 C -0.1875 -0.140625 0.421875 -0.363281 1.078125 -0.8125 C 1.734375 -1.269531 2.332031 -1.859375 2.875 -2.578125 C 3.425781 -3.296875 3.828125 -4.046875 4.078125 -4.828125 C 5.734375 -9.984375 7.375 -15.144531 9 -20.3125 C 10.625 -25.488281 12.25 -30.671875 13.875 -35.859375 L 13.734375 -36.328125 C 14.296875 -36.390625 14.769531 -36.613281 15.15625 -37 C 15.550781 -37.394531 15.71875 -37.78125 15.65625 -38.15625 L 15.9375 -38.15625 C 17.65625 -32.59375 19.359375 -27.035156 21.046875 -21.484375 C 22.734375 -15.941406 24.421875 -10.390625 26.109375 -4.828125 C 26.359375 -4.046875 26.671875 -3.296875 27.046875 -2.578125 C 27.421875 -1.859375 27.816406 -1.269531 28.234375 -0.8125 C 28.660156 -0.363281 29.015625 -0.140625 29.296875 -0.140625 L 29.625 -0.140625 L 29.625 0 L 20.671875 0 L 20.671875 -0.140625 L 21.28125 -0.140625 C 22.09375 -0.140625 22.703125 -0.597656 23.109375 -1.515625 C 23.515625 -2.441406 23.5625 -3.484375 23.25 -4.640625 L 20.25 -14.625 L 7.359375 -14.625 L 4.171875 -4.40625 C 3.921875 -3.3125 4 -2.328125 4.40625 -1.453125 C 4.8125 -0.578125 5.40625 -0.140625 6.1875 -0.140625 L 6.796875 -0.140625 L 6.796875 0 Z M 7.453125 -14.859375 L 20.203125 -14.859375 L 13.96875 -35.578125 Z M 7.453125 -14.859375 "/></g></g></g><g fill="#91a8e0" fill-opacity="1"><g transform="translate(53.272353, 73.298579)"><g><path d="M 13.3125 0 L 4.921875 -0.046875 L 4.921875 -37.265625 L 12.1875 -37.265625 C 15.4375 -37.265625 18.109375 -36.828125 20.203125 -35.953125 C 22.296875 -35.078125 23.847656 -33.957031 24.859375 -32.59375 C 25.878906 -31.238281 26.390625 -29.796875 26.390625 -28.265625 C 26.390625 -26.890625 25.832031 -25.566406 24.71875 -24.296875 C 23.613281 -23.035156 22.171875 -21.957031 20.390625 -21.0625 C 18.609375 -20.175781 16.671875 -19.59375 14.578125 -19.3125 C 16.171875 -19.3125 17.707031 -19.035156 19.1875 -18.484375 C 20.675781 -17.941406 22.019531 -17.207031 23.21875 -16.28125 C 24.425781 -15.363281 25.378906 -14.332031 26.078125 -13.1875 C 26.785156 -12.050781 27.140625 -10.875 27.140625 -9.65625 C 27.140625 -8.03125 26.75 -6.609375 25.96875 -5.390625 C 25.1875 -4.171875 24.140625 -3.160156 22.828125 -2.359375 C 21.515625 -1.566406 20.035156 -0.972656 18.390625 -0.578125 C 16.753906 -0.191406 15.0625 0 13.3125 0 Z M 12.28125 -19.3125 C 13.71875 -19.3125 15.113281 -19.550781 16.46875 -20.03125 C 17.832031 -20.519531 19.050781 -21.175781 20.125 -22 C 21.207031 -22.832031 22.066406 -23.765625 22.703125 -24.796875 C 23.347656 -25.828125 23.671875 -26.890625 23.671875 -27.984375 C 23.671875 -29.515625 23.25 -30.972656 22.40625 -32.359375 C 21.5625 -33.753906 20.265625 -34.890625 18.515625 -35.765625 C 16.765625 -36.640625 14.546875 -37.078125 11.859375 -37.078125 L 7.6875 -37.078125 L 7.6875 -19.3125 Z M 13.078125 -0.09375 C 14.953125 -0.09375 16.722656 -0.4375 18.390625 -1.125 C 20.066406 -1.8125 21.4375 -2.863281 22.5 -4.28125 C 23.5625 -5.707031 24.09375 -7.5 24.09375 -9.65625 C 24.09375 -10.84375 23.8125 -12 23.25 -13.125 C 22.6875 -14.25 21.921875 -15.265625 20.953125 -16.171875 C 19.984375 -17.078125 18.890625 -17.796875 17.671875 -18.328125 C 16.453125 -18.859375 15.203125 -19.125 13.921875 -19.125 L 7.6875 -19.125 L 7.6875 -1.59375 C 7.6875 -1.21875 8 -0.875 8.625 -0.5625 C 9.25 -0.25 9.953125 -0.09375 10.734375 -0.09375 Z M 13.078125 -0.09375 "/></g></g></g><g fill="#91a8e0" fill-opacity="1"><g transform="translate(83.151976, 73.298579)"><g><path d="M 32.484375 -2.859375 L 32.25 -2.8125 L 32.203125 -3.46875 C 32.171875 -3.84375 31.910156 -4.015625 31.421875 -3.984375 C 30.941406 -3.953125 30.390625 -3.75 29.765625 -3.375 C 28.328125 -2.3125 26.613281 -1.40625 24.625 -0.65625 C 22.644531 0.09375 20.53125 0.46875 18.28125 0.46875 C 16.34375 0.46875 14.453125 -0.0625 12.609375 -1.125 C 10.765625 -2.1875 9.109375 -3.625 7.640625 -5.4375 C 6.171875 -7.25 5.003906 -9.296875 4.140625 -11.578125 C 3.285156 -13.859375 2.859375 -16.203125 2.859375 -18.609375 C 2.859375 -21.015625 3.300781 -23.359375 4.1875 -25.640625 C 5.082031 -27.921875 6.296875 -29.96875 7.828125 -31.78125 C 9.359375 -33.59375 11.078125 -35.03125 12.984375 -36.09375 C 14.890625 -37.15625 16.84375 -37.6875 18.84375 -37.6875 C 21.03125 -37.6875 23.046875 -37.300781 24.890625 -36.53125 C 26.734375 -35.769531 28.359375 -34.84375 29.765625 -33.75 C 30.390625 -33.375 30.941406 -33.171875 31.421875 -33.140625 C 31.910156 -33.109375 32.171875 -33.265625 32.203125 -33.609375 L 32.25 -34.265625 L 32.484375 -34.265625 L 32.484375 -29.15625 L 31.875 -29.15625 C 31.65625 -29.8125 31.253906 -30.515625 30.671875 -31.265625 C 30.097656 -32.015625 29.453125 -32.734375 28.734375 -33.421875 C 28.015625 -34.109375 27.296875 -34.671875 26.578125 -35.109375 C 25.421875 -35.828125 24.203125 -36.40625 22.921875 -36.84375 C 21.640625 -37.28125 20.3125 -37.5 18.9375 -37.5 C 17.3125 -37.5 15.71875 -36.96875 14.15625 -35.90625 C 12.59375 -34.84375 11.191406 -33.421875 9.953125 -31.640625 C 8.722656 -29.859375 7.738281 -27.84375 7 -25.59375 C 6.269531 -23.34375 5.90625 -21.015625 5.90625 -18.609375 C 5.90625 -16.234375 6.253906 -13.910156 6.953125 -11.640625 C 7.660156 -9.378906 8.609375 -7.359375 9.796875 -5.578125 C 10.984375 -3.796875 12.316406 -2.375 13.796875 -1.3125 C 15.285156 -0.25 16.8125 0.28125 18.375 0.28125 C 19.9375 0.28125 21.457031 0.0390625 22.9375 -0.4375 C 24.425781 -0.925781 25.796875 -1.5625 27.046875 -2.34375 C 27.640625 -2.75 28.25 -3.25 28.875 -3.84375 C 29.5 -4.4375 30.0625 -5.050781 30.5625 -5.6875 C 31.0625 -6.332031 31.40625 -6.890625 31.59375 -7.359375 C 31.625 -7.453125 31.671875 -7.5625 31.734375 -7.6875 C 31.796875 -7.8125 31.84375 -7.921875 31.875 -8.015625 L 32.484375 -8.015625 Z M 32.484375 -2.859375 "/></g></g></g><g fill="#91a8e0" fill-opacity="1"><g transform="translate(118.656599, 73.298579)"><g><path d="M 11.953125 0 L 4.921875 0 L 4.921875 -37.21875 L 14.0625 -37.21875 C 16.90625 -37.21875 19.566406 -36.691406 22.046875 -35.640625 C 24.535156 -34.597656 26.71875 -33.191406 28.59375 -31.421875 C 30.46875 -29.660156 31.9375 -27.671875 33 -25.453125 C 34.0625 -23.234375 34.59375 -20.953125 34.59375 -18.609375 C 34.59375 -16.015625 33.957031 -13.59375 32.6875 -11.34375 C 31.425781 -9.09375 29.71875 -7.113281 27.5625 -5.40625 C 25.40625 -3.707031 22.984375 -2.378906 20.296875 -1.421875 C 17.609375 -0.472656 14.828125 0 11.953125 0 Z M 11.671875 -0.1875 C 14.203125 -0.1875 16.65625 -0.660156 19.03125 -1.609375 C 21.40625 -2.566406 23.535156 -3.890625 25.421875 -5.578125 C 27.316406 -7.265625 28.816406 -9.21875 29.921875 -11.4375 C 31.035156 -13.65625 31.59375 -16.046875 31.59375 -18.609375 C 31.59375 -20.921875 31.125 -23.175781 30.1875 -25.375 C 29.25 -27.582031 27.953125 -29.5625 26.296875 -31.3125 C 24.640625 -33.0625 22.707031 -34.453125 20.5 -35.484375 C 18.300781 -36.515625 15.9375 -37.03125 13.40625 -37.03125 L 7.6875 -37.03125 L 7.6875 -1.59375 C 7.6875 -1.25 7.972656 -0.925781 8.546875 -0.625 C 9.128906 -0.332031 10.171875 -0.1875 11.671875 -0.1875 Z M 11.671875 -0.1875 "/></g></g></g><g fill="#91a8e0" fill-opacity="1"><g transform="translate(156.692471, 73.298579)"><g><path d="M 20.625 -15.140625 L 20.203125 -15.140625 L 20.0625 -15.75 C 19.96875 -16.3125 19.6875 -16.847656 19.21875 -17.359375 C 18.75 -17.878906 18.203125 -18.300781 17.578125 -18.625 C 16.953125 -18.957031 16.328125 -19.125 15.703125 -19.125 L 7.6875 -19.125 L 7.6875 -1.59375 C 7.6875 -1.25 7.800781 -0.925781 8.03125 -0.625 C 8.269531 -0.332031 8.6875 -0.1875 9.28125 -0.1875 L 18.609375 -0.1875 C 19.453125 -0.1875 20.296875 -0.328125 21.140625 -0.609375 C 21.984375 -0.890625 22.734375 -1.253906 23.390625 -1.703125 C 24.046875 -2.160156 24.46875 -2.640625 24.65625 -3.140625 L 24.890625 -3.703125 L 25.3125 -3.703125 C 25.25 -3.265625 25.144531 -2.660156 25 -1.890625 C 24.863281 -1.128906 24.75 -0.53125 24.65625 -0.09375 L 24.65625 0 L 4.921875 0 L 4.921875 -37.21875 L 23.484375 -37.21875 L 23.484375 -37.03125 L 23.4375 -37.03125 L 23.953125 -33.046875 L 23.53125 -33.046875 L 23.296875 -33.65625 C 23.140625 -34.21875 22.800781 -34.753906 22.28125 -35.265625 C 21.769531 -35.785156 21.175781 -36.207031 20.5 -36.53125 C 19.832031 -36.863281 19.171875 -37.03125 18.515625 -37.03125 L 7.6875 -37.03125 L 7.6875 -19.3125 L 15.703125 -19.3125 C 16.328125 -19.3125 16.953125 -19.472656 17.578125 -19.796875 C 18.203125 -20.128906 18.75 -20.550781 19.21875 -21.0625 C 19.6875 -21.582031 19.96875 -22.125 20.0625 -22.6875 L 20.203125 -23.296875 L 20.625 -23.296875 L 20.625 -19.3125 L 20.671875 -19.3125 L 20.671875 -19.125 L 20.625 -19.125 Z M 20.625 -15.140625 "/></g></g></g><g fill="#91a8e0" fill-opacity="1"><g transform="translate(184.41585, 73.298579)"><g><path d="M 19.734375 -23.296875 L 20.15625 -23.296875 L 20.15625 -19.3125 L 20.203125 -19.3125 L 20.203125 -19.125 L 20.15625 -19.125 L 20.15625 -15.140625 L 19.734375 -15.140625 L 19.59375 -15.75 C 19.5 -16.3125 19.21875 -16.847656 18.75 -17.359375 C 18.28125 -17.878906 17.734375 -18.300781 17.109375 -18.625 C 16.484375 -18.957031 15.859375 -19.125 15.234375 -19.125 L 7.6875 -19.125 L 7.6875 0 L 4.921875 0 L 4.921875 -37.21875 L 23.484375 -37.21875 L 23.484375 -37.078125 L 23.4375 -37.078125 L 23.953125 -33.09375 L 23.53125 -33.09375 L 23.296875 -33.703125 C 23.140625 -34.265625 22.800781 -34.800781 22.28125 -35.3125 C 21.769531 -35.832031 21.175781 -36.253906 20.5 -36.578125 C 19.832031 -36.910156 19.171875 -37.078125 18.515625 -37.078125 L 7.6875 -37.078125 L 7.6875 -19.3125 L 15.234375 -19.3125 C 15.859375 -19.3125 16.484375 -19.472656 17.109375 -19.796875 C 17.734375 -20.128906 18.28125 -20.550781 18.75 -21.0625 C 19.21875 -21.582031 19.5 -22.125 19.59375 -22.6875 Z M 19.734375 -23.296875 "/></g></g></g><g fill="#91a8e0" fill-opacity="1"><g transform="translate(210.967355, 73.298579)"><g><path d="M 35.0625 -3.046875 L 35.15625 -2.90625 C 33.9375 -2.34375 32.410156 -1.800781 30.578125 -1.28125 C 28.753906 -0.769531 26.796875 -0.347656 24.703125 -0.015625 C 22.609375 0.304688 20.515625 0.46875 18.421875 0.46875 C 16.453125 0.46875 14.535156 -0.0625 12.671875 -1.125 C 10.816406 -2.1875 9.15625 -3.625 7.6875 -5.4375 C 6.21875 -7.25 5.046875 -9.296875 4.171875 -11.578125 C 3.296875 -13.859375 2.859375 -16.203125 2.859375 -18.609375 C 2.859375 -21.015625 3.300781 -23.359375 4.1875 -25.640625 C 5.082031 -27.921875 6.296875 -29.96875 7.828125 -31.78125 C 9.359375 -33.59375 11.078125 -35.03125 12.984375 -36.09375 C 14.890625 -37.15625 16.84375 -37.6875 18.84375 -37.6875 C 21.03125 -37.6875 23.046875 -37.300781 24.890625 -36.53125 C 26.734375 -35.769531 28.359375 -34.84375 29.765625 -33.75 C 30.390625 -33.375 30.941406 -33.171875 31.421875 -33.140625 C 31.910156 -33.109375 32.171875 -33.265625 32.203125 -33.609375 L 32.25 -34.265625 L 32.484375 -34.265625 L 32.484375 -29.15625 L 31.875 -29.15625 L 31.96875 -29.203125 C 31.75 -29.859375 31.347656 -30.5625 30.765625 -31.3125 C 30.191406 -32.0625 29.546875 -32.78125 28.828125 -33.46875 C 28.109375 -34.15625 27.390625 -34.71875 26.671875 -35.15625 C 25.515625 -35.875 24.296875 -36.453125 23.015625 -36.890625 C 21.734375 -37.328125 20.40625 -37.546875 19.03125 -37.546875 C 17.40625 -37.546875 15.8125 -37.015625 14.25 -35.953125 C 12.6875 -34.890625 11.285156 -33.46875 10.046875 -31.6875 C 8.816406 -29.90625 7.832031 -27.890625 7.09375 -25.640625 C 6.363281 -23.390625 6 -21.0625 6 -18.65625 C 6 -16.3125 6.359375 -14.035156 7.078125 -11.828125 C 7.796875 -9.628906 8.78125 -7.644531 10.03125 -5.875 C 11.28125 -4.113281 12.675781 -2.71875 14.21875 -1.6875 C 15.769531 -0.65625 17.359375 -0.140625 18.984375 -0.140625 L 20.4375 -0.140625 C 20.15625 -0.140625 19.894531 -0.128906 19.65625 -0.109375 C 19.425781 -0.0976562 19.21875 -0.09375 19.03125 -0.09375 C 19.28125 -0.09375 19.546875 -0.0976562 19.828125 -0.109375 C 20.109375 -0.128906 20.375 -0.15625 20.625 -0.1875 C 21.90625 -0.25 23.171875 -0.34375 24.421875 -0.46875 C 25.671875 -0.59375 26.875 -0.765625 28.03125 -0.984375 C 27.28125 -0.890625 26.238281 -0.765625 24.90625 -0.609375 C 23.582031 -0.453125 22.328125 -0.328125 21.140625 -0.234375 C 22.484375 -0.390625 23.71875 -0.640625 24.84375 -0.984375 C 25.96875 -1.328125 26.894531 -1.738281 27.625 -2.21875 C 28.363281 -2.707031 28.78125 -3.21875 28.875 -3.75 L 28.875 -12 C 28.875 -13 28.875 -13.910156 28.875 -14.734375 C 28.875 -15.566406 28.875 -15.984375 28.875 -15.984375 L 28.875 -16.125 L 31.640625 -16.125 L 31.640625 -1.828125 C 32.984375 -2.203125 34.125 -2.609375 35.0625 -3.046875 Z M 21.1875 -0.234375 C 21.09375 -0.203125 21 -0.1875 20.90625 -0.1875 C 20.8125 -0.1875 20.71875 -0.1875 20.625 -0.1875 C 20.53125 -0.1875 20.46875 -0.171875 20.4375 -0.140625 C 20.5625 -0.171875 20.6875 -0.1875 20.8125 -0.1875 C 20.9375 -0.1875 21.0625 -0.203125 21.1875 -0.234375 Z M 21.1875 -0.234375 "/></g></g></g><g fill="#91a8e0" fill-opacity="1"><g transform="translate(247.690733, 73.298579)"><g><path d="M 30.75 0 L 27.984375 0 L 27.984375 -18.984375 L 9.375 -18.984375 L 9.375 0 L 6.609375 0 L 6.609375 -37.21875 L 9.375 -37.21875 L 9.375 -19.21875 L 27.984375 -19.21875 L 27.984375 -37.21875 L 30.75 -37.21875 Z M 30.75 0 "/></g></g></g><g fill="#91a8e0" fill-opacity="1"><g transform="translate(283.710987, 73.298579)"><g><path d="M 7.921875 0 L 5.15625 0 L 5.15625 -37.21875 L 7.921875 -37.21875 Z M 7.921875 0 "/></g></g></g><g fill="#91a8e0" fill-opacity="1"><g transform="translate(296.903117, 73.298579)"><g><path d="M 5.15625 1.59375 L 5.15625 -37.21875 L 7.921875 -37.21875 L 7.921875 -3.65625 C 7.921875 -1.1875 7.609375 0.925781 6.984375 2.6875 C 6.359375 4.457031 5.578125 5.90625 4.640625 7.03125 C 3.703125 8.15625 2.722656 8.984375 1.703125 9.515625 C 0.691406 10.046875 -0.203125 10.3125 -0.984375 10.3125 C -1.765625 10.3125 -2.484375 10.175781 -3.140625 9.90625 C -3.796875 9.644531 -4.125 9.359375 -4.125 9.046875 C -4.125 8.734375 -3.988281 8.453125 -3.71875 8.203125 C -3.457031 7.953125 -3.171875 7.828125 -2.859375 7.828125 C -2.484375 7.828125 -2.21875 8.003906 -2.0625 8.359375 C -1.90625 8.722656 -1.75 9.09375 -1.59375 9.46875 C -1.4375 9.84375 -1.171875 10.03125 -0.796875 10.03125 C -0.078125 10.03125 0.738281 9.738281 1.65625 9.15625 C 2.582031 8.582031 3.394531 7.671875 4.09375 6.421875 C 4.800781 5.171875 5.15625 3.5625 5.15625 1.59375 Z M 5.15625 1.59375 "/></g></g></g><g fill="#91a8e0" fill-opacity="1"><g transform="translate(310.095247, 73.298579)"><g><path d="M 4.921875 -37.265625 L 7.6875 -37.265625 L 7.6875 -0.046875 L 4.921875 -0.046875 Z M 26.8125 -2.25 C 27.4375 -1.65625 28.078125 -1.15625 28.734375 -0.75 C 29.390625 -0.34375 29.953125 -0.140625 30.421875 -0.140625 L 30.421875 -0.046875 L 25.21875 -0.046875 L 7.6875 -18.65625 L 19.828125 -32.578125 C 20.828125 -33.734375 21.316406 -34.78125 21.296875 -35.71875 C 21.285156 -36.65625 20.78125 -37.125 19.78125 -37.125 L 19.03125 -37.125 L 19.03125 -37.265625 L 27.515625 -37.265625 L 27.515625 -37.125 C 26.765625 -37.125 25.910156 -36.847656 24.953125 -36.296875 C 24.003906 -35.753906 23.140625 -35.0625 22.359375 -34.21875 L 9.890625 -20.34375 Z M 26.8125 -2.25 "/></g></g></g><g fill="#91a8e0" fill-opacity="1"><g transform="translate(22.73648, 122.048576)"><g><path d="M 9.515625 -0.46875 L 19.125 -0.515625 C 19.96875 -0.515625 20.8125 -0.65625 21.65625 -0.9375 C 22.5 -1.21875 23.25 -1.582031 23.90625 -2.03125 C 24.5625 -2.488281 24.984375 -2.96875 25.171875 -3.46875 L 25.40625 -4.03125 L 25.828125 -4.03125 C 25.734375 -3.53125 25.597656 -2.863281 25.421875 -2.03125 C 25.253906 -1.207031 25.171875 -0.53125 25.171875 0 L 5.15625 0 L 5.15625 -37.21875 L 7.921875 -37.21875 L 7.921875 -1.59375 C 7.921875 -1.3125 8.035156 -1.050781 8.265625 -0.8125 C 8.503906 -0.582031 8.921875 -0.46875 9.515625 -0.46875 Z M 9.515625 -0.46875 "/></g></g></g><g fill="#91a8e0" fill-opacity="1"><g transform="translate(49.897353, 122.048576)"><g><path d="M 35.671875 -37.21875 L 35.765625 -36.984375 C 34.828125 -36.984375 34.3125 -36.34375 34.21875 -35.0625 L 35.109375 -2.390625 C 35.140625 -1.796875 35.300781 -1.253906 35.59375 -0.765625 C 35.894531 -0.285156 36.203125 -0.046875 36.515625 -0.046875 L 36.796875 -0.046875 L 36.796875 0.09375 L 30.796875 0.09375 L 30.796875 -0.046875 C 31.734375 -0.046875 32.25 -0.71875 32.34375 -2.0625 L 31.546875 -34.546875 L 19.453125 -0.1875 L 19.40625 0.046875 L 18.703125 0.046875 C 16.515625 -5.453125 14.332031 -10.957031 12.15625 -16.46875 C 9.988281 -21.988281 7.8125 -27.5 5.625 -33 L 5.015625 -2.25 C 5.046875 -1.71875 5.191406 -1.234375 5.453125 -0.796875 C 5.722656 -0.359375 6.015625 -0.140625 6.328125 -0.140625 L 6.609375 -0.140625 L 6.609375 0 L 2.34375 0 L 2.34375 -0.140625 L 2.625 -0.140625 C 2.96875 -0.140625 3.28125 -0.378906 3.5625 -0.859375 C 3.84375 -1.347656 4 -1.890625 4.03125 -2.484375 C 4.1875 -7.859375 4.332031 -13.238281 4.46875 -18.625 C 4.613281 -24.019531 4.765625 -29.40625 4.921875 -34.78125 C 4.671875 -35.4375 4.300781 -35.984375 3.8125 -36.421875 C 3.332031 -36.859375 2.859375 -37.078125 2.390625 -37.078125 L 2.390625 -37.21875 L 7.265625 -37.21875 L 19.875 -3.515625 L 31.40625 -37.21875 Z M 35.671875 -37.21875 "/></g></g></g><g fill="#91a8e0" fill-opacity="1"><g transform="translate(88.026976, 122.048576)"><g><path d="M 2.578125 0 L 2.578125 -0.140625 L 2.859375 -0.140625 C 3.203125 -0.140625 3.515625 -0.378906 3.796875 -0.859375 C 4.078125 -1.347656 4.21875 -1.890625 4.21875 -2.484375 L 4.265625 -34.125 L 3.84375 -34.734375 C 3.40625 -35.421875 2.890625 -35.984375 2.296875 -36.421875 C 1.703125 -36.859375 1.140625 -37.078125 0.609375 -37.078125 L 0.609375 -37.21875 L 5.578125 -37.21875 L 27.28125 -5.578125 L 27.5625 -5.15625 L 27.515625 -34.734375 L 27.515625 -37.21875 L 29.953125 -37.21875 L 29.953125 -37.078125 L 29.671875 -37.078125 C 29.328125 -37.078125 29.015625 -36.832031 28.734375 -36.34375 C 28.453125 -35.863281 28.3125 -35.328125 28.3125 -34.734375 L 28.125 0 L 27.5625 0 C 23.8125 -5.53125 20.050781 -11.050781 16.28125 -16.5625 C 12.519531 -22.082031 8.75 -27.59375 4.96875 -33.09375 L 5.0625 -2.484375 C 5.0625 -1.890625 5.203125 -1.347656 5.484375 -0.859375 C 5.765625 -0.378906 6.078125 -0.140625 6.421875 -0.140625 L 6.703125 -0.140625 L 6.703125 0 Z M 2.578125 0 "/></g></g></g><g fill="#91a8e0" fill-opacity="1"><g transform="translate(121.609718, 122.048576)"><g><path d="M 2.859375 -18.609375 C 2.859375 -21.015625 3.328125 -23.359375 4.265625 -25.640625 C 5.203125 -27.921875 6.46875 -29.96875 8.0625 -31.78125 C 9.65625 -33.59375 11.453125 -35.03125 13.453125 -36.09375 C 15.453125 -37.15625 17.5 -37.6875 19.59375 -37.6875 C 21.75 -37.6875 23.847656 -37.15625 25.890625 -36.09375 C 27.941406 -35.03125 29.785156 -33.59375 31.421875 -31.78125 C 33.066406 -29.96875 34.363281 -27.921875 35.3125 -25.640625 C 36.269531 -23.359375 36.75 -21.015625 36.75 -18.609375 C 36.75 -16.203125 36.253906 -13.859375 35.265625 -11.578125 C 34.285156 -9.296875 32.957031 -7.25 31.28125 -5.4375 C 29.613281 -3.625 27.722656 -2.1875 25.609375 -1.125 C 23.503906 -0.0625 21.34375 0.46875 19.125 0.46875 C 17.0625 0.46875 15.0625 -0.0625 13.125 -1.125 C 11.1875 -2.1875 9.441406 -3.625 7.890625 -5.4375 C 6.347656 -7.25 5.125 -9.296875 4.21875 -11.578125 C 3.3125 -13.859375 2.859375 -16.203125 2.859375 -18.609375 Z M 5.859375 -18.609375 C 5.859375 -16.234375 6.234375 -13.921875 6.984375 -11.671875 C 7.734375 -9.421875 8.734375 -7.40625 9.984375 -5.625 C 11.234375 -3.84375 12.644531 -2.421875 14.21875 -1.359375 C 15.800781 -0.296875 17.4375 0.234375 19.125 0.234375 C 20.96875 0.234375 22.765625 -0.296875 24.515625 -1.359375 C 26.265625 -2.421875 27.832031 -3.84375 29.21875 -5.625 C 30.613281 -7.40625 31.71875 -9.421875 32.53125 -11.671875 C 33.34375 -13.921875 33.75 -16.234375 33.75 -18.609375 C 33.75 -20.984375 33.347656 -23.296875 32.546875 -25.546875 C 31.753906 -27.796875 30.6875 -29.8125 29.34375 -31.59375 C 28 -33.375 26.472656 -34.796875 24.765625 -35.859375 C 23.066406 -36.921875 21.328125 -37.453125 19.546875 -37.453125 C 17.828125 -37.453125 16.15625 -36.921875 14.53125 -35.859375 C 12.90625 -34.796875 11.4375 -33.375 10.125 -31.59375 C 8.8125 -29.8125 7.769531 -27.796875 7 -25.546875 C 6.238281 -23.296875 5.859375 -20.984375 5.859375 -18.609375 Z M 5.859375 -18.609375 "/></g></g></g><g fill="#91a8e0" fill-opacity="1"><g transform="translate(161.801847, 122.048576)"><g><path d="M 8.34375 0 L 5.625 0 L 5.625 -37.21875 L 13.640625 -37.21875 C 15.171875 -37.21875 16.65625 -36.925781 18.09375 -36.34375 C 19.53125 -35.769531 20.828125 -34.984375 21.984375 -33.984375 C 23.140625 -32.984375 24.050781 -31.863281 24.71875 -30.625 C 25.394531 -29.394531 25.734375 -28.125 25.734375 -26.8125 C 25.734375 -25.46875 25.316406 -24.222656 24.484375 -23.078125 C 23.660156 -21.941406 22.550781 -20.957031 21.15625 -20.125 C 19.769531 -19.300781 18.203125 -18.660156 16.453125 -18.203125 C 14.703125 -17.753906 12.890625 -17.53125 11.015625 -17.53125 L 8.34375 -17.53125 Z M 8.34375 -18.09375 L 11.015625 -18.09375 C 12.546875 -18.09375 14.03125 -18.316406 15.46875 -18.765625 C 16.90625 -19.222656 18.203125 -19.863281 19.359375 -20.6875 C 20.515625 -21.519531 21.425781 -22.488281 22.09375 -23.59375 C 22.769531 -24.707031 23.109375 -25.9375 23.109375 -27.28125 C 23.109375 -28.46875 22.828125 -29.625 22.265625 -30.75 C 21.703125 -31.875 20.9375 -32.890625 19.96875 -33.796875 C 19 -34.703125 17.90625 -35.421875 16.6875 -35.953125 C 15.46875 -36.484375 14.21875 -36.75 12.9375 -36.75 L 8.34375 -36.75 Z M 8.34375 -18.09375 "/></g></g></g><g fill="#91a8e0" fill-opacity="1"><g transform="translate(189.337726, 122.048576)"><g><path d="M 54.703125 2.4375 C 54.140625 2.90625 53.296875 3.359375 52.171875 3.796875 C 51.046875 4.234375 49.753906 4.628906 48.296875 4.984375 C 46.847656 5.347656 45.359375 5.628906 43.828125 5.828125 C 42.296875 6.035156 40.84375 6.140625 39.46875 6.140625 C 37.59375 6.140625 35.5 5.957031 33.1875 5.59375 C 30.875 5.238281 28.550781 4.753906 26.21875 4.140625 C 23.894531 3.535156 21.75 2.84375 19.78125 2.0625 C 17.8125 1.28125 16.21875 0.484375 15 -0.328125 C 13.375 -0.953125 11.828125 -1.875 10.359375 -3.09375 C 8.890625 -4.3125 7.597656 -5.738281 6.484375 -7.375 C 5.378906 -9.019531 4.503906 -10.800781 3.859375 -12.71875 C 3.222656 -14.644531 2.90625 -16.609375 2.90625 -18.609375 C 2.90625 -21.015625 3.375 -23.359375 4.3125 -25.640625 C 5.25 -27.921875 6.515625 -29.96875 8.109375 -31.78125 C 9.703125 -33.59375 11.5 -35.03125 13.5 -36.09375 C 15.5 -37.15625 17.546875 -37.6875 19.640625 -37.6875 C 21.796875 -37.6875 23.894531 -37.15625 25.9375 -36.09375 C 27.988281 -35.03125 29.832031 -33.59375 31.46875 -31.78125 C 33.113281 -29.96875 34.410156 -27.921875 35.359375 -25.640625 C 36.316406 -23.359375 36.796875 -21.015625 36.796875 -18.609375 C 36.796875 -16.203125 36.300781 -13.859375 35.3125 -11.578125 C 34.332031 -9.296875 33.003906 -7.25 31.328125 -5.4375 C 29.660156 -3.625 27.769531 -2.1875 25.65625 -1.125 C 23.550781 -0.0625 21.390625 0.46875 19.171875 0.46875 C 18.578125 0.46875 17.96875 0.421875 17.34375 0.328125 C 18.21875 0.828125 19.488281 1.316406 21.15625 1.796875 C 22.832031 2.285156 24.722656 2.71875 26.828125 3.09375 C 28.941406 3.46875 31.125 3.765625 33.375 3.984375 C 35.625 4.203125 37.765625 4.3125 39.796875 4.3125 C 41.390625 4.3125 43 4.253906 44.625 4.140625 C 46.25 4.035156 47.765625 3.894531 49.171875 3.71875 C 50.578125 3.550781 51.769531 3.347656 52.75 3.109375 C 53.738281 2.878906 54.375 2.640625 54.65625 2.390625 Z M 5.859375 -18.609375 C 5.859375 -16.203125 6.222656 -13.863281 6.953125 -11.59375 C 7.691406 -9.332031 8.675781 -7.300781 9.90625 -5.5 C 11.144531 -3.707031 12.546875 -2.28125 14.109375 -1.21875 C 15.671875 -0.15625 17.265625 0.375 18.890625 0.375 C 20.765625 0.375 22.582031 -0.15625 24.34375 -1.21875 C 26.113281 -2.28125 27.707031 -3.707031 29.125 -5.5 C 30.550781 -7.300781 31.675781 -9.332031 32.5 -11.59375 C 33.332031 -13.863281 33.75 -16.203125 33.75 -18.609375 C 33.75 -20.984375 33.347656 -23.296875 32.546875 -25.546875 C 31.753906 -27.796875 30.6875 -29.8125 29.34375 -31.59375 C 28 -33.375 26.472656 -34.796875 24.765625 -35.859375 C 23.066406 -36.921875 21.328125 -37.453125 19.546875 -37.453125 C 17.828125 -37.453125 16.15625 -36.921875 14.53125 -35.859375 C 12.90625 -34.796875 11.4375 -33.375 10.125 -31.59375 C 8.8125 -29.8125 7.769531 -27.796875 7 -25.546875 C 6.238281 -23.296875 5.859375 -20.984375 5.859375 -18.609375 Z M 5.859375 -18.609375 "/></g></g></g><g fill="#91a8e0" fill-opacity="1"><g transform="translate(229.295479, 122.048576)"><g><path d="M 30.046875 0 L 30.046875 0.09375 C 28.203125 0.09375 26.738281 0.015625 25.65625 -0.140625 C 24.582031 -0.296875 23.765625 -0.59375 23.203125 -1.03125 C 22.640625 -1.46875 22.171875 -2.09375 21.796875 -2.90625 C 21.078125 -4.53125 20.359375 -6.144531 19.640625 -7.75 C 18.921875 -9.363281 18.253906 -10.878906 17.640625 -12.296875 C 17.035156 -13.722656 16.519531 -14.941406 16.09375 -15.953125 C 15.675781 -16.972656 15.390625 -17.703125 15.234375 -18.140625 L 7.6875 -18.140625 L 7.6875 0.046875 L 4.921875 0.046875 L 4.921875 -37.171875 L 15.421875 -37.171875 C 16.734375 -37.171875 18.003906 -36.878906 19.234375 -36.296875 C 20.472656 -35.722656 21.59375 -34.9375 22.59375 -33.9375 C 23.59375 -32.9375 24.378906 -31.816406 24.953125 -30.578125 C 25.535156 -29.347656 25.828125 -28.078125 25.828125 -26.765625 C 25.828125 -25.390625 25.46875 -24.128906 24.75 -22.984375 C 24.03125 -21.847656 23.078125 -20.890625 21.890625 -20.109375 C 20.703125 -19.328125 19.390625 -18.78125 17.953125 -18.46875 L 25.03125 -3 C 25.40625 -2.1875 25.785156 -1.5625 26.171875 -1.125 C 26.566406 -0.6875 27.066406 -0.390625 27.671875 -0.234375 C 28.285156 -0.078125 29.078125 0 30.046875 0 Z M 7.6875 -18.75 L 15.421875 -18.75 C 16.671875 -18.75 17.847656 -19.113281 18.953125 -19.84375 C 20.066406 -20.582031 20.984375 -21.59375 21.703125 -22.875 C 22.421875 -24.15625 22.78125 -25.609375 22.78125 -27.234375 C 22.78125 -28.421875 22.550781 -29.566406 22.09375 -30.671875 C 21.644531 -31.785156 21.03125 -32.78125 20.25 -33.65625 C 19.46875 -34.53125 18.59375 -35.234375 17.625 -35.765625 C 16.65625 -36.296875 15.65625 -36.5625 14.625 -36.5625 L 7.6875 -36.5625 Z M 7.6875 -18.75 "/></g></g></g><g fill="#91a8e0" fill-opacity="1"><g transform="translate(260.675108, 122.048576)"><g><path d="M 16.96875 -36.75 C 17.59375 -36.4375 18.21875 -36.113281 18.84375 -35.78125 C 19.46875 -35.457031 20.03125 -35.09375 20.53125 -34.6875 C 21.03125 -34.3125 21.5 -34.078125 21.9375 -33.984375 C 22.375 -33.890625 22.609375 -33.984375 22.640625 -34.265625 L 22.6875 -34.78125 L 22.921875 -34.78125 L 22.921875 -30.140625 L 22.3125 -30.140625 C 22.125 -30.890625 21.734375 -31.671875 21.140625 -32.484375 C 20.546875 -33.296875 19.859375 -34.046875 19.078125 -34.734375 C 18.296875 -35.421875 17.53125 -35.9375 16.78125 -36.28125 C 16 -36.65625 15.191406 -36.953125 14.359375 -37.171875 C 13.535156 -37.390625 12.765625 -37.5 12.046875 -37.5 C 10.953125 -37.5 9.90625 -37.113281 8.90625 -36.34375 C 7.90625 -35.582031 7.09375 -34.609375 6.46875 -33.421875 C 5.84375 -32.234375 5.53125 -30.96875 5.53125 -29.625 C 5.53125 -28.8125 5.984375 -27.828125 6.890625 -26.671875 C 7.796875 -25.515625 9.019531 -24.34375 10.5625 -23.15625 C 12.113281 -21.96875 13.828125 -20.9375 15.703125 -20.0625 C 17.421875 -19.28125 18.972656 -18.234375 20.359375 -16.921875 C 21.753906 -15.609375 22.863281 -14.25 23.6875 -12.84375 C 24.519531 -11.4375 24.9375 -10.171875 24.9375 -9.046875 C 24.9375 -7.828125 24.65625 -6.65625 24.09375 -5.53125 C 23.53125 -4.40625 22.769531 -3.390625 21.8125 -2.484375 C 20.863281 -1.578125 19.785156 -0.859375 18.578125 -0.328125 C 17.378906 0.203125 16.140625 0.46875 14.859375 0.46875 C 13.328125 0.46875 11.660156 0.046875 9.859375 -0.796875 C 8.066406 -1.640625 6.484375 -2.6875 5.109375 -3.9375 C 4.515625 -4.375 3.984375 -4.578125 3.515625 -4.546875 C 3.046875 -4.515625 2.796875 -4.25 2.765625 -3.75 L 2.71875 -2.8125 L 2.484375 -2.8125 L 2.484375 -9.140625 L 3.09375 -9.140625 C 3.125 -9.046875 3.171875 -8.925781 3.234375 -8.78125 C 3.296875 -8.644531 3.34375 -8.53125 3.375 -8.4375 C 3.625 -7.8125 4.019531 -7.097656 4.5625 -6.296875 C 5.113281 -5.503906 5.734375 -4.738281 6.421875 -4 C 7.109375 -3.269531 7.75 -2.6875 8.34375 -2.25 C 9.4375 -1.53125 10.550781 -0.941406 11.6875 -0.484375 C 12.832031 -0.0351562 13.890625 0.1875 14.859375 0.1875 C 16.203125 0.1875 17.46875 -0.21875 18.65625 -1.03125 C 19.84375 -1.84375 20.816406 -2.894531 21.578125 -4.1875 C 22.347656 -5.488281 22.734375 -6.84375 22.734375 -8.25 C 22.734375 -9.0625 22.34375 -10.019531 21.5625 -11.125 C 20.78125 -12.238281 19.738281 -13.332031 18.4375 -14.40625 C 17.144531 -15.488281 15.6875 -16.40625 14.0625 -17.15625 C 12.09375 -18.09375 10.300781 -19.238281 8.6875 -20.59375 C 7.082031 -21.957031 5.800781 -23.359375 4.84375 -24.796875 C 3.894531 -26.234375 3.421875 -27.5 3.421875 -28.59375 C 3.421875 -29.75 3.660156 -30.863281 4.140625 -31.9375 C 4.628906 -33.019531 5.28125 -33.988281 6.09375 -34.84375 C 6.90625 -35.707031 7.828125 -36.394531 8.859375 -36.90625 C 9.890625 -37.425781 10.953125 -37.6875 12.046875 -37.6875 C 12.828125 -37.6875 13.640625 -37.59375 14.484375 -37.40625 C 15.328125 -37.21875 16.15625 -36.953125 16.96875 -36.609375 Z M 16.96875 -36.75 "/></g></g></g><g fill="#91a8e0" fill-opacity="1"><g transform="translate(288.351612, 122.048576)"><g><path d="M 34.96875 -36.515625 L 36.421875 -33 L 36 -32.953125 L 35.625 -33.515625 C 35.3125 -34.015625 34.828125 -34.488281 34.171875 -34.9375 C 33.515625 -35.394531 32.796875 -35.765625 32.015625 -36.046875 C 31.234375 -36.328125 30.5 -36.46875 29.8125 -36.46875 L 20.109375 -36.46875 L 20.109375 0.046875 L 17.34375 0.046875 L 17.34375 -36.46875 L 7.546875 -36.46875 C 6.890625 -36.46875 6.160156 -36.328125 5.359375 -36.046875 C 4.566406 -35.765625 3.84375 -35.394531 3.1875 -34.9375 C 2.53125 -34.488281 2.046875 -34.015625 1.734375 -33.515625 L 1.359375 -32.953125 L 0.9375 -32.953125 C 1.125 -33.453125 1.378906 -34.097656 1.703125 -34.890625 C 2.035156 -35.691406 2.3125 -36.34375 2.53125 -36.84375 L 2.53125 -37.171875 L 34.875 -37.171875 L 34.96875 -36.9375 Z M 2.390625 -36.9375 C 2.421875 -37.09375 2.46875 -37.171875 2.53125 -37.171875 L 2.390625 -36.796875 Z M 34.96875 -37.171875 L 34.96875 -37.078125 C 34.9375 -37.140625 34.9375 -37.171875 34.96875 -37.171875 Z M 34.96875 -37.171875 "/></g></g></g><g fill="#91a8e0" fill-opacity="1"><g transform="translate(22.73648, 170.798573)"><g><path d="M 25.171875 0 L 23.8125 0 L 23.8125 -7.359375 C 23.34375 -6.390625 22.640625 -5.4375 21.703125 -4.5 C 20.765625 -3.5625 19.6875 -2.71875 18.46875 -1.96875 C 17.25 -1.21875 16 -0.625 14.71875 -0.1875 C 13.4375 0.25 12.21875 0.46875 11.0625 0.46875 C 10.09375 0.46875 9.140625 0.15625 8.203125 -0.46875 C 7.265625 -1.09375 6.425781 -1.9375 5.6875 -3 C 4.957031 -4.0625 4.375 -5.253906 3.9375 -6.578125 C 3.5 -7.910156 3.28125 -9.28125 3.28125 -10.6875 L 3.28125 -37.21875 L 6.046875 -37.21875 L 6.046875 -10.6875 C 6.046875 -9.125 6.34375 -7.625 6.9375 -6.1875 C 7.53125 -4.75 8.296875 -3.578125 9.234375 -2.671875 C 10.171875 -1.765625 11.15625 -1.3125 12.1875 -1.3125 C 13.21875 -1.3125 14.316406 -1.515625 15.484375 -1.921875 C 16.660156 -2.328125 17.800781 -2.878906 18.90625 -3.578125 C 20.019531 -4.285156 21.003906 -5.066406 21.859375 -5.921875 C 22.722656 -6.785156 23.375 -7.6875 23.8125 -8.625 L 23.8125 -37.21875 L 26.53125 -37.21875 L 26.53125 -0.375 Z M 25.171875 0 "/></g></g></g><g fill="#91a8e0" fill-opacity="1"><g transform="translate(53.131728, 170.798573)"><g><path d="M 8.671875 -37.21875 L 8.671875 -37.03125 L 8.0625 -37.03125 C 7.21875 -37.03125 6.625 -36.546875 6.28125 -35.578125 C 5.9375 -34.609375 5.96875 -33.53125 6.375 -32.34375 L 16.40625 -3.46875 L 26.90625 -32.34375 C 27.1875 -33.125 27.269531 -33.875 27.15625 -34.59375 C 27.050781 -35.3125 26.78125 -35.894531 26.34375 -36.34375 C 25.90625 -36.800781 25.359375 -37.03125 24.703125 -37.03125 L 24 -37.03125 L 24 -37.171875 L 31.59375 -37.171875 L 31.59375 -37.03125 L 31.359375 -37.03125 C 31.109375 -37.03125 30.769531 -36.800781 30.34375 -36.34375 C 29.925781 -35.894531 29.503906 -35.3125 29.078125 -34.59375 C 28.660156 -33.875 28.296875 -33.125 27.984375 -32.34375 L 15.46875 0.515625 L 14.953125 0.515625 C 12.984375 -5.078125 11.003906 -10.671875 9.015625 -16.265625 C 7.035156 -21.859375 5.046875 -27.453125 3.046875 -33.046875 C 2.640625 -34.109375 2.191406 -35.046875 1.703125 -35.859375 C 1.222656 -36.671875 0.859375 -37.078125 0.609375 -37.078125 L 0.421875 -37.078125 L 0.421875 -37.21875 Z M 8.671875 -37.21875 "/></g></g></g><g fill="#91a8e0" fill-opacity="1"><g transform="translate(86.339476, 170.798573)"><g><path d="M 8.4375 -37.21875 L 8.390625 -37.125 L 7.96875 -37.125 C 7.375 -37.125 6.957031 -36.734375 6.71875 -35.953125 C 6.488281 -35.171875 6.53125 -34.3125 6.84375 -33.375 L 16.546875 -3.421875 L 26.015625 -24.84375 L 23.296875 -33.375 C 22.984375 -34.3125 22.582031 -35.171875 22.09375 -35.953125 C 21.613281 -36.734375 21.234375 -37.125 20.953125 -37.125 L 20.71875 -37.125 L 20.71875 -37.265625 L 28.875 -37.265625 L 28.875 -37.125 L 28.3125 -37.125 C 27.53125 -37.125 26.925781 -36.765625 26.5 -36.046875 C 26.082031 -35.328125 25.984375 -34.515625 26.203125 -33.609375 L 35.203125 -3.890625 L 43.875 -33.609375 C 44.0625 -34.515625 43.878906 -35.328125 43.328125 -36.046875 C 42.785156 -36.765625 42.0625 -37.125 41.15625 -37.125 L 40.5 -37.125 L 40.5 -37.265625 L 48.09375 -37.265625 L 48.09375 -37.125 L 47.765625 -37.125 C 47.328125 -37.125 46.8125 -36.738281 46.21875 -35.96875 C 45.625 -35.207031 45.1875 -34.375 44.90625 -33.46875 L 34.6875 0.421875 L 33.984375 0.421875 L 26.390625 -23.671875 L 15.65625 0.1875 L 15.609375 0.421875 L 14.90625 0.421875 C 13.09375 -5.234375 11.253906 -10.863281 9.390625 -16.46875 C 7.535156 -22.082031 5.6875 -27.703125 3.84375 -33.328125 C 3.53125 -34.265625 3.144531 -35.125 2.6875 -35.90625 C 2.238281 -36.6875 1.890625 -37.078125 1.640625 -37.078125 L 1.453125 -37.078125 L 1.453125 -37.21875 Z M 8.4375 -37.21875 "/></g></g></g><g fill="#91a8e0" fill-opacity="1"><g transform="translate(135.812842, 170.798573)"><g><path d="M 24.1875 0 L 24.140625 -0.1875 L 24.515625 -0.1875 C 25.046875 -0.1875 25.363281 -0.453125 25.46875 -0.984375 C 25.582031 -1.515625 25.421875 -2.109375 24.984375 -2.765625 C 23.453125 -5.234375 21.910156 -7.703125 20.359375 -10.171875 C 18.816406 -12.640625 17.265625 -15.109375 15.703125 -17.578125 L 5.765625 -2.8125 C 5.328125 -2.15625 5.191406 -1.5625 5.359375 -1.03125 C 5.535156 -0.5 5.953125 -0.234375 6.609375 -0.234375 L 7.453125 -0.234375 L 7.453125 -0.09375 L 0.84375 -0.09375 L 0.84375 -0.234375 C 1.46875 -0.234375 2.15625 -0.472656 2.90625 -0.953125 C 3.65625 -1.441406 4.28125 -2.0625 4.78125 -2.8125 C 6.5625 -5.34375 8.332031 -7.878906 10.09375 -10.421875 C 11.863281 -12.972656 13.640625 -15.53125 15.421875 -18.09375 L 4.734375 -35.015625 C 4.296875 -35.640625 3.875 -36.144531 3.46875 -36.53125 C 3.0625 -36.925781 2.71875 -37.125 2.4375 -37.125 L 2.4375 -37.265625 L 9.09375 -37.265625 L 9.09375 -37.125 L 8.71875 -37.125 C 8.1875 -37.125 7.875 -36.859375 7.78125 -36.328125 C 7.6875 -35.796875 7.84375 -35.203125 8.25 -34.546875 C 9.75 -32.171875 11.265625 -29.78125 12.796875 -27.375 C 14.328125 -24.96875 15.84375 -22.5625 17.34375 -20.15625 L 26.953125 -34.546875 C 27.390625 -35.203125 27.519531 -35.796875 27.34375 -36.328125 C 27.175781 -36.859375 26.765625 -37.125 26.109375 -37.125 L 25.265625 -37.125 L 25.265625 -37.265625 L 31.96875 -37.265625 L 31.96875 -37.125 C 31.375 -37.125 30.703125 -36.875 29.953125 -36.375 C 29.203125 -35.875 28.5625 -35.265625 28.03125 -34.546875 L 17.484375 -19.921875 L 28.59375 -2.34375 C 29.03125 -1.71875 29.453125 -1.191406 29.859375 -0.765625 C 30.265625 -0.347656 30.609375 -0.140625 30.890625 -0.140625 L 30.890625 0 Z M 24.1875 0 "/></g></g></g><g fill="#91a8e0" fill-opacity="1"><g transform="translate(169.583096, 170.798573)"><g><path d="M 30.140625 -37.21875 L 30.140625 -37.078125 C 29.546875 -37.078125 28.941406 -36.863281 28.328125 -36.4375 C 27.722656 -36.019531 27.203125 -35.453125 26.765625 -34.734375 L 16.875 -16.734375 L 16.875 0 L 14.109375 0 L 14.109375 -16.359375 L 3.375 -34.5 C 2.96875 -35.21875 2.53125 -35.828125 2.0625 -36.328125 C 1.59375 -36.828125 1.21875 -37.078125 0.9375 -37.078125 L 0.9375 -37.21875 L 7.640625 -37.21875 L 7.640625 -37.078125 L 7.265625 -37.078125 C 6.734375 -37.078125 6.40625 -36.8125 6.28125 -36.28125 C 6.15625 -35.75 6.28125 -35.15625 6.65625 -34.5 C 8.3125 -31.59375 9.988281 -28.675781 11.6875 -25.75 C 13.394531 -22.832031 15.09375 -19.921875 16.78125 -17.015625 L 26.34375 -34.734375 C 26.59375 -35.359375 26.59375 -35.90625 26.34375 -36.375 C 26.09375 -36.84375 25.65625 -37.078125 25.03125 -37.078125 L 24.1875 -37.078125 L 24.1875 -37.21875 Z M 30.140625 -37.21875 "/></g></g></g><g fill="#91a8e0" fill-opacity="1"><g transform="translate(200.91585, 170.798573)"><g><path d="M 3.328125 -32.953125 L 2.90625 -32.953125 L 3.234375 -36.46875 L 3.28125 -37.21875 L 29.859375 -37.21875 L 29.859375 -36.65625 L 4.453125 -0.609375 L 23.765625 -0.796875 C 24.609375 -0.828125 25.46875 -0.984375 26.34375 -1.265625 C 27.21875 -1.546875 28 -1.910156 28.6875 -2.359375 C 29.375 -2.816406 29.828125 -3.296875 30.046875 -3.796875 L 30.328125 -4.359375 L 30.75 -4.359375 L 29.8125 -0.421875 L 29.71875 0 L 1.21875 0 L 1.21875 -0.5625 L 26.90625 -36.65625 L 9.09375 -36.515625 C 8.28125 -36.484375 7.472656 -36.316406 6.671875 -36.015625 C 5.878906 -35.722656 5.191406 -35.359375 4.609375 -34.921875 C 4.035156 -34.484375 3.671875 -34.015625 3.515625 -33.515625 Z M 3.328125 -32.953125 "/></g></g></g><g fill="#fafdfd" fill-opacity="1"><g transform="translate(22.73648, 237.762232)"><g><path d="M 26.25 0 L 21.984375 -10.90625 L 8.25 -10.90625 L 4.03125 0 L 0 0 L 13.546875 -34.40625 L 16.90625 -34.40625 L 30.375 0 Z M 20.75 -14.484375 L 16.765625 -25.109375 C 16.242188 -26.453125 15.710938 -28.097656 15.171875 -30.046875 C 14.828125 -28.546875 14.332031 -26.898438 13.6875 -25.109375 L 9.65625 -14.484375 Z M 20.75 -14.484375 "/></g></g></g><g fill="#fafdfd" fill-opacity="1"><g transform="translate(53.975478, 237.762232)"><g><path d="M 4.71875 -34.265625 L 14.390625 -34.265625 C 18.941406 -34.265625 22.234375 -33.582031 24.265625 -32.21875 C 26.296875 -30.863281 27.3125 -28.71875 27.3125 -25.78125 C 27.3125 -23.75 26.742188 -22.070312 25.609375 -20.75 C 24.472656 -19.4375 22.820312 -18.582031 20.65625 -18.1875 L 20.65625 -17.953125 C 25.851562 -17.066406 28.453125 -14.332031 28.453125 -9.75 C 28.453125 -6.6875 27.414062 -4.296875 25.34375 -2.578125 C 23.28125 -0.859375 20.390625 0 16.671875 0 L 4.71875 0 Z M 8.703125 -19.59375 L 15.265625 -19.59375 C 18.078125 -19.59375 20.097656 -20.035156 21.328125 -20.921875 C 22.566406 -21.804688 23.1875 -23.296875 23.1875 -25.390625 C 23.1875 -27.304688 22.5 -28.691406 21.125 -29.546875 C 19.75 -30.398438 17.5625 -30.828125 14.5625 -30.828125 L 8.703125 -30.828125 Z M 8.703125 -16.21875 L 8.703125 -3.40625 L 15.84375 -3.40625 C 18.613281 -3.40625 20.695312 -3.9375 22.09375 -5 C 23.488281 -6.070312 24.1875 -7.75 24.1875 -10.03125 C 24.1875 -12.15625 23.472656 -13.71875 22.046875 -14.71875 C 20.617188 -15.71875 18.441406 -16.21875 15.515625 -16.21875 Z M 8.703125 -16.21875 "/></g></g></g><g fill="#fafdfd" fill-opacity="1"><g transform="translate(85.941038, 237.762232)"><g><path d="M 19.390625 -31.203125 C 15.617188 -31.203125 12.644531 -29.945312 10.46875 -27.4375 C 8.289062 -24.925781 7.203125 -21.492188 7.203125 -17.140625 C 7.203125 -12.648438 8.25 -9.179688 10.34375 -6.734375 C 12.445312 -4.296875 15.445312 -3.078125 19.34375 -3.078125 C 21.726562 -3.078125 24.453125 -3.503906 27.515625 -4.359375 L 27.515625 -0.875 C 25.140625 0.0195312 22.210938 0.46875 18.734375 0.46875 C 13.679688 0.46875 9.785156 -1.0625 7.046875 -4.125 C 4.304688 -7.1875 2.9375 -11.539062 2.9375 -17.1875 C 2.9375 -20.71875 3.59375 -23.8125 4.90625 -26.46875 C 6.226562 -29.125 8.132812 -31.171875 10.625 -32.609375 C 13.125 -34.046875 16.0625 -34.765625 19.4375 -34.765625 C 23.03125 -34.765625 26.171875 -34.109375 28.859375 -32.796875 L 27.171875 -29.375 C 24.578125 -30.59375 21.984375 -31.203125 19.390625 -31.203125 Z M 19.390625 -31.203125 "/></g></g></g><g fill="#fafdfd" fill-opacity="1"><g transform="translate(117.086286, 237.762232)"><g><path d="M 32.0625 -17.46875 C 32.0625 -11.8125 30.523438 -7.484375 27.453125 -4.484375 C 24.390625 -1.492188 19.972656 0 14.203125 0 L 4.71875 0 L 4.71875 -34.265625 L 15.21875 -34.265625 C 20.539062 -34.265625 24.675781 -32.785156 27.625 -29.828125 C 30.582031 -26.878906 32.0625 -22.757812 32.0625 -17.46875 Z M 27.84375 -17.328125 C 27.84375 -21.796875 26.722656 -25.160156 24.484375 -27.421875 C 22.242188 -29.691406 18.910156 -30.828125 14.484375 -30.828125 L 8.703125 -30.828125 L 8.703125 -3.453125 L 13.546875 -3.453125 C 18.296875 -3.453125 21.863281 -4.617188 24.25 -6.953125 C 26.644531 -9.285156 27.84375 -12.742188 27.84375 -17.328125 Z M 27.84375 -17.328125 "/></g></g></g><g fill="#fafdfd" fill-opacity="1"><g transform="translate(152.942471, 237.762232)"><g><path d="M 23.8125 0 L 4.71875 0 L 4.71875 -34.265625 L 23.8125 -34.265625 L 23.8125 -30.734375 L 8.703125 -30.734375 L 8.703125 -19.6875 L 22.90625 -19.6875 L 22.90625 -16.171875 L 8.703125 -16.171875 L 8.703125 -3.5625 L 23.8125 -3.5625 Z M 23.8125 0 "/></g></g></g><g fill="#fafdfd" fill-opacity="1"><g transform="translate(180.501788, 237.762232)"><g><path d="M 8.703125 0 L 4.71875 0 L 4.71875 -34.265625 L 23.8125 -34.265625 L 23.8125 -30.734375 L 8.703125 -30.734375 L 8.703125 -18.1875 L 22.90625 -18.1875 L 22.90625 -14.65625 L 8.703125 -14.65625 Z M 8.703125 0 "/></g></g></g><g fill="#fafdfd" fill-opacity="1"><g transform="translate(206.13923, 237.762232)"><g><path d="M 19.78125 -17.953125 L 31.4375 -17.953125 L 31.4375 -1.296875 C 29.625 -0.710938 27.78125 -0.273438 25.90625 0.015625 C 24.03125 0.316406 21.859375 0.46875 19.390625 0.46875 C 14.203125 0.46875 10.160156 -1.070312 7.265625 -4.15625 C 4.378906 -7.25 2.9375 -11.578125 2.9375 -17.140625 C 2.9375 -20.703125 3.648438 -23.820312 5.078125 -26.5 C 6.503906 -29.175781 8.5625 -31.222656 11.25 -32.640625 C 13.9375 -34.054688 17.085938 -34.765625 20.703125 -34.765625 C 24.359375 -34.765625 27.765625 -34.09375 30.921875 -32.75 L 29.375 -29.234375 C 26.28125 -30.546875 23.300781 -31.203125 20.4375 -31.203125 C 16.269531 -31.203125 13.015625 -29.957031 10.671875 -27.46875 C 8.328125 -24.988281 7.15625 -21.546875 7.15625 -17.140625 C 7.15625 -12.515625 8.28125 -9.003906 10.53125 -6.609375 C 12.789062 -4.222656 16.109375 -3.03125 20.484375 -3.03125 C 22.859375 -3.03125 25.179688 -3.300781 27.453125 -3.84375 L 27.453125 -14.390625 L 19.78125 -14.390625 Z M 19.78125 -17.953125 "/></g></g></g><g fill="#fafdfd" fill-opacity="1"><g transform="translate(241.948546, 237.762232)"><g><path d="M 30.734375 0 L 26.75 0 L 26.75 -16.125 L 8.703125 -16.125 L 8.703125 0 L 4.71875 0 L 4.71875 -34.265625 L 8.703125 -34.265625 L 8.703125 -19.6875 L 26.75 -19.6875 L 26.75 -34.265625 L 30.734375 -34.265625 Z M 30.734375 0 "/></g></g></g><g fill="#fafdfd" fill-opacity="1"><g transform="translate(278.226612, 237.762232)"><g><path d="M 4.71875 0 L 4.71875 -34.265625 L 8.703125 -34.265625 L 8.703125 0 Z M 4.71875 0 "/></g></g></g><g fill="#fafdfd" fill-opacity="1"><g transform="translate(292.47343, 237.762232)"><g><path d="M -0.28125 9.03125 C -1.75 9.03125 -2.90625 8.816406 -3.75 8.390625 L -3.75 5 C -2.644531 5.3125 -1.488281 5.46875 -0.28125 5.46875 C 1.269531 5.46875 2.445312 5 3.25 4.0625 C 4.050781 3.125 4.453125 1.769531 4.453125 0 L 4.453125 -34.265625 L 8.4375 -34.265625 L 8.4375 -0.328125 C 8.4375 2.640625 7.6875 4.941406 6.1875 6.578125 C 4.6875 8.210938 2.53125 9.03125 -0.28125 9.03125 Z M -0.28125 9.03125 "/></g></g></g><g fill="#fafdfd" fill-opacity="1"><g transform="translate(306.157747, 237.762232)"><g><path d="M 29.46875 0 L 24.78125 0 L 12.28125 -16.625 L 8.703125 -13.4375 L 8.703125 0 L 4.71875 0 L 4.71875 -34.265625 L 8.703125 -34.265625 L 8.703125 -17.28125 L 24.234375 -34.265625 L 28.953125 -34.265625 L 15.171875 -19.390625 Z M 29.46875 0 "/></g></g></g><g fill="#fafdfd" fill-opacity="1"><g transform="translate(22.73648, 286.512228)"><g><path d="M 4.71875 0 L 4.71875 -34.265625 L 8.703125 -34.265625 L 8.703125 -3.609375 L 23.8125 -3.609375 L 23.8125 0 Z M 4.71875 0 "/></g></g></g><g fill="#fafdfd" fill-opacity="1"><g transform="translate(48.514541, 286.512228)"><g><path d="M 19.875 0 L 8.25 -30.375 L 8.0625 -30.375 C 8.28125 -27.96875 8.390625 -25.109375 8.390625 -21.796875 L 8.390625 0 L 4.71875 0 L 4.71875 -34.265625 L 10.71875 -34.265625 L 21.5625 -6 L 21.75 -6 L 32.703125 -34.265625 L 38.65625 -34.265625 L 38.65625 0 L 34.671875 0 L 34.671875 -22.078125 C 34.671875 -24.609375 34.78125 -27.359375 35 -30.328125 L 34.8125 -30.328125 L 23.09375 0 Z M 19.875 0 "/></g></g></g><g fill="#fafdfd" fill-opacity="1"><g transform="translate(92.714475, 286.512228)"><g><path d="M 31.484375 0 L 26.9375 0 L 8.203125 -28.765625 L 8.015625 -28.765625 C 8.265625 -25.390625 8.390625 -22.296875 8.390625 -19.484375 L 8.390625 0 L 4.71875 0 L 4.71875 -34.265625 L 9.21875 -34.265625 L 27.890625 -5.625 L 28.078125 -5.625 C 28.046875 -6.050781 27.972656 -7.40625 27.859375 -9.6875 C 27.753906 -11.976562 27.71875 -13.617188 27.75 -14.609375 L 27.75 -34.265625 L 31.484375 -34.265625 Z M 31.484375 0 "/></g></g></g><g fill="#fafdfd" fill-opacity="1"><g transform="translate(129.765968, 286.512228)"><g><path d="M 34.453125 -17.1875 C 34.453125 -11.695312 33.066406 -7.378906 30.296875 -4.234375 C 27.523438 -1.097656 23.671875 0.46875 18.734375 0.46875 C 13.679688 0.46875 9.785156 -1.070312 7.046875 -4.15625 C 4.304688 -7.25 2.9375 -11.609375 2.9375 -17.234375 C 2.9375 -22.804688 4.3125 -27.128906 7.0625 -30.203125 C 9.8125 -33.273438 13.71875 -34.8125 18.78125 -34.8125 C 23.695312 -34.8125 27.535156 -33.25 30.296875 -30.125 C 33.066406 -27 34.453125 -22.6875 34.453125 -17.1875 Z M 7.15625 -17.1875 C 7.15625 -12.539062 8.140625 -9.019531 10.109375 -6.625 C 12.085938 -4.226562 14.960938 -3.03125 18.734375 -3.03125 C 22.523438 -3.03125 25.390625 -4.222656 27.328125 -6.609375 C 29.265625 -9.003906 30.234375 -12.53125 30.234375 -17.1875 C 30.234375 -21.789062 29.269531 -25.285156 27.34375 -27.671875 C 25.414062 -30.054688 22.5625 -31.25 18.78125 -31.25 C 14.976562 -31.25 12.085938 -30.046875 10.109375 -27.640625 C 8.140625 -25.242188 7.15625 -21.757812 7.15625 -17.1875 Z M 7.15625 -17.1875 "/></g></g></g><g fill="#fafdfd" fill-opacity="1"><g transform="translate(168.012784, 286.512228)"><g><path d="M 26.4375 -24.28125 C 26.4375 -20.8125 25.253906 -18.144531 22.890625 -16.28125 C 20.523438 -14.414062 17.140625 -13.484375 12.734375 -13.484375 L 8.703125 -13.484375 L 8.703125 0 L 4.71875 0 L 4.71875 -34.265625 L 13.59375 -34.265625 C 22.15625 -34.265625 26.4375 -30.9375 26.4375 -24.28125 Z M 8.703125 -16.90625 L 12.28125 -16.90625 C 15.8125 -16.90625 18.363281 -17.472656 19.9375 -18.609375 C 21.519531 -19.753906 22.3125 -21.582031 22.3125 -24.09375 C 22.3125 -26.363281 21.566406 -28.050781 20.078125 -29.15625 C 18.597656 -30.269531 16.289062 -30.828125 13.15625 -30.828125 L 8.703125 -30.828125 Z M 8.703125 -16.90625 "/></g></g></g><g fill="#fafdfd" fill-opacity="1"><g transform="translate(197.775225, 286.512228)"><g><path d="M 34.453125 -17.1875 C 34.453125 -12.789062 33.566406 -9.140625 31.796875 -6.234375 C 30.035156 -3.328125 27.546875 -1.359375 24.328125 -0.328125 L 32.484375 8.15625 L 26.703125 8.15625 L 20.015625 0.421875 L 18.734375 0.46875 C 13.679688 0.46875 9.785156 -1.070312 7.046875 -4.15625 C 4.304688 -7.25 2.9375 -11.609375 2.9375 -17.234375 C 2.9375 -22.804688 4.3125 -27.128906 7.0625 -30.203125 C 9.8125 -33.273438 13.71875 -34.8125 18.78125 -34.8125 C 23.695312 -34.8125 27.535156 -33.25 30.296875 -30.125 C 33.066406 -27 34.453125 -22.6875 34.453125 -17.1875 Z M 7.15625 -17.1875 C 7.15625 -12.539062 8.140625 -9.019531 10.109375 -6.625 C 12.085938 -4.226562 14.960938 -3.03125 18.734375 -3.03125 C 22.523438 -3.03125 25.390625 -4.222656 27.328125 -6.609375 C 29.265625 -9.003906 30.234375 -12.53125 30.234375 -17.1875 C 30.234375 -21.789062 29.269531 -25.285156 27.34375 -27.671875 C 25.414062 -30.054688 22.5625 -31.25 18.78125 -31.25 C 14.976562 -31.25 12.085938 -30.046875 10.109375 -27.640625 C 8.140625 -25.242188 7.15625 -21.757812 7.15625 -17.1875 Z M 7.15625 -17.1875 "/></g></g></g><g fill="#fafdfd" fill-opacity="1"><g transform="translate(236.022041, 286.512228)"><g><path d="M 8.703125 -14.25 L 8.703125 0 L 4.71875 0 L 4.71875 -34.265625 L 14.109375 -34.265625 C 18.316406 -34.265625 21.421875 -33.457031 23.421875 -31.84375 C 25.429688 -30.238281 26.4375 -27.820312 26.4375 -24.59375 C 26.4375 -20.0625 24.140625 -17 19.546875 -15.40625 L 28.859375 0 L 24.140625 0 L 15.84375 -14.25 Z M 8.703125 -17.671875 L 14.15625 -17.671875 C 16.96875 -17.671875 19.03125 -18.226562 20.34375 -19.34375 C 21.65625 -20.46875 22.3125 -22.144531 22.3125 -24.375 C 22.3125 -26.644531 21.644531 -28.28125 20.3125 -29.28125 C 18.976562 -30.28125 16.832031 -30.78125 13.875 -30.78125 L 8.703125 -30.78125 Z M 8.703125 -17.671875 "/></g></g></g><g fill="#fafdfd" fill-opacity="1"><g transform="translate(266.55792, 286.512228)"><g><path d="M 24.046875 -9.125 C 24.046875 -6.101562 22.953125 -3.75 20.765625 -2.0625 C 18.578125 -0.375 15.609375 0.46875 11.859375 0.46875 C 7.796875 0.46875 4.671875 -0.0546875 2.484375 -1.109375 L 2.484375 -4.953125 C 3.890625 -4.359375 5.421875 -3.890625 7.078125 -3.546875 C 8.734375 -3.203125 10.375 -3.03125 12 -3.03125 C 14.65625 -3.03125 16.65625 -3.53125 18 -4.53125 C 19.34375 -5.539062 20.015625 -6.945312 20.015625 -8.75 C 20.015625 -9.9375 19.773438 -10.90625 19.296875 -11.65625 C 18.828125 -12.414062 18.03125 -13.113281 16.90625 -13.75 C 15.789062 -14.394531 14.09375 -15.125 11.8125 -15.9375 C 8.625 -17.082031 6.347656 -18.4375 4.984375 -20 C 3.617188 -21.5625 2.9375 -23.597656 2.9375 -26.109375 C 2.9375 -28.753906 3.925781 -30.859375 5.90625 -32.421875 C 7.894531 -33.984375 10.519531 -34.765625 13.78125 -34.765625 C 17.1875 -34.765625 20.320312 -34.140625 23.1875 -32.890625 L 21.9375 -29.421875 C 19.113281 -30.609375 16.363281 -31.203125 13.6875 -31.203125 C 11.582031 -31.203125 9.9375 -30.75 8.75 -29.84375 C 7.5625 -28.9375 6.96875 -27.675781 6.96875 -26.0625 C 6.96875 -24.875 7.1875 -23.898438 7.625 -23.140625 C 8.0625 -22.390625 8.796875 -21.695312 9.828125 -21.0625 C 10.867188 -20.425781 12.460938 -19.726562 14.609375 -18.96875 C 18.203125 -17.6875 20.671875 -16.3125 22.015625 -14.84375 C 23.367188 -13.375 24.046875 -11.46875 24.046875 -9.125 Z M 24.046875 -9.125 "/></g></g></g><g fill="#fafdfd" fill-opacity="1"><g transform="translate(293.765674, 286.512228)"><g><path d="M 15.265625 0 L 11.28125 0 L 11.28125 -30.734375 L 0.421875 -30.734375 L 0.421875 -34.265625 L 26.109375 -34.265625 L 26.109375 -30.734375 L 15.265625 -30.734375 Z M 15.265625 0 "/></g></g></g><g fill="#fafdfd" fill-opacity="1"><g transform="translate(22.73648, 335.262225)"><g><path d="M 30.59375 -34.265625 L 30.59375 -12.09375 C 30.59375 -8.1875 29.410156 -5.113281 27.046875 -2.875 C 24.691406 -0.644531 21.453125 0.46875 17.328125 0.46875 C 13.203125 0.46875 10.007812 -0.65625 7.75 -2.90625 C 5.488281 -5.15625 4.359375 -8.25 4.359375 -12.1875 L 4.359375 -34.265625 L 8.34375 -34.265625 L 8.34375 -11.90625 C 8.34375 -9.050781 9.125 -6.859375 10.6875 -5.328125 C 12.25 -3.796875 14.546875 -3.03125 17.578125 -3.03125 C 20.472656 -3.03125 22.703125 -3.796875 24.265625 -5.328125 C 25.828125 -6.867188 26.609375 -9.078125 26.609375 -11.953125 L 26.609375 -34.265625 Z M 30.59375 -34.265625 "/></g></g></g><g fill="#fafdfd" fill-opacity="1"><g transform="translate(58.54579, 335.262225)"><g><path d="M 24.28125 -34.265625 L 28.578125 -34.265625 L 16.21875 0 L 12.28125 0 L 0 -34.265625 L 4.21875 -34.265625 L 12.09375 -12.09375 C 13 -9.550781 13.71875 -7.078125 14.25 -4.671875 C 14.8125 -7.203125 15.546875 -9.722656 16.453125 -12.234375 Z M 24.28125 -34.265625 "/></g></g></g><g fill="#fafdfd" fill-opacity="1"><g transform="translate(87.980101, 335.262225)"><g><path d="M 34.625 0 L 30.6875 0 L 23.765625 -22.953125 C 23.441406 -23.960938 23.078125 -25.238281 22.671875 -26.78125 C 22.265625 -28.332031 22.050781 -29.265625 22.03125 -29.578125 C 21.6875 -27.515625 21.140625 -25.257812 20.390625 -22.8125 L 13.6875 0 L 9.75 0 L 0.640625 -34.265625 L 4.859375 -34.265625 L 10.265625 -13.109375 C 11.015625 -10.140625 11.5625 -7.453125 11.90625 -5.046875 C 12.332031 -7.898438 12.957031 -10.695312 13.78125 -13.4375 L 19.921875 -34.265625 L 24.140625 -34.265625 L 30.59375 -13.25 C 31.34375 -10.820312 31.972656 -8.085938 32.484375 -5.046875 C 32.785156 -7.265625 33.347656 -9.96875 34.171875 -13.15625 L 39.5625 -34.265625 L 43.78125 -34.265625 Z M 34.625 0 "/></g></g></g><g fill="#fafdfd" fill-opacity="1"><g transform="translate(133.281593, 335.262225)"><g><path d="M 27.515625 0 L 23 0 L 13.78125 -15.078125 L 4.40625 0 L 0.1875 0 L 11.578125 -17.90625 L 0.96875 -34.265625 L 5.375 -34.265625 L 13.875 -20.703125 L 22.453125 -34.265625 L 26.703125 -34.265625 L 16.078125 -18.046875 Z M 27.515625 0 "/></g></g></g><g fill="#fafdfd" fill-opacity="1"><g transform="translate(161.848722, 335.262225)"><g><path d="M 13.4375 -17.140625 L 22.578125 -34.265625 L 26.890625 -34.265625 L 15.453125 -13.296875 L 15.453125 0 L 11.421875 0 L 11.421875 -13.109375 L 0 -34.265625 L 4.359375 -34.265625 Z M 13.4375 -17.140625 "/></g></g></g><g fill="#fafdfd" fill-opacity="1"><g transform="translate(189.595538, 335.262225)"><g><path d="M 25.484375 0 L 1.921875 0 L 1.921875 -3.125 L 20.109375 -30.6875 L 2.484375 -30.6875 L 2.484375 -34.265625 L 24.96875 -34.265625 L 24.96875 -31.15625 L 6.78125 -3.609375 L 25.484375 -3.609375 Z M 25.484375 0 "/></g></g></g></svg>