<svg width="500" height="500" viewBox="0 0 500 500" fill="none" xmlns="http://www.w3.org/2000/svg">
<mask id="mask0_1_2" style="mask-type:luminance" maskUnits="userSpaceOnUse" x="212" y="266" width="147" height="147">
<path d="M212.385 266.188H358.797V412.188H212.385V266.188Z" fill="white"/>
</mask>
<g mask="url(#mask0_1_2)">
<path d="M310.911 337.25C304.979 337.073 298.88 336.891 292.708 336.698C296.87 332.781 300.995 328.901 305.005 325.12C305.005 325.12 325.052 322.589 325.333 325.083C325.62 327.583 310.911 337.25 310.911 337.25ZM323.667 356.979C322.089 358.948 304.859 355.38 304.859 355.38V355.609C300.844 351.344 296.714 346.958 292.531 342.521C298.38 342.698 304.167 342.87 309.797 343.047C312.469 345.151 325.073 355.224 323.667 356.979ZM299.932 378.349C297.437 378.641 287.766 363.922 287.766 363.922C287.932 358.25 288.109 352.411 288.292 346.51C292.26 350.724 296.187 354.896 300.01 358.953C300.469 362.906 302.104 378.109 299.932 378.349ZM289.203 316.094L289.615 315.745C289.615 315.745 302 299.781 303.969 301.344C305.698 302.74 303.125 316.318 302.5 319.484C298.016 323.703 293.396 328.057 288.708 332.469C288.875 326.932 289.042 321.443 289.203 316.094ZM282.896 332.286C279.224 328.391 275.583 324.521 272.031 320.755L272.104 320.005C272.104 320.005 269.568 299.964 272.068 299.677C274.151 299.448 281.156 309.542 283.469 312.979C283.286 319.245 283.089 325.724 282.896 332.286ZM281.979 362.807C279.875 365.479 269.797 378.083 268.036 376.688C266.302 375.302 268.875 361.724 269.505 358.557C273.724 354.573 278.073 350.479 282.474 346.339C282.307 351.911 282.135 357.432 281.979 362.807ZM266.995 352.917C266.995 352.917 246.948 355.453 246.661 352.948C246.432 350.87 256.531 343.865 259.958 341.547C265.979 341.729 272.193 341.911 278.479 342.099C274.604 345.755 270.755 349.38 267 352.917H266.995ZM248.333 321.057C249.609 319.458 261.198 321.51 265.526 322.339C269.786 326.865 274.198 331.542 278.656 336.281C273.391 336.125 268.167 335.964 263.068 335.813L262.729 335.406C262.729 335.406 246.766 323.021 248.333 321.057ZM356.536 339.276C354.99 339.026 349.151 338.635 347.417 338.359C345.682 338.089 343.823 338.323 341.917 338.172C340.849 338.141 339.708 338.115 338.604 338.078C339.719 337.026 340.88 335.932 342.047 334.833C344.792 332.245 347.547 329.661 349.604 327.719C349.792 327.406 351.927 325.557 350.568 323.453C349.208 321.344 346.604 322.984 345.615 323.479C344.625 323.974 340.802 328.01 338.057 330.594C335.312 333.182 332.557 335.776 330.5 337.714C330.464 337.771 330.406 337.792 330.349 337.833C326.906 337.729 323.302 337.62 319.589 337.51C325.708 333.297 334.917 326.245 333.953 322.505C332.896 318.438 318.859 318.682 311.396 319.104C314.417 316.255 317.339 313.505 320.125 310.88C320.187 310.885 320.255 310.854 320.323 310.87C323.141 310.953 326.917 311.068 330.687 311.182C334.464 311.292 339.99 311.786 341.068 311.495C342.141 311.203 345.182 310.708 344.792 308.229C344.417 305.76 341.583 305.781 341.245 305.677C338.417 305.599 334.641 305.479 330.87 305.37C329.266 305.318 327.672 305.271 326.135 305.224C326.943 304.464 327.776 303.682 328.547 302.953C329.885 301.578 331.417 300.521 332.547 299.172C333.661 297.807 337.766 293.641 338.766 292.427C340.766 290.01 338.208 287.292 335.672 289.146C334.406 290.068 330 293.917 328.568 294.948C327.151 295.99 326.01 297.464 324.557 298.714C323.776 299.443 322.953 300.224 322.141 300.984C322.187 299.448 322.245 297.859 322.286 296.26C322.396 292.484 322.51 288.714 322.594 285.88C322.51 285.521 322.708 282.714 320.255 282.177C317.812 281.646 317.135 284.651 316.786 285.703C316.427 286.76 316.589 292.307 316.464 296.083C316.359 299.854 316.245 303.625 316.161 306.458C316.172 306.521 316.141 306.583 316.135 306.646C313.786 308.859 311.333 311.172 308.802 313.547C310.125 306.229 311.464 295.339 308.229 293.432C304.505 291.245 294.302 301.979 289.464 307.438C289.594 303.068 289.724 298.839 289.844 294.823C289.885 294.776 289.911 294.708 289.974 294.682C292.031 292.745 294.786 290.151 297.531 287.568C300.276 284.979 304.526 281.417 305.078 280.448C305.641 279.49 307.427 276.984 305.411 275.51C303.391 274.026 301.411 276.031 301.089 276.214C299.031 278.151 296.281 280.74 293.542 283.323C292.37 284.422 291.208 285.521 290.089 286.573C290.12 285.464 290.161 284.323 290.193 283.26C290.161 281.344 290.505 279.505 290.344 277.76C290.172 276 290.13 270.156 289.979 268.599C289.682 265.474 285.948 265.354 285.469 268.458C285.224 270.01 284.839 275.844 284.557 277.583C284.281 279.318 284.521 281.167 284.375 283.083C284.344 284.141 284.302 285.281 284.276 286.396C283.224 285.276 282.13 284.12 281.036 282.948C278.443 280.208 275.854 277.453 273.906 275.396C273.599 275.203 271.755 273.078 269.646 274.427C267.531 275.786 269.182 278.385 269.677 279.385C270.172 280.375 274.203 284.193 276.797 286.938C279.38 289.688 281.964 292.432 283.911 294.5C283.964 294.542 283.99 294.599 284.026 294.646C283.927 297.76 283.828 301.005 283.734 304.339C279.474 298.276 273.01 290.161 269.484 291.073C265.25 292.167 265.693 307.323 266.135 314.49C262.995 311.156 259.958 307.927 257.078 304.87C257.083 304.813 257.047 304.755 257.068 304.682C257.151 301.854 257.26 298.078 257.38 294.307C257.49 290.542 257.979 285.005 257.687 283.938C257.401 282.859 256.901 279.818 254.427 280.208C251.948 280.594 251.974 283.406 251.87 283.76C251.786 286.594 251.677 290.365 251.562 294.13C251.516 295.74 251.469 297.333 251.422 298.87C250.661 298.057 249.88 297.229 249.151 296.448C247.766 295.115 246.719 293.578 245.365 292.458C244 291.339 239.839 287.234 238.63 286.234C236.208 284.24 233.49 286.797 235.344 289.328C236.266 290.604 240.12 295 241.146 296.427C242.182 297.849 243.656 298.995 244.911 300.443C245.635 301.214 246.422 302.047 247.182 302.854C245.646 302.813 244.057 302.766 242.453 302.714C238.677 302.609 234.906 302.49 232.073 302.406C231.724 302.495 228.917 302.297 228.375 304.74C227.844 307.188 230.849 307.865 231.901 308.224C232.953 308.578 238.505 308.422 242.276 308.536C246.052 308.646 249.818 308.76 252.651 308.849C252.719 308.828 252.781 308.859 252.839 308.859C255.016 311.177 257.281 313.583 259.609 316.052C252.333 314.797 242.255 313.698 240.422 316.797C238.234 320.516 248.964 330.724 254.417 335.557C249.766 335.411 245.281 335.281 241.016 335.156C240.974 335.109 240.906 335.083 240.88 335.026C238.937 332.969 236.349 330.219 233.76 327.474C231.172 324.724 227.604 320.464 226.646 319.917C225.682 319.354 223.182 317.568 221.703 319.583C220.224 321.609 222.234 323.578 222.406 323.906C224.344 325.964 226.932 328.714 229.521 331.464C230.625 332.635 231.714 333.792 232.771 334.906C231.661 334.87 230.516 334.839 229.458 334.807C227.536 334.833 225.708 334.5 223.958 334.656C222.203 334.828 216.354 334.87 214.792 335.021C211.661 335.318 211.557 339.052 214.661 339.531C216.208 339.781 222.047 340.167 223.786 340.443C225.526 340.714 227.365 340.484 229.281 340.625C230.344 340.656 231.484 340.693 232.594 340.724C231.479 341.776 230.318 342.87 229.151 343.964C226.406 346.557 223.651 349.146 221.594 351.083C221.401 351.396 219.276 353.25 220.63 355.354C221.984 357.464 224.589 355.823 225.583 355.323C226.578 354.828 230.396 350.797 233.141 348.208C235.885 345.62 238.635 343.031 240.698 341.089C240.734 341.036 240.792 341.016 240.844 340.974C244.198 341.073 247.719 341.182 251.328 341.286C245.271 345.547 237.151 352.01 238.062 355.542C239.109 359.609 253.156 359.365 260.615 358.932C257.302 362.047 254.104 365.063 251.073 367.922C251.01 367.922 250.948 367.953 250.88 367.932C248.052 367.849 244.281 367.734 240.51 367.62C236.74 367.505 231.208 367.016 230.135 367.307C229.062 367.604 226.016 368.094 226.406 370.573C226.792 373.047 229.604 373.016 229.958 373.13C232.792 373.214 236.562 373.328 240.339 373.443C241.943 373.49 243.531 373.536 245.062 373.583C244.26 374.339 243.427 375.12 242.651 375.849C241.318 377.224 239.781 378.281 238.651 379.63C237.542 381 233.432 385.156 232.437 386.375C230.432 388.792 232.995 391.505 235.526 389.656C236.802 388.734 241.203 384.885 242.63 383.854C244.047 382.807 245.193 381.339 246.641 380.083C247.422 379.354 248.25 378.573 249.057 377.818C249.01 379.354 248.964 380.943 248.917 382.547C248.802 386.318 248.687 390.094 248.604 392.922C248.687 393.281 248.495 396.094 250.937 396.62C253.385 397.156 254.068 394.151 254.417 393.099C254.771 392.047 254.62 386.5 254.729 382.714C254.844 378.953 254.958 375.177 255.042 372.349C255.026 372.281 255.062 372.224 255.062 372.156C257.667 369.703 260.401 367.13 263.208 364.49C261.891 371.802 260.552 382.698 263.781 384.599C267.307 386.677 276.641 377.167 281.719 371.516C281.589 375.839 281.469 380.016 281.344 383.979C281.302 384.026 281.281 384.094 281.224 384.12C279.156 386.052 276.411 388.656 273.661 391.234C270.922 393.828 266.667 397.396 266.099 398.354C265.552 399.318 263.75 401.818 265.781 403.297C267.797 404.771 269.771 402.76 270.099 402.594C272.161 400.656 274.906 398.052 277.661 395.479C278.828 394.375 279.99 393.281 281.104 392.234C281.068 393.349 281.026 394.479 281 395.536C281.026 397.458 280.687 399.292 280.849 401.047C281.026 402.797 281.062 408.646 281.224 410.203C281.51 413.328 285.24 413.448 285.724 410.339C285.979 408.792 286.365 402.958 286.646 401.224C286.911 399.479 286.682 397.63 286.823 395.714C286.849 394.656 286.885 393.516 286.917 392.401C287.969 393.526 289.062 394.677 290.161 395.854C292.755 398.599 295.339 401.349 297.281 403.401C297.594 403.599 299.443 405.724 301.547 404.365C303.651 403.016 302.016 400.411 301.521 399.422C301.021 398.422 296.99 394.609 294.401 391.854C291.807 389.109 289.219 386.365 287.286 384.302C287.224 384.26 287.208 384.198 287.167 384.156C287.281 380.469 287.391 376.594 287.51 372.604C291.724 378.714 298.781 387.922 302.521 386.958C306.437 385.953 306.354 372.911 305.969 365.281C308.786 368.26 311.521 371.167 314.125 373.932C314.125 374 314.141 374.063 314.125 374.12C314.036 376.953 313.937 380.724 313.802 384.5C313.698 388.26 313.219 393.802 313.5 394.865C313.786 395.943 314.286 398.979 316.766 398.599C319.24 398.214 319.219 395.396 319.333 395.047C319.406 392.214 319.51 388.443 319.635 384.667C319.682 383.063 319.734 381.469 319.786 379.943C320.536 380.745 321.323 381.583 322.047 382.349C323.427 383.688 324.464 385.224 325.833 386.349C327.198 387.458 331.359 391.573 332.568 392.563C334.99 394.563 337.708 392.005 335.849 389.469C334.927 388.203 331.078 383.802 330.047 382.375C329.01 380.953 327.536 379.818 326.286 378.354C325.557 377.583 324.776 376.755 324.01 375.943C325.547 375.99 327.141 376.036 328.745 376.094C332.521 376.198 336.281 376.307 339.125 376.401C339.474 376.307 342.281 376.505 342.823 374.063C343.339 371.609 340.349 370.932 339.292 370.573C338.245 370.224 332.687 370.385 328.917 370.271C325.141 370.151 321.37 370.047 318.536 369.958C318.474 369.979 318.417 369.943 318.359 369.932C315.859 367.281 313.245 364.505 310.547 361.651C317.839 363.005 329.604 364.604 331.583 361.234C333.661 357.719 324.151 348.391 318.5 343.297C322.536 343.422 326.453 343.542 330.182 343.656C330.229 343.693 330.286 343.719 330.323 343.776C332.266 345.844 334.849 348.583 337.432 351.339C340.031 354.083 343.583 358.333 344.547 358.891C345.51 359.443 348.01 361.245 349.5 359.219C350.974 357.193 348.964 355.219 348.792 354.896C346.859 352.839 344.266 350.094 341.682 347.339C340.578 346.172 339.49 345.016 338.432 343.896C339.547 343.932 340.682 343.964 341.734 343.995C343.661 343.964 345.49 344.318 347.245 344.146C349 343.974 354.839 343.932 356.406 343.781C359.531 343.49 359.641 339.755 356.536 339.276Z" fill="#91A8E0"/>
</g>
<path d="M103.52 149.611H104.957V163.173H105.124V163.798H104.957V177.361H103.52L103.041 175.298C102.718 173.382 101.759 171.548 100.166 169.798C98.5666 168.038 96.7072 166.601 94.5822 165.486C92.4572 164.361 90.3322 163.798 88.2072 163.798H62.5197V228.903H53.103V102.215H116.291V102.694H116.124L117.874 116.257H116.436L115.645 114.194C115.113 112.278 113.968 110.444 112.207 108.694C110.457 106.934 108.436 105.496 106.145 104.382C103.863 103.257 101.608 102.694 99.3739 102.694H62.5197V163.173H88.2072C90.3322 163.173 92.4572 162.621 94.5822 161.507C96.7072 160.382 98.5666 158.944 100.166 157.194C101.759 155.434 102.718 153.59 103.041 151.673L103.52 149.611Z" fill="#91A8E0"/>
<path d="M130.493 103.34C131.227 103.34 131.961 103.21 132.701 102.944C133.451 102.684 134.039 102.439 134.472 102.215H138.472V228.903H130.493V112.59C130.493 110.788 130.305 109.085 129.93 107.486C129.555 105.892 129.102 105.043 128.576 104.944H128.097V104.132C128.414 104.038 128.784 103.934 129.201 103.819C129.628 103.71 130.06 103.606 130.493 103.507V103.34Z" fill="#91A8E0"/>
<path d="M152.67 185.507C152.67 179.871 153.863 174.371 156.253 169.007C158.639 163.632 161.91 158.793 166.066 154.486C170.217 150.168 174.842 146.757 179.941 144.257C185.05 141.757 190.316 140.507 195.732 140.507C201.16 140.507 206.425 141.757 211.524 144.257C216.633 146.757 221.258 150.168 225.399 154.486C229.55 158.793 232.821 163.632 235.212 169.007C237.613 174.371 238.816 179.871 238.816 185.507C238.816 191.147 237.613 196.653 235.212 202.028C232.821 207.392 229.55 212.231 225.399 216.548C221.258 220.856 216.633 224.257 211.524 226.757C206.425 229.257 201.16 230.507 195.732 230.507C190.316 230.507 185.05 229.257 179.941 226.757C174.842 224.257 170.217 220.856 166.066 216.548C161.91 212.231 158.639 207.392 156.253 202.028C153.863 196.653 152.67 191.147 152.67 185.507ZM161.441 185.507C161.441 191.038 162.399 196.434 164.316 201.694C166.232 206.96 168.805 211.726 172.045 215.986C175.295 220.236 178.962 223.585 183.045 226.028C187.139 228.476 191.368 229.694 195.732 229.694C200.092 229.694 204.321 228.476 208.42 226.028C212.514 223.585 216.18 220.236 219.42 215.986C222.67 211.726 225.253 206.96 227.17 201.694C229.087 196.434 230.045 191.038 230.045 185.507C230.045 179.871 229.087 174.444 227.17 169.236C225.253 164.028 222.67 159.298 219.42 155.048C216.18 150.788 212.514 147.434 208.42 144.986C204.321 142.543 200.092 141.319 195.732 141.319C191.368 141.319 187.139 142.543 183.045 144.986C178.962 147.434 175.295 150.788 172.045 155.048C168.805 159.298 166.232 164.028 164.316 169.236C162.399 174.444 161.441 179.871 161.441 185.507Z" fill="#91A8E0"/>
<path d="M320.663 207.194C319.173 211.142 316.569 214.897 312.851 218.465C309.127 222.022 305.028 224.918 300.559 227.153C296.085 229.387 291.83 230.507 287.788 230.507C283.423 230.507 279.168 229.309 275.017 226.923C270.877 224.522 267.153 221.272 263.851 217.173C260.559 213.08 257.955 208.481 256.038 203.382C254.132 198.272 253.184 193.007 253.184 187.59C253.184 181.632 254.246 175.861 256.371 170.278C258.496 164.694 261.335 159.668 264.892 155.194C268.46 150.726 272.476 147.163 276.934 144.507C281.403 141.84 286.038 140.507 290.83 140.507C294.871 140.507 298.986 141.309 303.184 142.903C307.392 144.502 311.111 146.58 314.351 149.132C317.601 151.689 319.705 154.397 320.663 157.257C321.09 158.33 320.877 159.267 320.017 160.069C319.168 160.861 318.059 161.257 316.684 161.257C316.043 161.257 315.319 160.861 314.517 160.069C313.726 159.267 313.111 158.33 312.684 157.257C311.726 154.496 309.996 151.861 307.496 149.361C304.996 146.861 302.252 144.84 299.267 143.298C296.293 141.757 293.423 140.986 290.663 140.986C286.939 140.986 283.319 142.189 279.809 144.59C276.309 146.981 273.147 150.194 270.33 154.236C267.507 158.278 265.272 162.83 263.621 167.882C261.981 172.939 261.163 178.121 261.163 183.423C261.163 189.064 261.934 194.569 263.476 199.944C265.017 205.319 267.142 210.132 269.851 214.382C272.559 218.632 275.559 222.007 278.851 224.507C282.153 227.007 285.564 228.257 289.08 228.257C293.007 228.257 297.127 227.226 301.434 225.153C305.736 223.085 309.621 220.434 313.08 217.194C316.538 213.944 318.96 210.564 320.351 207.048L320.663 207.194Z" fill="#91A8E0"/>
<path d="M370.317 343.523C370.317 337.888 371.51 332.388 373.901 327.023C376.286 321.648 379.557 316.809 383.713 312.502C387.864 308.184 392.489 304.773 397.588 302.273C402.698 299.773 407.963 298.523 413.38 298.523C418.807 298.523 424.073 299.773 429.172 302.273C434.281 304.773 438.906 308.184 443.047 312.502C447.198 316.809 450.469 321.648 452.859 327.023C455.26 332.388 456.463 337.888 456.463 343.523C456.463 349.164 455.26 354.669 452.859 360.044C450.469 365.408 447.198 370.247 443.047 374.565C438.906 378.872 434.281 382.273 429.172 384.773C424.073 387.273 418.807 388.523 413.38 388.523C407.963 388.523 402.698 387.273 397.588 384.773C392.489 382.273 387.864 378.872 383.713 374.565C379.557 370.247 376.286 365.408 373.901 360.044C371.51 354.669 370.317 349.164 370.317 343.523ZM379.088 343.523C379.088 349.054 380.047 354.45 381.963 359.71C383.88 364.976 386.453 369.742 389.692 374.002C392.942 378.252 396.609 381.601 400.692 384.044C404.786 386.492 409.015 387.71 413.38 387.71C417.739 387.71 421.969 386.492 426.067 384.044C430.161 381.601 433.828 378.252 437.067 374.002C440.317 369.742 442.901 364.976 444.817 359.71C446.734 354.45 447.692 349.054 447.692 343.523C447.692 337.888 446.734 332.46 444.817 327.252C442.901 322.044 440.317 317.315 437.067 313.065C433.828 308.804 430.161 305.45 426.067 303.002C421.969 300.559 417.739 299.335 413.38 299.335C409.015 299.335 404.786 300.559 400.692 303.002C396.609 305.45 392.942 308.804 389.692 313.065C386.453 317.315 383.88 322.044 381.963 327.252C380.047 332.46 379.088 337.888 379.088 343.523Z" fill="#91A8E0"/>
<mask id="mask1_1_2" style="mask-type:luminance" maskUnits="userSpaceOnUse" x="216" y="266" width="148" height="147">
<path d="M216.609 266.188H363.021V412.188H216.609V266.188Z" fill="white"/>
</mask>
<g mask="url(#mask1_1_2)">
<path d="M315.135 337.25C309.203 337.073 303.109 336.891 296.932 336.698C301.094 332.781 305.219 328.901 309.229 325.12C309.229 325.12 329.276 322.589 329.562 325.083C329.844 327.583 315.135 337.25 315.135 337.25ZM327.891 356.979C326.318 358.948 309.089 355.38 309.089 355.38L309.083 355.609C305.068 351.344 300.937 346.958 296.755 342.521C302.604 342.698 308.391 342.87 314.026 343.047C316.693 345.151 329.297 355.224 327.891 356.979ZM304.156 378.349C301.661 378.641 291.995 363.922 291.995 363.922C292.156 358.25 292.333 352.411 292.516 346.51C296.484 350.724 300.411 354.896 304.234 358.953C304.693 362.906 306.333 378.109 304.156 378.349ZM293.432 316.094L293.844 315.745C293.844 315.745 306.224 299.781 308.193 301.344C309.922 302.74 307.354 316.318 306.724 319.484C302.24 323.703 297.62 328.057 292.937 332.469C293.104 326.932 293.266 321.443 293.432 316.094ZM287.12 332.286C283.453 328.391 279.807 324.521 276.255 320.755L276.328 320.005C276.328 320.005 273.797 299.964 276.297 299.677C278.375 299.448 285.38 309.542 287.698 312.979C287.51 319.245 287.318 325.724 287.12 332.286ZM286.203 362.807C284.104 365.479 274.026 378.083 272.26 376.688C270.526 375.302 273.104 361.724 273.729 358.557C277.953 354.573 282.302 350.479 286.703 346.339C286.531 351.911 286.365 357.432 286.203 362.807ZM271.219 352.917C271.219 352.917 251.172 355.453 250.891 352.948C250.656 350.87 260.76 343.865 264.182 341.547C270.208 341.729 276.417 341.911 282.703 342.099C278.828 345.755 274.979 349.38 271.224 352.917H271.219ZM252.557 321.057C253.833 319.458 265.422 321.51 269.75 322.339C274.016 326.865 278.422 331.542 282.885 336.281C277.615 336.125 272.391 335.964 267.297 335.813L266.953 335.406C266.953 335.406 250.99 323.021 252.557 321.057ZM360.766 339.276C359.219 339.026 353.375 338.635 351.641 338.359C349.906 338.089 348.047 338.323 346.141 338.172C345.073 338.141 343.932 338.115 342.828 338.078C343.943 337.026 345.104 335.932 346.271 334.833C349.021 332.245 351.771 329.661 353.828 327.719C354.021 327.406 356.151 325.557 354.792 323.453C353.432 321.344 350.828 322.984 349.839 323.479C348.849 323.974 345.026 328.01 342.281 330.594C339.536 333.182 336.781 335.776 334.724 337.714C334.687 337.771 334.63 337.792 334.573 337.833C331.13 337.729 327.526 337.62 323.812 337.51C329.932 333.297 339.141 326.245 338.177 322.505C337.125 318.438 323.083 318.682 315.625 319.104C318.641 316.255 321.568 313.505 324.349 310.88C324.417 310.885 324.479 310.854 324.547 310.87C327.37 310.953 331.141 311.068 334.917 311.182C338.687 311.292 344.219 311.786 345.292 311.495C346.37 311.203 349.406 310.708 349.021 308.229C348.641 305.76 345.812 305.781 345.474 305.677C342.641 305.599 338.87 305.479 335.094 305.37C333.49 305.318 331.896 305.271 330.359 305.224C331.172 304.464 332 303.682 332.776 302.953C334.115 301.578 335.641 300.521 336.776 299.172C337.885 297.807 341.99 293.641 342.99 292.427C344.99 290.01 342.432 287.292 339.896 289.146C338.63 290.068 334.224 293.917 332.792 294.948C331.375 295.99 330.234 297.464 328.781 298.714C328 299.443 327.177 300.224 326.37 300.984C326.417 299.448 326.474 297.859 326.51 296.26C326.625 292.484 326.734 288.714 326.823 285.88C326.734 285.521 326.932 282.714 324.479 282.177C322.036 281.646 321.359 284.651 321.01 285.703C320.651 286.76 320.812 292.307 320.687 296.083C320.583 299.854 320.474 303.625 320.385 306.458C320.396 306.521 320.37 306.583 320.359 306.646C318.01 308.859 315.557 311.172 313.031 313.547C314.349 306.229 315.687 295.339 312.453 293.432C308.729 291.245 298.526 301.979 293.687 307.438C293.818 303.068 293.948 298.839 294.073 294.823C294.115 294.776 294.141 294.708 294.203 294.682C296.255 292.745 299.01 290.151 301.76 287.568C304.5 284.979 308.75 281.417 309.307 280.448C309.865 279.49 311.651 276.984 309.635 275.51C307.615 274.026 305.641 276.031 305.312 276.214C303.255 278.151 300.505 280.74 297.766 283.323C296.594 284.422 295.437 285.521 294.312 286.573C294.349 285.464 294.385 284.323 294.417 283.26C294.385 281.344 294.734 279.505 294.568 277.76C294.396 276 294.354 270.156 294.203 268.599C293.906 265.474 290.172 265.354 289.693 268.458C289.448 270.01 289.062 275.844 288.786 277.583C288.505 279.318 288.745 281.167 288.599 283.083C288.568 284.141 288.531 285.281 288.5 286.396C287.448 285.276 286.354 284.12 285.26 282.948C282.667 280.208 280.078 277.453 278.135 275.396C277.823 275.203 275.979 273.078 273.87 274.427C271.76 275.786 273.406 278.385 273.906 279.385C274.396 280.375 278.427 284.193 281.021 286.938C283.604 289.688 286.187 292.432 288.135 294.5C288.187 294.542 288.214 294.599 288.25 294.646C288.156 297.76 288.052 301.005 287.958 304.339C283.698 298.276 277.234 290.161 273.708 291.073C269.479 292.167 269.917 307.323 270.365 314.49C267.219 311.156 264.182 307.927 261.302 304.87C261.307 304.813 261.276 304.755 261.292 304.682C261.38 301.854 261.49 298.078 261.604 294.307C261.719 290.542 262.208 285.005 261.911 283.938C261.63 282.859 261.125 279.818 258.651 280.208C256.177 280.594 256.203 283.406 256.099 283.76C256.01 286.594 255.901 290.365 255.786 294.13C255.74 295.74 255.693 297.333 255.646 298.87C254.885 298.057 254.104 297.229 253.375 296.448C251.99 295.115 250.948 293.578 249.589 292.458C248.224 291.339 244.068 287.234 242.854 286.234C240.437 284.24 237.714 286.797 239.568 289.328C240.49 290.604 244.344 295 245.375 296.427C246.411 297.849 247.885 298.995 249.135 300.443C249.859 301.214 250.646 302.047 251.406 302.854C249.875 302.813 248.286 302.766 246.677 302.714C242.901 302.609 239.13 302.49 236.302 302.406C235.948 302.495 233.141 302.297 232.599 304.74C232.073 307.188 235.073 307.865 236.13 308.224C237.177 308.578 242.734 308.422 246.5 308.536C250.281 308.646 254.047 308.76 256.88 308.849C256.943 308.828 257.005 308.859 257.062 308.859C259.24 311.177 261.505 313.583 263.839 316.052C256.557 314.797 246.479 313.698 244.646 316.797C242.458 320.516 253.193 330.724 258.646 335.557C253.995 335.411 249.505 335.281 245.24 335.156C245.203 335.109 245.135 335.083 245.104 335.026C243.161 332.969 240.573 330.219 237.984 327.474C235.396 324.724 231.833 320.464 230.875 319.917C229.906 319.354 227.406 317.568 225.927 319.583C224.448 321.609 226.458 323.578 226.63 323.906C228.568 325.964 231.161 328.714 233.745 331.464C234.849 332.635 235.937 333.792 236.995 334.906C235.891 334.87 234.745 334.839 233.682 334.807C231.76 334.833 229.932 334.5 228.182 334.656C226.427 334.828 220.578 334.87 219.016 335.021C215.891 335.318 215.781 339.052 218.891 339.531C220.432 339.781 226.276 340.167 228.01 340.443C229.75 340.714 231.594 340.484 233.505 340.625C234.568 340.656 235.708 340.693 236.818 340.724C235.703 341.776 234.542 342.87 233.375 343.964C230.635 346.557 227.875 349.146 225.818 351.083C225.625 351.396 223.505 353.25 224.854 355.354C226.208 357.464 228.812 355.823 229.812 355.323C230.802 354.828 234.62 350.797 237.365 348.208C240.109 345.62 242.859 343.031 244.922 341.089C244.958 341.036 245.016 341.016 245.068 340.974C248.427 341.073 251.943 341.182 255.552 341.286C249.495 345.547 241.38 352.01 242.286 355.542C243.333 359.609 257.38 359.365 264.839 358.932C261.531 362.047 258.328 365.063 255.297 367.922C255.234 367.922 255.177 367.953 255.104 367.932C252.281 367.849 248.505 367.734 244.734 367.62C240.964 367.505 235.432 367.016 234.359 367.307C233.286 367.604 230.245 368.094 230.63 370.573C231.016 373.047 233.833 373.016 234.182 373.13C237.016 373.214 240.792 373.328 244.562 373.443C246.167 373.49 247.755 373.536 249.286 373.583C248.484 374.339 247.656 375.12 246.875 375.849C245.542 377.224 244.005 378.281 242.88 379.63C241.766 381 237.656 385.156 236.661 386.375C234.656 388.792 237.219 391.505 239.755 389.656C241.026 388.734 245.427 384.885 246.854 383.854C248.276 382.807 249.417 381.339 250.87 380.083C251.646 379.354 252.474 378.573 253.281 377.818C253.234 379.354 253.193 380.943 253.141 382.547C253.026 386.318 252.911 390.094 252.828 392.922C252.911 393.281 252.719 396.094 255.167 396.62C257.609 397.156 258.292 394.151 258.646 393.099C259 392.047 258.844 386.5 258.958 382.714C259.073 378.953 259.187 375.177 259.266 372.349C259.25 372.281 259.286 372.224 259.286 372.156C261.896 369.703 264.625 367.13 267.432 364.49C266.12 371.802 264.781 382.698 268.01 384.599C271.531 386.677 280.865 377.167 285.948 371.516C285.812 375.839 285.698 380.016 285.573 383.979C285.531 384.026 285.505 384.094 285.448 384.12C283.38 386.052 280.635 388.656 277.885 391.234C275.151 393.828 270.891 397.396 270.328 398.354C269.776 399.318 267.979 401.818 270.01 403.297C272.026 404.771 273.995 402.76 274.323 402.594C276.385 400.656 279.135 398.052 281.885 395.479C283.052 394.375 284.214 393.281 285.328 392.234C285.297 393.349 285.255 394.479 285.229 395.536C285.255 397.458 284.911 399.292 285.073 401.047C285.255 402.797 285.292 408.646 285.448 410.203C285.734 413.328 289.464 413.448 289.953 410.339C290.203 408.792 290.589 402.958 290.87 401.224C291.141 399.479 290.906 397.63 291.047 395.714C291.078 394.656 291.115 393.516 291.141 392.401C292.198 393.526 293.286 394.677 294.391 395.854C296.979 398.599 299.562 401.349 301.51 403.401C301.818 403.599 303.667 405.724 305.771 404.365C307.875 403.016 306.24 400.411 305.745 399.422C305.25 398.422 301.219 394.609 298.625 391.854C296.031 389.109 293.443 386.365 291.51 384.302C291.453 384.26 291.432 384.198 291.396 384.156C291.505 380.469 291.62 376.594 291.734 372.604C295.948 378.714 303.01 387.922 306.75 386.958C310.661 385.953 310.578 372.911 310.193 365.281C313.01 368.26 315.745 371.167 318.349 373.932C318.349 374 318.37 374.063 318.349 374.12C318.266 376.953 318.161 380.724 318.031 384.5C317.927 388.26 317.443 393.802 317.729 394.865C318.01 395.943 318.51 398.979 320.99 398.599C323.464 398.214 323.443 395.396 323.557 395.047C323.63 392.214 323.734 388.443 323.859 384.667C323.906 383.063 323.964 381.469 324.01 379.943C324.766 380.745 325.547 381.583 326.276 382.349C327.651 383.688 328.687 385.224 330.057 386.349C331.427 387.458 335.583 391.573 336.792 392.563C339.219 394.563 341.932 392.005 340.073 389.469C339.151 388.203 335.302 383.802 334.276 382.375C333.234 380.953 331.766 379.818 330.51 378.354C329.781 377.583 329 376.755 328.234 375.943C329.776 375.99 331.37 376.036 332.974 376.094C336.745 376.198 340.51 376.307 343.349 376.401C343.698 376.307 346.51 376.505 347.047 374.063C347.568 371.609 344.573 370.932 343.521 370.573C342.474 370.224 336.917 370.385 333.141 370.271C329.37 370.151 325.594 370.047 322.766 369.958C322.698 369.979 322.641 369.943 322.583 369.932C320.083 367.281 317.474 364.505 314.776 361.651C322.068 363.005 333.828 364.604 335.812 361.234C337.885 357.719 328.375 348.391 322.729 343.297C326.766 343.422 330.677 343.542 334.406 343.656C334.453 343.693 334.51 343.719 334.547 343.776C336.49 345.844 339.073 348.583 341.661 351.339C344.255 354.083 347.812 358.333 348.771 358.891C349.734 359.443 352.234 361.245 353.724 359.219C355.198 357.193 353.187 355.219 353.021 354.896C351.083 352.839 348.49 350.094 345.906 347.339C344.802 346.172 343.719 345.016 342.661 343.896C343.776 343.932 344.906 343.964 345.964 343.995C347.885 343.964 349.719 344.318 351.474 344.146C353.224 343.974 359.068 343.932 360.63 343.781C363.755 343.49 363.87 339.755 360.766 339.276Z" fill="#F4B8B7"/>
</g>
</svg>
